Symbols-Medium.sfdir
StartChar: uF02C1
Encoding: 983745 983745 236
Width: 1000
Flags: MW
LayerCount: 2
Back
Fore
SplineSet
900 366 m 1
 840 366 l 1
 840 574 l 1
 668 404 l 1
 717 345 742 276 742 199 c 0
 742 110 710 34 648 -29 c 0
 586 -92 509 -123 420 -123 c 256
 331 -123 255 -92 193 -29 c 0
 131 34 100 110 100 199 c 256
 100 288 131 364 193 426 c 0
 255 488 331 520 420 520 c 0
 497 520 567 496 626 447 c 1
 796 617 l 1
 588 617 l 1
 588 679 l 1
 870 679 l 1
 900 647 l 1
 900 366 l 1
680 199 m 256
 680 271 655 332 604 383 c 0
 553 434 492 459 420 459 c 256
 348 459 287 434 236 383 c 0
 185 332 160 271 160 199 c 256
 160 127 186 65 236 14 c 0
 286 -37 347 -62 420 -62 c 256
 492 -62 553 -37 604 14 c 0
 655 65 680 127 680 199 c 256
EndSplineSet
Colour: ff
EndChar
StartChar: uF02D1
Encoding: 983761 983761 200
Width: 1000
Flags: MW
LayerCount: 2
Back
Fore
SplineSet
934 418 m 1
 666 223 l 1
 768 -92 l 1
 500 103 l 1
 231 -92 l 1
 334 223 l 1
 66 418 l 1
 397 418 l 1
 500 734 l 1
 602 418 l 1
 934 418 l 1
831 384 m 1
 578 384 l 1
 500 623 l 1
 422 384 l 1
 168 384 l 1
 374 233 l 1
 296 -6 l 1
 500 142 l 1
 705 -6 l 1
 625 233 l 1
 831 384 l 1
EndSplineSet
Colour: ff
EndChar
StartChar: uF02D3
Encoding: 983763 983763 202
Width: 1000
Flags: MW
LayerCount: 2
Back
Fore
SplineSet
939 284 m 256
 939 162 896 59 811 -27 c 0
 726 -113 621 -155 499 -155 c 256
 377 -155 274 -113 189 -27 c 0
 104 59 61 162 61 284 c 256
 61 406 104 509 189 595 c 0
 274 681 377 723 499 723 c 256
 621 723 724 681 810 595 c 0
 896 509 939 406 939 284 c 256
899 284 m 256
 899 395 860 489 782 567 c 0
 704 645 610 683 499 683 c 256
 388 683 295 645 217 567 c 0
 139 489 100 395 100 284 c 256
 100 173 139 79 217 1 c 0
 295 -77 388 -115 499 -115 c 256
 610 -115 704 -77 782 1 c 0
 860 79 899 173 899 284 c 256
EndSplineSet
Colour: ff
EndChar
StartChar: uF02DC
Encoding: 983772 983772 211
Width: 1000
Flags: MW
LayerCount: 2
Back
Fore
SplineSet
934 648 m 1
 500 -49 l 1
 66 648 l 1
 934 648 l 1
868 612 m 1
 132 612 l 1
 500 19 l 1
 868 612 l 1
EndSplineSet
Colour: ff
EndChar
StartChar: uF02E1
Encoding: 983777 983777 240
Width: 1000
Flags: MW
LayerCount: 2
Back
Fore
SplineSet
944 284 m 256
 944 271 937 264 924 264 c 2
 166 264 l 1
 240 211 286 141 306 53 c 0
 308 43 310 37 310 36 c 0
 310 28 307 24 300 23 c 9
 292 23 288 23 280 23 c 16
 275 23 272 26 270 32 c 0
 269 37 267 45 264 55 c 0
 259 76 252 95 244 111 c 0
 232 136 218 160 200 181 c 0
 165 222 119 253 64 274 c 0
 59 276 56 279 56 284 c 256
 56 289 59 292 64 295 c 0
 69 297 77 300 86 304 c 0
 158 335 211 387 244 458 c 0
 251 474 258 492 264 513 c 0
 265 518 267 526 270 536 c 0
 271 542 275 545 282 546 c 9
 290 546 294 546 300 545 c 8
 306 544 310 541 310 532 c 0
 310 531 308 525 306 515 c 0
 287 428 241 358 166 304 c 1
 924 304 l 2
 937 304 944 297 944 284 c 256
EndSplineSet
Colour: ff
EndChar
StartChar: uF02E3
Encoding: 983779 983779 242
Width: 1000
Flags: MW
LayerCount: 2
Back
Fore
SplineSet
733 117 m 0
 733 98 731 87 726 85 c 0
 719 83 708 80 694 76 c 0
 651 61 614 37 582 3 c 0
 550 -31 529 -70 518 -114 c 0
 517 -121 514 -132 511 -146 c 0
 510 -152 506 -155 500 -155 c 0
 495 -155 491 -152 489 -146 c 0
 488 -139 485 -128 482 -114 c 0
 471 -71 450 -32 418 2 c 0
 386 36 349 61 306 76 c 0
 299 78 288 81 274 85 c 0
 269 87 267 90 267 95 c 8
 267 102 267 107 267 114 c 17
 268 121 271 125 278 125 c 1
 281 125 l 0
 315 116 341 106 359 96 c 0
 410 69 451 31 480 -18 c 1
 480 706 l 2
 480 718 487 724 500 724 c 256
 513 724 520 718 520 706 c 2
 520 -18 l 1
 549 30 590 68 641 96 c 0
 660 106 686 116 719 125 c 0
 720 125 720 125 722 125 c 0
 729 126 733 123 733 117 c 0
EndSplineSet
Colour: ff
EndChar
StartChar: uF02E7
Encoding: 983783 983783 245
Width: 1000
Flags: MW
LayerCount: 2
Back
Fore
SplineSet
806 20 m 256
 806 7 799 0 786 0 c 2
 498 0 l 2
 417 0 348 27 288 81 c 0
 226 136 194 204 194 284 c 256
 194 364 226 432 288 487 c 0
 348 541 417 568 498 568 c 2
 786 568 l 2
 799 568 806 561 806 548 c 256
 806 535 799 528 786 528 c 2
 502 528 l 2
 432 528 369 505 316 460 c 0
 261 412 234 353 234 284 c 256
 234 215 261 156 316 108 c 0
 369 63 431 40 502 40 c 2
 786 40 l 2
 799 40 806 33 806 20 c 256
806 -126 m 256
 806 -139 800 -146 788 -146 c 2
 214 -146 l 2
 201 -146 194 -139 194 -126 c 256
 194 -113 201 -106 214 -106 c 2
 788 -106 l 2
 800 -106 806 -113 806 -126 c 256
EndSplineSet
Colour: ff
EndChar
StartChar: uF02EB
Encoding: 983787 983787 249
Width: 1000
Flags: MW
LayerCount: 2
Back
Fore
SplineSet
777 190 m 2
 777 124 746 71 685 30 c 0
 631 -5 569 -22 500 -22 c 256
 431 -22 369 -5 315 30 c 0
 254 71 223 124 223 190 c 2
 223 580 l 2
 223 592 230 598 243 598 c 256
 256 598 263 592 263 580 c 2
 263 193 l 2
 263 138 290 94 343 61 c 0
 388 33 441 19 500 18 c 0
 559 18 612 32 657 60 c 0
 710 93 737 137 737 193 c 2
 737 580 l 2
 737 592 744 598 757 598 c 256
 770 598 777 592 777 580 c 2
 777 190 l 2
EndSplineSet
Colour: ff
EndChar
StartChar: uF02F5
Encoding: 983797 983797 258
Width: 1000
Flags: MW
LayerCount: 2
Back
Fore
SplineSet
833 20 m 256
 833 7 827 0 815 0 c 2
 186 0 l 2
 173 0 167 7 167 20 c 256
 167 33 173 40 186 40 c 2
 480 40 l 1
 480 648 l 2
 480 660 487 666 500 666 c 256
 513 666 520 660 520 648 c 2
 520 40 l 1
 815 40 l 2
 827 40 833 33 833 20 c 256
EndSplineSet
Colour: ff
EndChar
StartChar: uF02F7
Encoding: 983799 983799 260
Width: 1000
Flags: MW
LayerCount: 2
Back
Fore
SplineSet
745 396 m 0
 745 294 724 203 682 124 c 0
 630 27 558 -22 466 -22 c 0
 407 -22 357 -1 316 40 c 0
 275 81 255 132 255 192 c 0
 255 255 276 312 318 363 c 0
 371 426 434 457 509 457 c 0
 544 457 575 446 601 423 c 0
 626 402 643 374 654 339 c 1
 655 339 l 1
 660 382 663 417 663 445 c 0
 663 510 651 564 626 609 c 0
 595 664 550 691 490 691 c 0
 422 691 378 665 358 612 c 1
 361 612 361 612 364 612 c 0
 377 612 387 608 396 599 c 0
 405 590 409 580 409 567 c 0
 409 555 405 545 396 536 c 0
 387 527 377 522 364 522 c 0
 351 522 340 526 332 536 c 0
 324 546 319 558 319 571 c 0
 319 580 322 592 328 609 c 0
 354 680 408 715 489 716 c 0
 569 716 633 681 680 612 c 0
 723 551 745 479 745 396 c 0
643 274 m 0
 643 318 632 355 611 385 c 0
 587 418 554 435 512 435 c 0
 451 435 405 405 373 346 c 0
 362 325 353 294 346 251 c 0
 340 215 337 182 338 152 c 0
 338 109 348 75 369 49 c 0
 392 20 424 6 465 6 c 0
 524 6 570 38 603 101 c 0
 630 152 643 209 643 274 c 0
EndSplineSet
Colour: ff
EndChar
StartChar: uF02FC
Encoding: 983804 983804 263
Width: 1000
Flags: MW
LayerCount: 2
Back
Fore
SplineSet
957 284 m 256
 957 276 952 270 943 266 c 2
 373 -3 l 2
 371 -4 369 -4 366 -5 c 0
 353 -5 346 2 346 15 c 0
 346 24 350 30 357 33 c 2
 890 284 l 1
 357 535 l 2
 349 538 345 544 346 553 c 0
 346 566 353 573 366 573 c 0
 369 573 371 573 373 572 c 2
 943 302 l 2
 952 298 957 292 957 284 c 256
654 284 m 256
 654 276 650 270 641 266 c 2
 70 -3 l 2
 68 -4 66 -4 63 -5 c 0
 50 -5 43 2 43 15 c 0
 43 24 47 30 55 33 c 2
 587 284 l 1
 55 535 l 2
 47 538 43 544 43 553 c 0
 43 566 50 573 63 573 c 0
 66 573 68 573 70 572 c 2
 641 302 l 2
 650 298 654 292 654 284 c 256
EndSplineSet
Colour: ff
EndChar
StartChar: uF02FD
Encoding: 983805 983805 264
Width: 1000
Flags: MW
LayerCount: 2
Back
Fore
SplineSet
890 764 m 0
 890 761 891 758 890 757 c 2
 424 -207 l 2
 421 -213 413 -216 398 -216 c 0
 394 -216 390 -214 388 -210 c 2
 190 228 l 1
 148 196 126 180 124 180 c 0
 115 180 110 185 110 194 c 0
 110 197 111 199 114 202 c 2
 232 292 l 2
 235 294 238 295 240 295 c 0
 245 295 248 293 250 288 c 2
 428 -106 l 1
 854 775 l 2
 857 781 861 784 870 784 c 0
 883 784 890 777 890 764 c 0
EndSplineSet
Colour: ff
EndChar
StartChar: uF02FE
Encoding: 983806 983806 265
Width: 1000
Flags: MW
LayerCount: 2
Back
Fore
SplineSet
832 204 m 0
 832 183 827 173 818 173 c 0
 810 173 805 181 804 198 c 0
 803 210 801 228 794 251 c 1
 783 277 766 298 743 314 c 0
 720 330 694 339 666 339 c 0
 630 339 593 325 552 296 c 1
 519 269 484 243 450 216 c 1
 409 187 371 173 334 173 c 0
 285 173 244 193 212 233 c 0
 182 271 168 315 168 364 c 0
 168 385 173 395 182 395 c 0
 190 395 195 387 196 370 c 0
 199 341 204 318 214 301 c 0
 241 253 282 229 334 229 c 0
 371 229 408 243 448 272 c 1
 499 312 499 312 550 352 c 1
 591 381 629 395 666 395 c 0
 714 395 755 375 788 334 c 0
 818 297 832 253 832 204 c 0
EndSplineSet
Colour: ff
EndChar
StartChar: uF0302
Encoding: 983810 983810 269
Width: 1000
Flags: MW
LayerCount: 2
Back
Fore
SplineSet
880 708 m 0
 880 683 869 671 844 671 c 0
 819 671 806 683 806 708 c 0
 806 731 818 743 840 746 c 1
 825 759 804 765 780 764 c 0
 752 764 733 745 720 707 c 0
 710 678 703 635 698 576 c 0
 695 531 691 485 688 439 c 0
 680 316 665 166 640 -12 c 0
 633 -66 618 -111 596 -146 c 0
 567 -193 529 -216 482 -216 c 0
 457 -216 435 -210 416 -197 c 0
 394 -183 383 -164 384 -139 c 0
 384 -114 396 -102 420 -103 c 0
 445 -103 458 -115 458 -139 c 0
 458 -162 447 -174 424 -177 c 1
 439 -190 458 -196 482 -196 c 0
 514 -196 539 -177 554 -139 c 0
 567 -107 575 -40 582 61 c 0
 591 200 603 325 618 436 c 0
 623 478 631 526 638 579 c 0
 646 637 659 683 678 717 c 0
 703 762 737 784 780 784 c 0
 805 784 829 778 848 765 c 0
 870 751 880 732 880 708 c 0
618 708 m 0
 618 683 605 671 580 671 c 0
 555 671 542 683 542 708 c 0
 542 731 554 743 576 746 c 1
 561 759 540 765 516 764 c 0
 488 764 469 745 456 707 c 0
 446 678 439 635 434 576 c 0
 431 531 427 485 424 439 c 0
 416 316 401 166 376 -12 c 0
 369 -66 354 -111 332 -146 c 0
 303 -193 266 -216 220 -216 c 0
 195 -216 171 -210 152 -197 c 0
 130 -183 120 -164 120 -139 c 0
 120 -114 131 -102 156 -103 c 0
 181 -103 194 -115 194 -139 c 0
 194 -162 183 -174 160 -177 c 1
 175 -190 196 -196 220 -196 c 0
 252 -196 275 -177 290 -139 c 0
 303 -106 313 -39 320 61 c 0
 330 206 341 331 354 436 c 0
 359 477 367 525 374 579 c 0
 382 637 395 683 414 717 c 0
 439 762 473 784 516 784 c 0
 541 784 565 778 584 765 c 0
 607 751 618 732 618 708 c 0
EndSplineSet
Colour: ff
EndChar
StartChar: uF0305
Encoding: 983813 983813 270
Width: 1000
Flags: MW
LayerCount: 2
Back
Fore
SplineSet
665 83 m 2
 665 76 662 72 655 70 c 2
 610 57 l 1
 610 -118 l 1
 583 -118 l 1
 583 50 l 1
 417 2 l 1
 417 -191 l 1
 390 -191 l 1
 390 -5 l 1
 345 -19 l 2
 338 -21 335 -19 335 -12 c 2
 335 51 l 2
 335 58 338 62 345 64 c 2
 390 77 l 1
 390 429 l 1
 345 416 l 2
 338 414 335 416 335 423 c 2
 335 486 l 2
 335 493 338 497 345 499 c 2
 390 512 l 1
 390 687 l 1
 417 687 l 1
 417 519 l 1
 583 567 l 1
 583 760 l 1
 610 760 l 1
 610 574 l 1
 655 587 l 2
 662 589 665 587 665 581 c 2
 665 518 l 2
 665 511 662 507 655 505 c 2
 610 492 l 1
 610 140 l 1
 655 153 l 2
 662 155 665 153 665 146 c 2
 665 83 l 2
583 132 m 1
 583 484 l 1
 417 437 l 1
 417 84 l 1
 583 132 l 1
EndSplineSet
Colour: ff
EndChar
StartChar: uF0307
Encoding: 983815 983815 272
Width: 1000
Flags: MW
LayerCount: 2
Back
Fore
SplineSet
776 260 m 0
 776 191 747 107 688 8 c 1
 672 8 l 1
 700 73 716 110 720 121 c 0
 737 166 745 206 745 240 c 0
 745 299 723 354 679 405 c 0
 634 458 583 487 526 490 c 1
 526 -27 l 2
 526 -74 504 -114 461 -147 c 0
 421 -176 376 -191 326 -191 c 0
 297 -191 274 -184 255 -171 c 0
 234 -156 224 -134 224 -105 c 0
 224 -61 245 -22 288 11 c 0
 327 42 370 58 415 59 c 0
 454 59 482 51 499 36 c 1
 499 760 l 1
 526 760 l 1
 537 691 556 637 583 598 c 0
 594 583 613 559 641 527 c 0
 687 476 719 435 736 406 c 0
 763 360 776 311 776 260 c 0
EndSplineSet
Colour: ff
EndChar
StartChar: uF1DC9
Encoding: 990665 990665 276
Width: 1000
Flags: MW
LayerCount: 2
Back
Fore
SplineSet
898 510 m 1
 873 510 l 1
 847 580 794 627 713 652 c 0
 662 667 588 675 490 675 c 2
 198 675 l 1
 472 295 l 2
 474 292 475 289 475 284 c 256
 475 279 474 275 471 272 c 2
 176 -92 l 1
 508 -92 l 2
 601 -92 672 -84 722 -68 c 0
 799 -43 849 4 873 72 c 1
 897 72 l 1
 825 -142 l 1
 111 -142 l 2
 106 -142 103 -139 103 -132 c 0
 103 -130 104 -128 105 -126 c 2
 412 252 l 1
 105 678 l 2
 103 681 102 686 102 695 c 0
 102 705 105 710 111 710 c 2
 825 710 l 1
 898 510 l 1
EndSplineSet
Colour: ff
EndChar
StartChar: uF1DCF
Encoding: 990671 990671 282
Width: 1000
Flags: MW
LayerCount: 2
Back
Fore
SplineSet
777 -4 m 2
 777 -16 770 -22 757 -22 c 256
 744 -22 737 -16 737 -4 c 2
 737 383 l 2
 737 438 710 483 657 516 c 0
 612 544 559 558 500 558 c 0
 441 558 388 544 343 516 c 0
 290 483 263 439 263 383 c 2
 263 -4 l 2
 263 -16 256 -22 243 -22 c 256
 230 -22 223 -16 223 -4 c 2
 223 386 l 2
 223 452 254 505 315 545 c 0
 368 580 430 598 500 598 c 256
 569 598 631 581 685 546 c 0
 746 505 777 452 777 386 c 2
 777 -4 l 2
EndSplineSet
Colour: ff
EndChar
StartChar: uF1F4A
Encoding: 991050 991050 286
Width: 1000
Flags: MW
LayerCount: 2
Back
Fore
SplineSet
791 284 m 1
 209 -78 l 1
 209 646 l 1
 791 284 l 1
698 284 m 1
 258 558 l 1
 258 10 l 1
 698 284 l 1
EndSplineSet
Colour: ff
EndChar
StartChar: uF1F4B
Encoding: 991051 991051 287
Width: 1000
Flags: MW
LayerCount: 2
Back
Fore
SplineSet
776 191 m 0
 776 189 776 189 776 184 c 0
 776 180 776 180 776 178 c 0
 776 176 774 173 769 170 c 0
 697 129 643 85 606 40 c 0
 569 -5 541 -54 523 -107 c 0
 521 -116 517 -129 511 -146 c 0
 509 -152 505 -155 500 -155 c 256
 495 -155 491 -152 489 -146 c 0
 485 -133 485 -133 477 -107 c 0
 459 -54 431 -5 394 40 c 0
 357 85 303 129 231 170 c 0
 227 173 225 175 225 178 c 0
 225 180 225 180 225 184 c 0
 225 187 225 190 224 191 c 0
 224 203 228 209 236 208 c 2
 371 208 l 2
 380 208 384 213 383 222 c 2
 383 704 l 2
 383 717 389 724 402 724 c 2
 599 724 l 2
 611 724 617 717 617 704 c 2
 617 222 l 2
 617 213 621 209 630 208 c 2
 764 208 l 2
 772 209 776 203 776 191 c 0
693 168 m 1
 596 168 l 2
 583 168 577 175 577 188 c 2
 577 671 l 2
 577 680 573 684 565 685 c 2
 435 685 l 2
 427 685 423 680 424 671 c 2
 424 188 l 2
 424 175 417 168 404 168 c 2
 308 168 l 1
 341 144 366 124 383 107 c 0
 435 56 474 -1 500 -65 c 1
 526 0 565 57 617 107 c 0
 635 124 660 144 693 168 c 1
EndSplineSet
Colour: ff
EndChar
StartChar: uF1F4E
Encoding: 991054 991054 290
Width: 1000
Flags: MW
LayerCount: 2
Back
Fore
SplineSet
944 284 m 256
 944 279 941 275 935 273 c 0
 922 269 922 269 896 261 c 0
 843 243 794 216 749 179 c 0
 704 142 660 87 618 15 c 0
 615 11 613 9 611 9 c 0
 609 9 609 9 604 9 c 0
 601 9 599 9 598 8 c 0
 586 8 580 12 580 20 c 2
 580 155 l 2
 580 164 576 168 567 167 c 2
 76 167 l 2
 63 167 56 173 56 186 c 2
 56 383 l 2
 56 395 63 401 76 401 c 2
 567 401 l 2
 576 401 580 405 580 414 c 2
 580 548 l 2
 580 556 586 560 598 560 c 0
 600 560 600 560 604 560 c 0
 608 560 608 560 611 560 c 0
 613 560 615 558 618 553 c 0
 659 481 703 426 749 389 c 0
 794 352 843 325 896 307 c 0
 905 305 918 301 935 295 c 0
 941 293 944 289 944 284 c 256
854 284 m 1
 789 310 732 349 681 401 c 0
 664 418 644 444 620 477 c 1
 620 380 l 2
 620 367 613 361 600 361 c 2
 108 361 l 2
 99 361 95 357 95 349 c 2
 95 219 l 2
 95 211 99 207 108 208 c 2
 600 208 l 2
 613 208 620 201 620 188 c 2
 620 92 l 1
 644 125 664 150 681 167 c 0
 732 219 789 258 854 284 c 1
EndSplineSet
Colour: ff
EndChar
StartChar: uF1F50
Encoding: 991056 991056 291
Width: 1000
Flags: MW
LayerCount: 2
Back
Fore
SplineSet
876 262 m 0
 876 213 859 173 826 140 c 0
 793 107 753 91 704 91 c 0
 662 91 623 106 586 135 c 0
 552 162 525 196 508 237 c 1
 506 237 l 1
 506 211 l 2
 506 131 532 65 584 14 c 0
 605 -7 633 -22 664 -33 c 0
 681 -38 711 -45 754 -54 c 1
 758 -75 l 1
 242 -75 l 1
 246 -54 l 1
 289 -45 319 -38 336 -33 c 0
 367 -22 393 -7 414 14 c 0
 467 65 494 131 494 211 c 2
 494 237 l 1
 492 237 l 1
 475 196 448 162 414 135 c 0
 377 106 338 91 296 91 c 0
 247 91 207 107 174 140 c 0
 141 173 124 214 124 262 c 0
 124 304 137 342 164 376 c 0
 193 412 227 430 268 429 c 0
 297 429 330 419 368 399 c 1
 372 401 l 1
 344 443 330 479 330 510 c 0
 330 557 346 597 379 628 c 0
 412 659 453 675 500 675 c 256
 547 675 587 659 620 628 c 0
 653 597 670 557 670 510 c 0
 670 479 655 443 628 401 c 1
 630 399 l 1
 668 420 701 430 730 429 c 0
 771 429 807 411 836 376 c 0
 863 342 876 304 876 262 c 0
836 262 m 0
 836 295 825 324 804 350 c 0
 783 376 758 389 730 389 c 0
 716 389 697 383 673 372 c 0
 649 361 633 356 626 356 c 0
 622 356 619 357 616 359 c 0
 593 377 582 390 582 397 c 0
 582 400 582 404 584 407 c 0
 614 453 630 487 630 510 c 0
 630 546 617 576 592 600 c 0
 567 624 537 635 500 635 c 256
 463 635 432 624 407 600 c 0
 382 576 370 546 370 510 c 0
 370 490 378 467 394 442 c 0
 410 417 418 401 418 394 c 0
 418 389 415 384 410 381 c 0
 389 364 376 356 370 355 c 0
 367 355 365 356 362 357 c 0
 322 378 290 389 268 389 c 0
 240 389 217 376 196 350 c 0
 175 324 164 295 164 262 c 0
 164 225 177 193 202 168 c 0
 227 143 259 131 296 131 c 0
 333 131 363 144 390 169 c 0
 405 183 423 206 444 239 c 0
 459 264 469 277 478 277 c 2
 486 277 l 2
 491 277 496 275 500 271 c 1
 504 275 509 277 514 277 c 2
 522 277 l 2
 531 277 541 264 556 239 c 0
 576 206 593 182 608 169 c 0
 635 144 667 131 704 131 c 0
 741 131 773 143 798 168 c 0
 823 193 836 225 836 262 c 0
582 -35 m 1
 548 -10 521 24 500 65 c 1
 479 24 451 -10 418 -35 c 1
 582 -35 l 1
EndSplineSet
Colour: ff
EndChar
StartChar: uF1F51
Encoding: 991057 991057 292
Width: 1000
Flags: MW
LayerCount: 2
Back
Fore
SplineSet
832 519 m 0
 832 475 818 427 789 376 c 0
 771 344 742 303 702 252 c 0
 647 183 608 129 583 91 c 0
 543 28 515 -32 500 -90 c 1
 485 -32 457 28 416 91 c 0
 391 130 352 183 298 252 c 0
 258 303 229 344 211 376 c 0
 182 427 168 475 168 519 c 0
 168 564 183 600 214 630 c 0
 245 660 283 675 328 675 c 0
 369 675 407 660 440 629 c 0
 471 600 491 565 500 522 c 1
 509 564 529 600 560 629 c 0
 593 660 630 675 671 675 c 0
 716 675 755 660 786 630 c 0
 817 600 832 564 832 519 c 0
792 519 m 0
 792 553 781 580 758 602 c 0
 735 624 706 635 671 635 c 0
 620 635 581 608 554 554 c 0
 551 548 546 534 539 513 c 0
 531 488 518 475 500 475 c 256
 482 475 469 488 461 513 c 0
 458 522 453 536 446 554 c 1
 419 608 379 635 328 635 c 0
 294 635 265 624 242 602 c 0
 219 580 208 553 208 519 c 0
 208 480 222 437 249 389 c 0
 265 361 292 324 329 277 c 0
 413 171 470 86 500 23 c 1
 530 86 587 170 671 277 c 0
 708 324 735 361 751 389 c 0
 778 437 792 480 792 519 c 0
EndSplineSet
Colour: ff
EndChar
StartChar: uF1F78
Encoding: 991096 991096 295
Width: 1000
Flags: MW
LayerCount: 2
Back
Fore
SplineSet
1000 415 m 1
 1000 414 999 412 998 409 c 0
 990 392 984 380 978 375 c 0
 969 368 957 364 940 364 c 0
 939 364 911 365 858 368 c 0
 829 369 811 371 804 372 c 0
 782 376 767 385 760 400 c 0
 757 406 757 411 758 415 c 0
 758 418 757 420 758 421 c 1
 799 411 851 406 912 407 c 0
 959 407 987 410 1000 415 c 1
992 435 m 1
 973 431 947 429 912 429 c 0
 845 429 789 435 746 447 c 1
 742 477 716 494 668 499 c 1
 665 488 665 478 664 469 c 0
 664 447 675 423 698 398 c 0
 725 367 740 346 744 333 c 2
 836 94 l 2
 840 83 842 71 842 56 c 0
 842 19 830 0 808 0 c 2
 190 0 l 2
 169 0 158 19 158 56 c 0
 158 71 160 83 164 94 c 2
 254 333 l 2
 259 346 275 367 302 398 c 0
 324 423 336 447 336 469 c 0
 336 478 335 488 332 499 c 1
 284 494 258 477 254 447 c 1
 211 434 155 428 88 429 c 0
 53 429 27 431 8 435 c 1
 14 490 23 528 36 548 c 0
 53 573 86 593 136 608 c 0
 243 639 364 654 500 654 c 256
 637 654 757 639 864 608 c 0
 914 594 948 574 964 548 c 0
 977 528 986 490 992 435 c 1
242 415 m 0
 242 411 241 406 238 400 c 0
 231 385 217 376 196 372 c 0
 189 371 172 369 142 368 c 0
 89 366 61 365 60 364 c 0
 43 364 31 368 22 375 c 0
 16 380 9 392 0 409 c 0
 -1 411 0 413 -0 415 c 1
 13 410 41 407 88 407 c 0
 149 407 199 412 240 421 c 1
 241 420 242 418 242 415 c 0
640 505 m 1
 601 514 555 519 500 519 c 256
 445 519 397 514 358 505 c 1
 364 483 374 464 386 447 c 1
 458 450 496 451 500 452 c 256
 505 452 542 450 614 447 c 1
 625 464 634 483 640 505 c 1
668 250 m 0
 668 295 651 335 618 368 c 0
 585 401 546 418 500 418 c 256
 455 418 415 401 382 368 c 0
 349 335 332 295 332 250 c 0
 332 203 348 163 380 130 c 0
 412 97 453 80 500 80 c 256
 547 80 587 97 620 130 c 0
 653 163 668 203 668 250 c 0
578 353 m 256
 573 344 566 342 556 347 c 256
 547 352 544 360 550 369 c 256
 555 378 563 380 572 375 c 256
 581 370 583 362 578 353 c 256
626 322 m 256
 631 313 629 305 620 300 c 256
 611 295 602 297 596 306 c 256
 591 315 593 323 602 328 c 256
 612 333 621 331 626 322 c 256
644 250 m 0
 644 239 639 234 628 233 c 0
 617 233 611 239 612 250 c 0
 612 261 617 267 628 266 c 0
 639 267 644 261 644 250 c 0
516 378 m 0
 516 367 511 361 500 362 c 256
 489 362 483 367 484 378 c 0
 484 389 489 394 500 395 c 256
 511 394 516 389 516 378 c 0
450 369 m 0
 455 360 453 352 444 347 c 256
 435 342 427 344 422 353 c 256
 417 362 419 370 428 375 c 0
 437 380 445 378 450 369 c 0
628 165 m 1
 627 160 624 156 620 153 c 1
 595 165 573 178 556 191 c 0
 555 192 556 192 556 193 c 0
 556 196 557 201 562 206 c 0
 567 211 571 213 572 211 c 0
 587 191 605 176 628 165 c 1
546 250 m 0
 546 236 542 225 533 216 c 0
 524 207 513 202 500 202 c 256
 487 202 475 207 466 216 c 0
 457 225 454 236 454 250 c 0
 454 262 459 273 468 282 c 0
 477 291 488 296 500 296 c 256
 512 296 522 291 532 282 c 0
 542 273 546 262 546 250 c 0
402 306 m 256
 397 297 389 295 380 300 c 256
 371 305 369 313 374 322 c 256
 379 331 387 333 396 328 c 256
 405 323 407 315 402 306 c 256
516 121 m 0
 516 110 511 105 500 104 c 256
 489 104 483 110 484 121 c 0
 484 132 489 138 500 137 c 256
 511 138 516 132 516 121 c 0
388 250 m 0
 388 239 381 233 370 233 c 0
 359 233 354 239 354 250 c 0
 354 261 359 266 370 266 c 0
 381 266 388 261 388 250 c 0
402 193 m 256
 407 184 405 176 396 171 c 256
 387 166 379 168 374 177 c 256
 369 186 371 194 380 199 c 256
 389 204 397 202 402 193 c 256
450 130 m 256
 445 121 437 119 428 124 c 256
 419 129 417 137 422 146 c 256
 427 155 435 157 444 152 c 256
 453 147 455 139 450 130 c 256
EndSplineSet
Colour: ff
EndChar
StartChar: uF1FE6
Encoding: 991206 991206 0
Width: 1000
Flags: MW
LayerCount: 2
Back
Fore
SplineSet
1000 323 m 1
 1000 277 l 1
 674 276 308 276 229 275 c 0
 225 275 220 272 220 268 c 0
 220 242 209 168 172 168 c 0
 164 168 162 179 162 186 c 0
 162 204 168 217 168 253 c 0
 168 278 160 288 160 308 c 0
 160 316 163 326 178 326 c 0
 263 326 661 324 1000 323 c 1
EndSplineSet
EndChar
StartChar: uF1FE7
Encoding: 991207 991207 1
Width: 1000
Flags: MW
LayerCount: 2
Back
Fore
SplineSet
0 277 m 1
 0 323 l 1
 236 322 393 322 446 322 c 0
 479 322 468 359 500 359 c 0
 530 359 524 324 565 324 c 0
 607 324 813 323 1000 323 c 1
 1000 277 l 1
 786 278 550 278 512 278 c 0
 461 278 267 278 0 277 c 1
EndSplineSet
EndChar
StartChar: uF1FE8
Encoding: 991208 991208 2
Width: 1000
Flags: MW
LayerCount: 2
Back
Fore
SplineSet
0 277 m 1
 0 323 l 1
 318 324 723 325 805 325 c 0
 812 325 817 320 817 313 c 0
 817 292 803 300 803 247 c 0
 803 207 812 180 812 175 c 0
 812 168 807 167 803 167 c 0
 783 167 766 194 762 201 c 0
 745 233 753 275 743 275 c 0
 673 275 305 276 0 277 c 1
EndSplineSet
EndChar
StartChar: uF1FE9
Encoding: 991209 991209 3
Width: 1000
Flags: MW
LayerCount: 2
Back
Fore
SplineSet
0 277 m 1
 0 323 l 1
 170 323 310 324 355 324 c 0
 362 324 367 319 367 312 c 0
 367 291 353 301 353 248 c 0
 353 208 362 181 362 176 c 0
 362 169 357 168 353 168 c 0
 333 168 316 195 312 202 c 0
 295 234 303 276 293 276 c 0
 257 276 141 277 0 277 c 1
1000 322 m 1
 1000 277 l 1
 848 277 721 276 679 276 c 0
 675 276 670 273 670 269 c 0
 670 243 659 169 622 169 c 0
 614 169 612 180 612 187 c 0
 612 205 618 218 618 254 c 0
 618 279 610 285 610 305 c 0
 610 313 613 323 628 323 c 0
 676 323 822 323 1000 322 c 1
EndSplineSet
EndChar
StartChar: uF1FEA
Encoding: 991210 991210 4
Width: 1000
Flags: MW
LayerCount: 2
Back
Fore
SplineSet
1000 277 m 1
 661 276 263 274 178 274 c 0
 163 274 160 284 160 292 c 0
 160 312 168 322 168 347 c 0
 168 383 162 396 162 414 c 0
 162 421 164 432 172 432 c 0
 209 432 220 358 220 332 c 0
 220 328 225 325 229 325 c 0
 308 324 674 324 1000 323 c 1
 1000 277 l 1
EndSplineSet
EndChar
StartChar: uF1FEB
Encoding: 991211 991211 5
Width: 1000
Flags: MW
LayerCount: 2
Back
Fore
SplineSet
0 323 m 1
 267 322 461 322 512 322 c 0
 550 322 786 322 1000 323 c 1
 1000 277 l 1
 813 277 607 276 565 276 c 0
 524 276 530 241 500 241 c 0
 468 241 479 278 446 278 c 0
 393 278 236 278 0 277 c 1
 0 323 l 1
EndSplineSet
EndChar
StartChar: uF1FEC
Encoding: 991212 991212 6
Width: 1000
Flags: MW
LayerCount: 2
Back
Fore
SplineSet
0 323 m 1
 305 324 673 325 743 325 c 0
 753 325 745 367 762 399 c 0
 766 406 783 433 803 433 c 0
 807 433 812 432 812 425 c 0
 812 420 803 393 803 353 c 0
 803 300 817 308 817 287 c 0
 817 280 812 275 805 275 c 0
 723 275 318 276 0 277 c 1
 0 323 l 1
EndSplineSet
EndChar
StartChar: uF1FED
Encoding: 991213 991213 7
Width: 1000
Flags: MW
LayerCount: 2
Back
Fore
SplineSet
0 323 m 1
 141 323 257 324 293 324 c 0
 303 324 295 366 312 398 c 0
 316 405 333 432 353 432 c 0
 357 432 362 431 362 424 c 0
 362 419 353 392 353 352 c 0
 353 299 367 309 367 288 c 0
 367 281 362 276 355 276 c 0
 310 276 170 277 0 277 c 1
 0 323 l 1
1000 278 m 1
 822 277 676 277 628 277 c 0
 613 277 610 287 610 295 c 0
 610 315 618 321 618 346 c 0
 618 382 612 395 612 413 c 0
 612 420 614 431 622 431 c 0
 659 431 670 357 670 331 c 0
 670 327 675 324 679 324 c 0
 721 324 848 323 1000 323 c 1
 1000 278 l 1
EndSplineSet
EndChar
StartChar: uF1FEE
Encoding: 991214 991214 8
Width: 1000
Flags: MW
LayerCount: 2
Back
Fore
SplineSet
523 -200 m 1
 477 -200 l 1
 476 126 476 492 475 571 c 0
 475 575 472 580 468 580 c 0
 442 580 368 591 368 628 c 0
 368 636 379 638 386 638 c 0
 404 638 417 632 453 632 c 0
 478 632 488 640 508 640 c 0
 516 640 526 637 526 622 c 0
 526 537 524 139 523 -200 c 1
EndSplineSet
EndChar
StartChar: uF1FEF
Encoding: 991215 991215 9
Width: 1000
Flags: MW
LayerCount: 2
Back
Fore
SplineSet
477 800 m 1
 523 800 l 1
 522 564 522 407 522 354 c 0
 522 321 559 332 559 300 c 0
 559 270 524 276 524 235 c 0
 524 193 523 -13 523 -200 c 1
 477 -200 l 1
 478 14 478 250 478 288 c 0
 478 339 478 533 477 800 c 1
EndSplineSet
EndChar
StartChar: uF1FF0
Encoding: 991216 991216 10
Width: 1000
Flags: MW
LayerCount: 2
Back
Fore
SplineSet
477 800 m 1
 523 800 l 1
 524 482 525 77 525 -5 c 0
 525 -12 520 -17 513 -17 c 0
 492 -17 500 -3 447 -3 c 0
 407 -3 380 -12 375 -12 c 0
 368 -12 367 -7 367 -3 c 0
 367 17 394 34 401 38 c 0
 433 55 475 47 475 57 c 0
 475 127 476 495 477 800 c 1
EndSplineSet
EndChar
StartChar: uF1FF1
Encoding: 991217 991217 11
Width: 1000
Flags: MW
LayerCount: 2
Back
Fore
SplineSet
477 800 m 1
 523 800 l 1
 523 630 524 490 524 445 c 0
 524 438 519 433 512 433 c 0
 491 433 501 447 448 447 c 0
 408 447 381 438 376 438 c 0
 369 438 368 443 368 447 c 0
 368 467 395 484 402 488 c 0
 434 505 476 497 476 507 c 0
 476 543 477 659 477 800 c 1
522 -200 m 1
 477 -200 l 1
 477 -48 476 79 476 121 c 0
 476 125 473 130 469 130 c 0
 443 130 369 141 369 178 c 0
 369 186 380 188 387 188 c 0
 405 188 418 182 454 182 c 0
 479 182 485 190 505 190 c 0
 513 190 523 187 523 172 c 0
 523 124 523 -22 522 -200 c 1
EndSplineSet
EndChar
StartChar: uF1FF2
Encoding: 991218 991218 12
Width: 1000
Flags: MW
LayerCount: 2
Back
Fore
SplineSet
477 -200 m 1
 476 139 474 537 474 622 c 0
 474 637 484 640 492 640 c 0
 512 640 522 632 547 632 c 0
 583 632 596 638 614 638 c 0
 621 638 632 636 632 628 c 0
 632 591 558 580 532 580 c 0
 528 580 525 575 525 571 c 0
 524 492 524 126 523 -200 c 1
 477 -200 l 1
EndSplineSet
EndChar
StartChar: uF1FF3
Encoding: 991219 991219 13
Width: 1000
Flags: MW
LayerCount: 2
Back
Fore
SplineSet
523 800 m 1
 522 533 522 339 522 288 c 0
 522 250 522 14 523 -200 c 1
 477 -200 l 1
 477 -13 476 193 476 235 c 0
 476 276 441 270 441 300 c 0
 441 332 478 321 478 354 c 0
 478 407 478 564 477 800 c 1
 523 800 l 1
EndSplineSet
EndChar
StartChar: uF1FF4
Encoding: 991220 991220 14
Width: 1000
Flags: MW
LayerCount: 2
Back
Fore
SplineSet
523 800 m 1
 524 495 525 127 525 57 c 0
 525 47 567 55 599 38 c 0
 606 34 633 17 633 -3 c 0
 633 -7 632 -12 625 -12 c 0
 620 -12 593 -3 553 -3 c 0
 500 -3 508 -17 487 -17 c 0
 480 -17 475 -12 475 -5 c 0
 475 77 476 482 477 800 c 1
 523 800 l 1
EndSplineSet
EndChar
StartChar: uF1FF5
Encoding: 991221 991221 15
Width: 1000
Flags: MW
LayerCount: 2
Back
Fore
SplineSet
523 800 m 1
 523 659 524 543 524 507 c 0
 524 497 566 505 598 488 c 0
 605 484 632 467 632 447 c 0
 632 443 631 438 624 438 c 0
 619 438 592 447 552 447 c 0
 499 447 509 433 488 433 c 0
 481 433 476 438 476 445 c 0
 476 490 477 630 477 800 c 1
 523 800 l 1
478 -200 m 1
 477 -22 477 124 477 172 c 0
 477 187 487 190 495 190 c 0
 515 190 521 182 546 182 c 0
 582 182 595 188 613 188 c 0
 620 188 631 186 631 178 c 0
 631 141 557 130 531 130 c 0
 527 130 524 125 524 121 c 0
 524 79 523 -48 523 -200 c 1
 478 -200 l 1
EndSplineSet
EndChar
StartChar: uF1FF8
Encoding: 991224 991224 147
Width: 1000
Flags: MW
LayerCount: 2
Back
Fore
SplineSet
642 -132 m 2,0,-1
 642 -130 l 2,1,-1
 642 -124 642 -124 659.5 -104.5 c 0,4,-1
 677 -85 677 -85 710.5 -36.5 c 0,7,-1
 744 12 744 12 775 77 c 0,10,-1
 802 134 802 134 802 187 c 0,13,-1
 802 212 802 212 785.5 227.5 c 0,16,-1
 769 243 769 243 740 243 c 0,19,-1
 714 243 714 243 695 234 c 0,22,-1
 676 225 676 225 666 216 c 0,25,-1
 656 207 656 207 652 207 c 0,28,-1
 647 207 647 207 647 216 c 0,31,-1
 647 219 647 219 651 227 c 0,34,-1
 655 235 655 235 665 246.5 c 0,37,-1
 675 258 675 258 688 268.5 c 0,40,-1
 701 279 701 279 722 286.5 c 0,43,-1
 743 294 743 294 766 294 c 0,46,-1
 805 294 805 294 835 272.5 c 0,49,-1
 865 251 865 251 865 212 c 0,52,-1
 865 166 865 166 827 97 c 0,55,-1
 789 28 789 28 751 -23 c 0,58,-1
 713 -74 713 -74 713 -76 c 0,61,-1
 713 -81 713 -81 739 -81 c 2,64,-1
 753 -81 l 2,65,-1
 785 -81 785 -81 800.5 -81 c 0,68,-1
 816 -81 816 -81 827.5 -80 c 0,71,-1
 839 -79 839 -79 840.5 -79 c 0,74,-1
 842 -79 842 -79 847.5 -76.5 c 0,77,-1
 853 -74 853 -74 854 -73 c 0,80,-1
 864 -69 864 -69 878 -55.5 c 0,83,-1
 892 -42 892 -42 896 -42 c 0,86,-1
 903 -42 903 -42 903 -48 c 2,89,-1
 860 -127 l 2,90,-1
 851 -140 851 -140 839 -140 c 0,93,-1
 796 -140 796 -140 769 -139 c 0,96,-1
 742 -138 742 -138 732 -138 c 0,99,-1
 725 -138 725 -138 698 -138.5 c 0,102,-1
 671 -139 671 -139 662 -139 c 0,105,-1
 642 -139 642 -139 642 -132 c 2,0,-1
132 685 m 0,108,-1
 132 695 132 695 139.5 699.5 c 0,111,-1
 147 704 147 704 170 711.5 c 0,114,-1
 193 719 193 719 211 728 c 0,117,-1
 220 732 220 732 229.5 739 c 0,120,-1
 239 746 239 746 245 750 c 0,123,-1
 251 754 251 754 255 754 c 0,126,-1
 265 754 265 754 265 740 c 0,129,-1
 265 738 265 738 262 726 c 0,132,-1
 259 714 259 714 259 710 c 0,135,-1
 255 610 255 610 255 510 c 0,138,-1
 255 475 255 475 254 436 c 0,141,-1
 253 397 253 397 253 391 c 0,144,-1
 253 379 253 379 255.5 371 c 0,147,-1
 258 363 258 363 260 358.5 c 0,150,-1
 262 354 262 354 269.5 351.5 c 0,153,-1
 277 349 277 349 280.5 348 c 0,156,-1
 284 347 284 347 296 346 c 0,159,-1
 308 345 308 345 313 345 c 0,162,-1
 325 343 325 343 325 332 c 0,165,-1
 325 320 325 320 290 320 c 0,168,-1
 281 320 281 320 261 320.5 c 0,171,-1
 241 321 241 321 228 321 c 0,174,-1
 213 321 213 321 187.5 320 c 0,177,-1
 162 319 162 319 154 319 c 0,180,-1
 135 319 135 319 135 331 c 0,183,-1
 135 345 135 345 157 345 c 0,186,-1
 175 345 175 345 182.5 349 c 0,189,-1
 190 353 190 353 192 369 c 0,192,-1
 198 413 198 413 198 529 c 0,195,-1
 198 570 198 570 198 596 c 0,198,-1
 198 622 198 622 198.5 629.5 c 0,201,-1
 199 637 199 637 199 641.5 c 0,204,-1
 199 646 199 646 199 649 c 0,207,-1
 199 685 199 685 178 685 c 0,210,-1
 170 685 170 685 159 679 c 0,213,-1
 148 673 148 673 140 673 c 0,216,-1
 139 673 139 673 137.5 674 c 0,219,-1
 136 675 136 675 134 678 c 0,222,-1
 132 681 132 681 132 685 c 0,108,-1
49 -170 m 0,225,-1
 49 -161 50 -148 77 -121 c 2,228,-1
 77 -121 886 712 891 717 c 0,231,-1
 902 729 908 735 926 735 c 0,234,-1
 935 735 939 728 939 723 c 0,237,-1
 939 707 928 697 919 687 c 2,240,-1
 108 -152 l 2,241,-1
 88 -173 82 -183 67 -183 c 0,244,-1
 55 -183 49 -178 49 -170 c 0,225,-1
EndSplineSet
EndChar
StartChar: uF1FF9
Encoding: 991225 991225 148
Width: 1000
Flags: MW
LayerCount: 2
Back
Fore
SplineSet
132 685 m 4,0,-1
 132 695 132 695 139.5 699.5 c 4,3,-1
 147 704 147 704 170 711.5 c 4,6,-1
 193 719 193 719 211 728 c 4,9,-1
 220 732 220 732 229.5 739 c 4,12,-1
 239 746 239 746 245 750 c 4,15,-1
 251 754 251 754 255 754 c 4,18,-1
 265 754 265 754 265 740 c 4,21,-1
 265 738 265 738 262 726 c 4,24,-1
 259 714 259 714 259 710 c 4,27,-1
 255 610 255 610 255 510 c 4,30,-1
 255 475 255 475 254 436 c 4,33,-1
 253 397 253 397 253 391 c 4,36,-1
 253 379 253 379 255.5 371 c 4,39,-1
 258 363 258 363 260 358.5 c 4,42,-1
 262 354 262 354 269.5 351.5 c 4,45,-1
 277 349 277 349 280.5 348 c 4,48,-1
 284 347 284 347 296 346 c 4,51,-1
 308 345 308 345 313 345 c 4,54,-1
 325 343 325 343 325 332 c 4,57,-1
 325 320 325 320 290 320 c 4,60,-1
 281 320 281 320 261 320.5 c 4,63,-1
 241 321 241 321 228 321 c 4,66,-1
 213 321 213 321 187.5 320 c 4,69,-1
 162 319 162 319 154 319 c 4,72,-1
 135 319 135 319 135 331 c 4,75,-1
 135 345 135 345 157 345 c 4,78,-1
 175 345 175 345 182.5 349 c 4,81,-1
 190 353 190 353 192 369 c 4,84,-1
 198 413 198 413 198 529 c 4,87,-1
 198 570 198 570 198 596 c 4,90,-1
 198 622 198 622 198.5 629.5 c 4,93,-1
 199 637 199 637 199 641.5 c 4,96,-1
 199 646 199 646 199 649 c 4,99,-1
 199 685 199 685 178 685 c 4,102,-1
 170 685 170 685 159 679 c 4,105,-1
 148 673 148 673 140 673 c 4,108,-1
 139 673 139 673 137.5 674 c 4,111,-1
 136 675 136 675 134 678 c 4,114,-1
 132 681 132 681 132 685 c 4,0,-1
49 -170 m 0,117,-1
 49 -161 50 -148 77 -121 c 2,120,-1
 77 -121 886 712 891 717 c 0,123,-1
 902 729 908 735 926 735 c 0,126,-1
 935 735 939 728 939 723 c 0,129,-1
 939 707 928 697 919 687 c 2,132,-1
 108 -152 l 2,133,-1
 88 -173 82 -183 67 -183 c 0,136,-1
 55 -183 49 -178 49 -170 c 0,117,-1
619 -6 m 4,139,-1
 619 5 619 5 643.5 37.5 c 4,142,-1
 668 70 668 70 798 232 c 4,145,-1
 804 239 804 239 813 251 c 4,148,-1
 822 263 822 263 827.5 270 c 4,151,-1
 833 277 833 277 839.5 282.5 c 4,154,-1
 846 288 846 288 851 288 c 4,157,-1
 862 288 862 288 862 276 c 4,160,-1
 862 275 862 275 860 225 c 4,163,-1
 858 175 858 175 856.5 120 c 4,166,-1
 855 65 855 65 855 53 c 4,169,-1
 855 44 855 44 856 41.5 c 4,172,-1
 857 39 857 39 863 39 c 4,175,-1
 888 39 888 39 900 47.5 c 4,178,-1
 912 56 912 56 915 56 c 4,181,-1
 922 56 922 56 922 47 c 4,184,-1
 922 44 922 44 915 16 c 4,187,-1
 910 -15 910 -15 900 -15 c 4,190,-1
 895 -15 895 -15 882 -14.5 c 4,193,-1
 869 -14 869 -14 865 -14 c 4,196,-1
 853 -14 853 -14 853 -25 c 4,199,-1
 853 -33 853 -33 854 -58.5 c 4,202,-1
 855 -84 855 -84 855 -105 c 6,205,-1
 855 -158 l 6,206,-1
 855 -180 855 -180 852 -182.5 c 4,209,-1
 849 -185 849 -185 828 -190 c 4,212,-1
 811 -193 811 -193 803 -193 c 4,215,-1
 795 -193 795 -193 791 -188 c 4,218,-1
 787 -183 787 -183 787 -178 c 4,221,-1
 787 -177 787 -177 788.5 -172.5 c 4,224,-1
 790 -168 790 -168 792 -157.5 c 4,227,-1
 794 -147 794 -147 795.5 -131 c 4,230,-1
 797 -115 797 -115 798.5 -85 c 4,233,-1
 800 -55 800 -55 800 -18 c 4,236,-1
 800 -14 800 -14 792 -14 c 4,239,-1
 790 -14 790 -14 787 -14 c 4,242,-1
 784 -14 784 -14 779 -14.5 c 4,245,-1
 774 -15 774 -15 755.5 -15 c 4,248,-1
 737 -15 737 -15 709 -15 c 4,251,-1
 695 -15 695 -15 670.5 -15.5 c 4,254,-1
 646 -16 646 -16 637 -16 c 4,257,-1
 619 -16 619 -16 619 -6 c 4,139,-1
684 42 m 4,260,-1
 684 36 684 36 702 36 c 6,263,-1
 783 36 l 6,264,-1
 800 36 800 36 800 43 c 6,267,-1
 800 49 l 5,268,-1
 801 75 l 6,269,-1
 802 101 802 101 802.5 133.5 c 4,272,-1
 803 166 803 166 803 181 c 4,275,-1
 803 197 803 197 800 197 c 4,278,-1
 796 197 796 197 740 124 c 4,281,-1
 684 51 684 51 684 42 c 4,260,-1
EndSplineSet
EndChar
StartChar: uF200E
Encoding: 991246 991246 213
Width: 1000
Flags: MW
LayerCount: 2
Back
Fore
SplineSet
56 186 m 2
 56 383 l 2
 56 395 63 401 76 401 c 2
 567 401 l 2
 576 401 580 405 580 414 c 2
 580 548 l 2
 580 556 586 560 598 560 c 0
 599 560 599 560 604 560 c 0
 609 560 609 560 611 560 c 0
 613 559 615 557 618 553 c 0
 660 481 703 427 748 390 c 0
 793 353 843 325 896 307 c 0
 922 299 922 299 935 295 c 0
 941 293 944 289 944 284 c 256
 944 279 941 275 935 273 c 0
 918 267 905 263 896 261 c 0
 843 243 793 215 748 178 c 0
 703 141 659 87 618 15 c 0
 615 11 613 9 611 9 c 0
 608 9 608 9 604 9 c 0
 601 8 599 8 598 8 c 0
 586 8 580 12 580 20 c 2
 580 155 l 2
 580 163 576 167 567 167 c 2
 76 167 l 2
 63 168 56 174 56 186 c 2
EndSplineSet
Colour: ff
EndChar
StartChar: uF200F
Encoding: 991247 991247 214
Width: 1000
Flags: MW
LayerCount: 2
Back
Fore
SplineSet
944 186 m 2
 944 174 937 168 924 167 c 2
 433 167 l 2
 424 167 420 163 420 155 c 2
 420 20 l 2
 420 12 414 8 402 8 c 0
 401 8 399 8 396 9 c 0
 392 9 392 9 389 9 c 0
 387 9 385 11 382 15 c 0
 341 87 297 141 252 178 c 0
 207 215 157 243 104 261 c 0
 95 263 82 267 65 273 c 0
 59 275 56 279 56 284 c 256
 56 289 59 293 65 295 c 0
 78 299 78 299 104 307 c 0
 157 325 207 353 252 390 c 0
 297 427 340 481 382 553 c 0
 385 557 387 559 389 560 c 0
 391 560 391 560 396 560 c 0
 401 560 401 560 402 560 c 0
 414 560 420 556 420 548 c 2
 420 414 l 2
 420 405 424 401 433 401 c 2
 924 401 l 2
 937 401 944 395 944 383 c 2
 944 186 l 2
EndSplineSet
Colour: ff
EndChar
StartChar: uF2013
Encoding: 991251 991251 218
Width: 1000
Flags: MW
LayerCount: 2
Back
Fore
SplineSet
856 212 m 0
 856 167 840 129 809 98 c 0
 778 67 740 52 695 52 c 0
 654 52 617 65 583 92 c 0
 553 117 528 150 510 190 c 1
 508 190 l 1
 508 175 l 2
 508 -17 600 -116 785 -122 c 1
 790 -150 l 1
 210 -150 l 1
 215 -122 l 1
 399 -116 491 -18 491 175 c 2
 491 190 l 1
 489 190 l 1
 471 150 447 117 417 92 c 0
 383 65 345 52 304 52 c 0
 259 52 221 67 190 99 c 0
 159 131 144 168 144 212 c 0
 144 259 162 305 196 350 c 0
 214 374 249 410 303 458 c 0
 359 509 399 553 425 588 c 0
 462 638 486 692 499 750 c 1
 512 692 537 638 574 588 c 0
 600 553 640 509 697 458 c 0
 750 410 785 374 803 350 c 0
 838 305 856 259 856 212 c 0
EndSplineSet
Colour: ff
EndChar
StartChar: uF2014
Encoding: 991252 991252 219
Width: 1000
Flags: MW
LayerCount: 2
Back
Fore
SplineSet
898 564 m 0
 898 511 881 455 847 393 c 0
 825 355 790 305 742 244 c 0
 676 161 630 97 600 51 c 0
 552 -24 518 -96 500 -166 c 1
 482 -96 448 -24 399 51 c 0
 369 97 323 162 258 244 c 0
 210 305 175 355 153 393 c 0
 119 455 102 511 102 564 c 0
 102 618 120 662 157 698 c 0
 194 734 240 752 294 752 c 0
 344 752 388 733 428 696 c 0
 465 662 489 619 500 568 c 1
 511 618 535 661 572 696 c 0
 611 733 655 752 705 752 c 0
 759 752 806 734 843 698 c 0
 880 662 898 618 898 564 c 0
EndSplineSet
Colour: ff
EndChar
StartChar: uF2634
Encoding: 992820 992820 55
Width: 1000
Flags: MW
LayerCount: 2
Back
Fore
SplineSet
640 -107 m 0,0,-1
 640 -97 640 -97 653 -97 c 0,3,-1
 656 -97 656 -97 663.5 -103.5 c 0,6,-1
 671 -110 671 -110 687.5 -117 c 0,9,-1
 704 -124 704 -124 727 -124 c 0,12,-1
 779 -124 779 -124 806.5 -85 c 0,15,-1
 834 -46 834 -46 834 -7 c 0,18,-1
 834 30 834 30 814 54 c 0,21,-1
 794 78 794 78 747 78 c 0,24,-1
 742 78 742 78 737.5 77.5 c 0,27,-1
 733 77 733 77 731 76.5 c 0,30,-1
 729 76 729 76 728 76 c 0,33,-1
 720 76 720 76 720 85 c 0,36,-1
 720 87 720 87 721 88 c 0,39,-1
 722 89 722 89 725.5 91.5 c 0,42,-1
 729 94 729 94 733.5 96.5 c 0,45,-1
 738 99 738 99 747 105.5 c 0,48,-1
 756 112 756 112 767 120 c 0,51,-1
 804 149 804 149 804 188 c 0,54,-1
 804 211 804 211 789 227 c 0,57,-1
 774 243 774 243 751 243 c 0,60,-1
 729 243 729 243 702.5 226 c 0,63,-1
 676 209 676 209 674 209 c 0,66,-1
 669 209 669 209 669 214 c 0,69,-1
 669 232 669 232 705.5 260 c 0,72,-1
 742 288 742 288 772 288 c 0,75,-1
 809 288 809 288 835.5 270 c 0,78,-1
 862 252 862 252 862 217 c 0,81,-1
 862 197 862 197 852.5 179.5 c 0,84,-1
 843 162 843 162 834 153.5 c 0,87,-1
 825 145 825 145 804 128 c 0,90,-1
 793 120 793 120 793 117 c 0,93,-1
 793 116 793 116 800.5 114.5 c 0,96,-1
 808 113 808 113 822.5 108.5 c 0,99,-1
 837 104 837 104 850 96 c 0,102,-1
 897 66 897 66 897 16 c 0,105,-1
 897 -56 897 -56 849.5 -104.5 c 0,108,-1
 802 -153 802 -153 738 -153 c 0,111,-1
 703 -153 703 -153 671.5 -138 c 0,114,-1
 640 -123 640 -123 640 -107 c 0,0,-1
76 513 m 0,117,-1
 76 619 76 619 120.5 683.5 c 0,120,-1
 165 748 165 748 229 748 c 0,123,-1
 292 748 292 748 326.5 688.5 c 0,126,-1
 361 629 361 629 361 537 c 0,129,-1
 361 441 361 441 322.5 375.5 c 0,132,-1
 284 310 284 310 215 310 c 0,135,-1
 176 310 176 310 148 326.5 c 0,138,-1
 120 343 120 343 105 373 c 0,141,-1
 90 403 90 403 83 437 c 0,144,-1
 76 471 76 471 76 513 c 0,117,-1
121 551 m 0,147,-1
 121 471 121 471 152.5 405.5 c 0,150,-1
 184 340 184 340 232 340 c 0,153,-1
 273 340 273 340 296 388.5 c 0,156,-1
 319 437 319 437 319 505 c 0,159,-1
 319 583 319 583 290 643 c 0,162,-1
 261 703 261 703 211 703 c 0,165,-1
 167 703 167 703 144 659.5 c 0,168,-1
 121 616 121 616 121 551 c 0,147,-1
49 -170 m 0,171,-1
 49 -161 50 -148 77 -121 c 2,174,-1
 77 -121 886 712 891 717 c 0,177,-1
 902 729 908 735 926 735 c 0,180,-1
 935 735 939 728 939 723 c 0,183,-1
 939 707 928 697 919 687 c 2,186,-1
 108 -152 l 2,187,-1
 88 -173 82 -183 67 -183 c 0,190,-1
 55 -183 49 -178 49 -170 c 0,171,-1
EndSplineSet
EndChar
StartChar: uF2635
Encoding: 992821 992821 56
Width: 1000
Flags: MW
LayerCount: 2
Back
Fore
SplineSet
132 685 m 4,0,-1
 132 695 132 695 139.5 699.5 c 4,3,-1
 147 704 147 704 170 711.5 c 4,6,-1
 193 719 193 719 211 728 c 4,9,-1
 220 732 220 732 229.5 739 c 4,12,-1
 239 746 239 746 245 750 c 4,15,-1
 251 754 251 754 255 754 c 4,18,-1
 265 754 265 754 265 740 c 4,21,-1
 265 738 265 738 262 726 c 4,24,-1
 259 714 259 714 259 710 c 4,27,-1
 255 610 255 610 255 510 c 4,30,-1
 255 475 255 475 254 436 c 4,33,-1
 253 397 253 397 253 391 c 4,36,-1
 253 379 253 379 255.5 371 c 4,39,-1
 258 363 258 363 260 358.5 c 4,42,-1
 262 354 262 354 269.5 351.5 c 4,45,-1
 277 349 277 349 280.5 348 c 4,48,-1
 284 347 284 347 296 346 c 4,51,-1
 308 345 308 345 313 345 c 4,54,-1
 325 343 325 343 325 332 c 4,57,-1
 325 320 325 320 290 320 c 4,60,-1
 281 320 281 320 261 320.5 c 4,63,-1
 241 321 241 321 228 321 c 4,66,-1
 213 321 213 321 187.5 320 c 4,69,-1
 162 319 162 319 154 319 c 4,72,-1
 135 319 135 319 135 331 c 4,75,-1
 135 345 135 345 157 345 c 4,78,-1
 175 345 175 345 182.5 349 c 4,81,-1
 190 353 190 353 192 369 c 4,84,-1
 198 413 198 413 198 529 c 4,87,-1
 198 570 198 570 198 596 c 4,90,-1
 198 622 198 622 198.5 629.5 c 4,93,-1
 199 637 199 637 199 641.5 c 4,96,-1
 199 646 199 646 199 649 c 4,99,-1
 199 685 199 685 178 685 c 4,102,-1
 170 685 170 685 159 679 c 4,105,-1
 148 673 148 673 140 673 c 4,108,-1
 139 673 139 673 137.5 674 c 4,111,-1
 136 675 136 675 134 678 c 4,114,-1
 132 681 132 681 132 685 c 4,0,-1
49 -170 m 0,117,-1
 49 -161 50 -148 77 -121 c 2,120,-1
 77 -121 886 712 891 717 c 0,123,-1
 902 729 908 735 926 735 c 0,126,-1
 935 735 939 728 939 723 c 0,129,-1
 939 707 928 697 919 687 c 2,132,-1
 108 -152 l 2,133,-1
 88 -173 82 -183 67 -183 c 0,136,-1
 55 -183 49 -178 49 -170 c 0,117,-1
640 -107 m 4,139,-1
 640 -97 640 -97 653 -97 c 4,142,-1
 656 -97 656 -97 663.5 -103.5 c 4,145,-1
 671 -110 671 -110 687.5 -117 c 4,148,-1
 704 -124 704 -124 727 -124 c 4,151,-1
 779 -124 779 -124 806.5 -85 c 4,154,-1
 834 -46 834 -46 834 -7 c 4,157,-1
 834 30 834 30 814 54 c 4,160,-1
 794 78 794 78 747 78 c 4,163,-1
 742 78 742 78 737.5 77.5 c 4,166,-1
 733 77 733 77 731 76.5 c 4,169,-1
 729 76 729 76 728 76 c 4,172,-1
 720 76 720 76 720 85 c 4,175,-1
 720 87 720 87 721 88 c 4,178,-1
 722 89 722 89 725.5 91.5 c 4,181,-1
 729 94 729 94 733.5 96.5 c 4,184,-1
 738 99 738 99 747 105.5 c 4,187,-1
 756 112 756 112 767 120 c 4,190,-1
 804 149 804 149 804 188 c 4,193,-1
 804 211 804 211 789 227 c 4,196,-1
 774 243 774 243 751 243 c 4,199,-1
 729 243 729 243 702.5 226 c 4,202,-1
 676 209 676 209 674 209 c 4,205,-1
 669 209 669 209 669 214 c 4,208,-1
 669 232 669 232 705.5 260 c 4,211,-1
 742 288 742 288 772 288 c 4,214,-1
 809 288 809 288 835.5 270 c 4,217,-1
 862 252 862 252 862 217 c 4,220,-1
 862 197 862 197 852.5 179.5 c 4,223,-1
 843 162 843 162 834 153.5 c 4,226,-1
 825 145 825 145 804 128 c 4,229,-1
 793 120 793 120 793 117 c 4,232,-1
 793 116 793 116 800.5 114.5 c 4,235,-1
 808 113 808 113 822.5 108.5 c 4,238,-1
 837 104 837 104 850 96 c 4,241,-1
 897 66 897 66 897 16 c 4,244,-1
 897 -56 897 -56 849.5 -104.5 c 4,247,-1
 802 -153 802 -153 738 -153 c 4,250,-1
 703 -153 703 -153 671.5 -138 c 4,253,-1
 640 -123 640 -123 640 -107 c 4,139,-1
EndSplineSet
EndChar
StartChar: uF2636
Encoding: 992822 992822 57
Width: 1000
Flags: MW
LayerCount: 2
Back
Fore
SplineSet
92 327 m 6,0,-1
 92 329 l 6,1,-1
 92 335 92 335 109.5 354.5 c 4,4,-1
 127 374 127 374 160.5 422.5 c 4,7,-1
 194 471 194 471 225 536 c 4,10,-1
 252 593 252 593 252 646 c 4,13,-1
 252 671 252 671 235.5 686.5 c 4,16,-1
 219 702 219 702 190 702 c 4,19,-1
 164 702 164 702 145 693 c 4,22,-1
 126 684 126 684 116 675 c 4,25,-1
 106 666 106 666 102 666 c 4,28,-1
 97 666 97 666 97 675 c 4,31,-1
 97 678 97 678 101 686 c 4,34,-1
 105 694 105 694 115 705.5 c 4,37,-1
 125 717 125 717 138 727.5 c 4,40,-1
 151 738 151 738 172 745.5 c 4,43,-1
 193 753 193 753 216 753 c 4,46,-1
 255 753 255 753 285 731.5 c 4,49,-1
 315 710 315 710 315 671 c 4,52,-1
 315 625 315 625 277 556 c 4,55,-1
 239 487 239 487 201 436 c 4,58,-1
 163 385 163 385 163 383 c 4,61,-1
 163 378 163 378 189 378 c 6,64,-1
 203 378 l 6,65,-1
 235 378 235 378 250.5 378 c 4,68,-1
 266 378 266 378 277.5 379 c 4,71,-1
 289 380 289 380 290.5 380 c 4,74,-1
 292 380 292 380 297.5 382.5 c 4,77,-1
 303 385 303 385 304 386 c 4,80,-1
 314 390 314 390 328 403.5 c 4,83,-1
 342 417 342 417 346 417 c 4,86,-1
 353 417 353 417 353 411 c 6,89,-1
 310 332 l 6,90,-1
 301 319 301 319 289 319 c 4,93,-1
 246 319 246 319 219 320 c 4,96,-1
 192 321 192 321 182 321 c 4,99,-1
 175 321 175 321 148 320.5 c 4,102,-1
 121 320 121 320 112 320 c 4,105,-1
 92 320 92 320 92 327 c 6,0,-1
49 -170 m 0,108,-1
 49 -161 50 -148 77 -121 c 2,111,-1
 77 -121 886 712 891 717 c 0,114,-1
 902 729 908 735 926 735 c 0,117,-1
 935 735 939 728 939 723 c 0,120,-1
 939 707 928 697 919 687 c 2,123,-1
 108 -152 l 2,124,-1
 88 -173 82 -183 67 -183 c 0,127,-1
 55 -183 49 -178 49 -170 c 0,108,-1
640 -107 m 4,130,-1
 640 -97 640 -97 653 -97 c 4,133,-1
 656 -97 656 -97 663.5 -103.5 c 4,136,-1
 671 -110 671 -110 687.5 -117 c 4,139,-1
 704 -124 704 -124 727 -124 c 4,142,-1
 779 -124 779 -124 806.5 -85 c 4,145,-1
 834 -46 834 -46 834 -7 c 4,148,-1
 834 30 834 30 814 54 c 4,151,-1
 794 78 794 78 747 78 c 4,154,-1
 742 78 742 78 737.5 77.5 c 4,157,-1
 733 77 733 77 731 76.5 c 4,160,-1
 729 76 729 76 728 76 c 4,163,-1
 720 76 720 76 720 85 c 4,166,-1
 720 87 720 87 721 88 c 4,169,-1
 722 89 722 89 725.5 91.5 c 4,172,-1
 729 94 729 94 733.5 96.5 c 4,175,-1
 738 99 738 99 747 105.5 c 4,178,-1
 756 112 756 112 767 120 c 4,181,-1
 804 149 804 149 804 188 c 4,184,-1
 804 211 804 211 789 227 c 4,187,-1
 774 243 774 243 751 243 c 4,190,-1
 729 243 729 243 702.5 226 c 4,193,-1
 676 209 676 209 674 209 c 4,196,-1
 669 209 669 209 669 214 c 4,199,-1
 669 232 669 232 705.5 260 c 4,202,-1
 742 288 742 288 772 288 c 4,205,-1
 809 288 809 288 835.5 270 c 4,208,-1
 862 252 862 252 862 217 c 4,211,-1
 862 197 862 197 852.5 179.5 c 4,214,-1
 843 162 843 162 834 153.5 c 4,217,-1
 825 145 825 145 804 128 c 4,220,-1
 793 120 793 120 793 117 c 4,223,-1
 793 116 793 116 800.5 114.5 c 4,226,-1
 808 113 808 113 822.5 108.5 c 4,229,-1
 837 104 837 104 850 96 c 4,232,-1
 897 66 897 66 897 16 c 4,235,-1
 897 -56 897 -56 849.5 -104.5 c 4,238,-1
 802 -153 802 -153 738 -153 c 4,241,-1
 703 -153 703 -153 671.5 -138 c 4,244,-1
 640 -123 640 -123 640 -107 c 4,130,-1
EndSplineSet
EndChar
StartChar: uF2637
Encoding: 992823 992823 58
Width: 1000
Flags: MW
LayerCount: 2
Back
Fore
SplineSet
619 -6 m 4,0,-1
 619 5 619 5 643.5 37.5 c 4,3,-1
 668 70 668 70 798 232 c 4,6,-1
 804 239 804 239 813 251 c 4,9,-1
 822 263 822 263 827.5 270 c 4,12,-1
 833 277 833 277 839.5 282.5 c 4,15,-1
 846 288 846 288 851 288 c 4,18,-1
 862 288 862 288 862 276 c 4,21,-1
 862 275 862 275 860 225 c 4,24,-1
 858 175 858 175 856.5 120 c 4,27,-1
 855 65 855 65 855 53 c 4,30,-1
 855 44 855 44 856 41.5 c 4,33,-1
 857 39 857 39 863 39 c 4,36,-1
 888 39 888 39 900 47.5 c 4,39,-1
 912 56 912 56 915 56 c 4,42,-1
 922 56 922 56 922 47 c 4,45,-1
 922 44 922 44 915 16 c 4,48,-1
 910 -15 910 -15 900 -15 c 4,51,-1
 895 -15 895 -15 882 -14.5 c 4,54,-1
 869 -14 869 -14 865 -14 c 4,57,-1
 853 -14 853 -14 853 -25 c 4,60,-1
 853 -33 853 -33 854 -58.5 c 4,63,-1
 855 -84 855 -84 855 -105 c 6,66,-1
 855 -158 l 6,67,-1
 855 -180 855 -180 852 -182.5 c 4,70,-1
 849 -185 849 -185 828 -190 c 4,73,-1
 811 -193 811 -193 803 -193 c 4,76,-1
 795 -193 795 -193 791 -188 c 4,79,-1
 787 -183 787 -183 787 -178 c 4,82,-1
 787 -177 787 -177 788.5 -172.5 c 4,85,-1
 790 -168 790 -168 792 -157.5 c 4,88,-1
 794 -147 794 -147 795.5 -131 c 4,91,-1
 797 -115 797 -115 798.5 -85 c 4,94,-1
 800 -55 800 -55 800 -18 c 4,97,-1
 800 -14 800 -14 792 -14 c 4,100,-1
 790 -14 790 -14 787 -14 c 4,103,-1
 784 -14 784 -14 779 -14.5 c 4,106,-1
 774 -15 774 -15 755.5 -15 c 4,109,-1
 737 -15 737 -15 709 -15 c 4,112,-1
 695 -15 695 -15 670.5 -15.5 c 4,115,-1
 646 -16 646 -16 637 -16 c 4,118,-1
 619 -16 619 -16 619 -6 c 4,0,-1
684 42 m 4,121,-1
 684 36 684 36 702 36 c 6,124,-1
 783 36 l 6,125,-1
 800 36 800 36 800 43 c 6,128,-1
 800 49 l 5,129,-1
 801 75 l 6,130,-1
 802 101 802 101 802.5 133.5 c 4,133,-1
 803 166 803 166 803 181 c 4,136,-1
 803 197 803 197 800 197 c 4,139,-1
 796 197 796 197 740 124 c 4,142,-1
 684 51 684 51 684 42 c 4,121,-1
90 352 m 0,145,-1
 90 362 90 362 103 362 c 0,148,-1
 106 362 106 362 113.5 355.5 c 0,151,-1
 121 349 121 349 137.5 342 c 0,154,-1
 154 335 154 335 177 335 c 0,157,-1
 229 335 229 335 256.5 374 c 0,160,-1
 284 413 284 413 284 452 c 0,163,-1
 284 489 284 489 264 513 c 0,166,-1
 244 537 244 537 197 537 c 0,169,-1
 192 537 192 537 187.5 536.5 c 0,172,-1
 183 536 183 536 181 535.5 c 0,175,-1
 179 535 179 535 178 535 c 0,178,-1
 170 535 170 535 170 544 c 0,181,-1
 170 546 170 546 171 547 c 0,184,-1
 172 548 172 548 175.5 550.5 c 0,187,-1
 179 553 179 553 183.5 555.5 c 0,190,-1
 188 558 188 558 197 564.5 c 0,193,-1
 206 571 206 571 217 579 c 0,196,-1
 254 608 254 608 254 647 c 0,199,-1
 254 670 254 670 239 686 c 0,202,-1
 224 702 224 702 201 702 c 0,205,-1
 179 702 179 702 152.5 685 c 0,208,-1
 126 668 126 668 124 668 c 0,211,-1
 119 668 119 668 119 673 c 0,214,-1
 119 691 119 691 155.5 719 c 0,217,-1
 192 747 192 747 222 747 c 0,220,-1
 259 747 259 747 285.5 729 c 0,223,-1
 312 711 312 711 312 676 c 0,226,-1
 312 656 312 656 302.5 638.5 c 0,229,-1
 293 621 293 621 284 612.5 c 0,232,-1
 275 604 275 604 254 587 c 0,235,-1
 243 579 243 579 243 576 c 0,238,-1
 243 575 243 575 250.5 573.5 c 0,241,-1
 258 572 258 572 272.5 567.5 c 0,244,-1
 287 563 287 563 300 555 c 0,247,-1
 347 525 347 525 347 475 c 0,250,-1
 347 403 347 403 299.5 354.5 c 0,253,-1
 252 306 252 306 188 306 c 0,256,-1
 153 306 153 306 121.5 321 c 0,259,-1
 90 336 90 336 90 352 c 0,145,-1
49 -170 m 0,262,-1
 49 -161 50 -148 77 -121 c 2,265,-1
 77 -121 886 712 891 717 c 0,268,-1
 902 729 908 735 926 735 c 0,271,-1
 935 735 939 728 939 723 c 0,274,-1
 939 707 928 697 919 687 c 2,277,-1
 108 -152 l 2,278,-1
 88 -173 82 -183 67 -183 c 0,281,-1
 55 -183 49 -178 49 -170 c 0,262,-1
EndSplineSet
EndChar
StartChar: uF2638
Encoding: 992824 992824 59
Width: 1000
Flags: MW
LayerCount: 2
Back
Fore
SplineSet
647 -129 m 4,0,-1
 647 -118 647 -118 655 -118 c 4,3,-1
 657 -118 657 -118 675 -125 c 4,6,-1
 693 -132 693 -132 720 -132 c 4,9,-1
 768 -132 768 -132 798.5 -95 c 4,12,-1
 829 -58 829 -58 829 -7 c 4,15,-1
 829 31 829 31 807.5 56 c 4,18,-1
 786 81 786 81 744 81 c 4,21,-1
 722 81 722 81 708 78.5 c 4,24,-1
 694 76 694 76 693 76 c 4,27,-1
 680 76 680 76 680 91 c 4,30,-1
 680 98 680 98 683.5 121.5 c 4,33,-1
 687 145 687 145 693.5 186 c 4,36,-1
 700 227 700 227 705 264 c 4,39,-1
 707 280 707 280 726 280 c 4,42,-1
 819 281 819 281 834 282 c 4,45,-1
 849 283 849 283 858 289 c 4,48,-1
 862 292 862 292 865.5 296 c 4,51,-1
 869 300 869 300 871.5 302 c 4,54,-1
 874 304 874 304 877 304 c 4,57,-1
 885 304 885 304 885 297 c 4,60,-1
 885 292 885 292 883 286 c 4,63,-1
 880 278 880 278 875 266 c 4,66,-1
 863 236 863 236 859 230 c 4,69,-1
 855 224 855 224 847 224 c 4,72,-1
 846 224 846 224 832 224.5 c 4,75,-1
 818 225 818 225 808 225 c 4,78,-1
 738 225 738 225 732 216 c 4,81,-1
 728 207 728 207 722.5 178.5 c 4,84,-1
 717 150 717 150 717 140 c 4,87,-1
 717 131 717 131 721 131 c 6,90,-1
 723 132 l 6,91,-1
 725 132 725 132 728.5 133 c 4,94,-1
 732 134 732 134 737.5 135.5 c 4,97,-1
 743 137 743 137 752 137.5 c 4,100,-1
 761 138 761 138 772 138 c 4,103,-1
 827 138 827 138 860 100 c 4,106,-1
 890 64 890 64 890 20 c 4,109,-1
 890 -65 890 -65 842 -112.5 c 4,112,-1
 794 -160 794 -160 733 -160 c 4,115,-1
 704 -160 704 -160 675.5 -152 c 4,118,-1
 647 -144 647 -144 647 -129 c 4,0,-1
132 685 m 0,121,-1
 132 695 132 695 139.5 699.5 c 0,124,-1
 147 704 147 704 170 711.5 c 0,127,-1
 193 719 193 719 211 728 c 0,130,-1
 220 732 220 732 229.5 739 c 0,133,-1
 239 746 239 746 245 750 c 0,136,-1
 251 754 251 754 255 754 c 0,139,-1
 265 754 265 754 265 740 c 0,142,-1
 265 738 265 738 262 726 c 0,145,-1
 259 714 259 714 259 710 c 0,148,-1
 255 610 255 610 255 510 c 0,151,-1
 255 475 255 475 254 436 c 0,154,-1
 253 397 253 397 253 391 c 0,157,-1
 253 379 253 379 255.5 371 c 0,160,-1
 258 363 258 363 260 358.5 c 0,163,-1
 262 354 262 354 269.5 351.5 c 0,166,-1
 277 349 277 349 280.5 348 c 0,169,-1
 284 347 284 347 296 346 c 0,172,-1
 308 345 308 345 313 345 c 0,175,-1
 325 343 325 343 325 332 c 0,178,-1
 325 320 325 320 290 320 c 0,181,-1
 281 320 281 320 261 320.5 c 0,184,-1
 241 321 241 321 228 321 c 0,187,-1
 213 321 213 321 187.5 320 c 0,190,-1
 162 319 162 319 154 319 c 0,193,-1
 135 319 135 319 135 331 c 0,196,-1
 135 345 135 345 157 345 c 0,199,-1
 175 345 175 345 182.5 349 c 0,202,-1
 190 353 190 353 192 369 c 0,205,-1
 198 413 198 413 198 529 c 0,208,-1
 198 570 198 570 198 596 c 0,211,-1
 198 622 198 622 198.5 629.5 c 0,214,-1
 199 637 199 637 199 641.5 c 0,217,-1
 199 646 199 646 199 649 c 0,220,-1
 199 685 199 685 178 685 c 0,223,-1
 170 685 170 685 159 679 c 0,226,-1
 148 673 148 673 140 673 c 0,229,-1
 139 673 139 673 137.5 674 c 0,232,-1
 136 675 136 675 134 678 c 0,235,-1
 132 681 132 681 132 685 c 0,121,-1
49 -170 m 0,238,-1
 49 -161 50 -148 77 -121 c 2,241,-1
 77 -121 886 712 891 717 c 0,244,-1
 902 729 908 735 926 735 c 0,247,-1
 935 735 939 728 939 723 c 0,250,-1
 939 707 928 697 919 687 c 2,253,-1
 108 -152 l 2,254,-1
 88 -173 82 -183 67 -183 c 0,257,-1
 55 -183 49 -178 49 -170 c 0,238,-1
EndSplineSet
EndChar
StartChar: uF2639
Encoding: 992825 992825 60
Width: 1000
Flags: MW
LayerCount: 2
Back
Fore
SplineSet
92 327 m 6,0,-1
 92 329 l 6,1,-1
 92 335 92 335 109.5 354.5 c 4,4,-1
 127 374 127 374 160.5 422.5 c 4,7,-1
 194 471 194 471 225 536 c 4,10,-1
 252 593 252 593 252 646 c 4,13,-1
 252 671 252 671 235.5 686.5 c 4,16,-1
 219 702 219 702 190 702 c 4,19,-1
 164 702 164 702 145 693 c 4,22,-1
 126 684 126 684 116 675 c 4,25,-1
 106 666 106 666 102 666 c 4,28,-1
 97 666 97 666 97 675 c 4,31,-1
 97 678 97 678 101 686 c 4,34,-1
 105 694 105 694 115 705.5 c 4,37,-1
 125 717 125 717 138 727.5 c 4,40,-1
 151 738 151 738 172 745.5 c 4,43,-1
 193 753 193 753 216 753 c 4,46,-1
 255 753 255 753 285 731.5 c 4,49,-1
 315 710 315 710 315 671 c 4,52,-1
 315 625 315 625 277 556 c 4,55,-1
 239 487 239 487 201 436 c 4,58,-1
 163 385 163 385 163 383 c 4,61,-1
 163 378 163 378 189 378 c 6,64,-1
 203 378 l 6,65,-1
 235 378 235 378 250.5 378 c 4,68,-1
 266 378 266 378 277.5 379 c 4,71,-1
 289 380 289 380 290.5 380 c 4,74,-1
 292 380 292 380 297.5 382.5 c 4,77,-1
 303 385 303 385 304 386 c 4,80,-1
 314 390 314 390 328 403.5 c 4,83,-1
 342 417 342 417 346 417 c 4,86,-1
 353 417 353 417 353 411 c 6,89,-1
 310 332 l 6,90,-1
 301 319 301 319 289 319 c 4,93,-1
 246 319 246 319 219 320 c 4,96,-1
 192 321 192 321 182 321 c 4,99,-1
 175 321 175 321 148 320.5 c 4,102,-1
 121 320 121 320 112 320 c 4,105,-1
 92 320 92 320 92 327 c 6,0,-1
49 -170 m 0,108,-1
 49 -161 50 -148 77 -121 c 2,111,-1
 77 -121 886 712 891 717 c 0,114,-1
 902 729 908 735 926 735 c 0,117,-1
 935 735 939 728 939 723 c 0,120,-1
 939 707 928 697 919 687 c 2,123,-1
 108 -152 l 2,124,-1
 88 -173 82 -183 67 -183 c 0,127,-1
 55 -183 49 -178 49 -170 c 0,108,-1
647 -129 m 4,130,-1
 647 -118 647 -118 655 -118 c 4,133,-1
 657 -118 657 -118 675 -125 c 4,136,-1
 693 -132 693 -132 720 -132 c 4,139,-1
 768 -132 768 -132 798.5 -95 c 4,142,-1
 829 -58 829 -58 829 -7 c 4,145,-1
 829 31 829 31 807.5 56 c 4,148,-1
 786 81 786 81 744 81 c 4,151,-1
 722 81 722 81 708 78.5 c 4,154,-1
 694 76 694 76 693 76 c 4,157,-1
 680 76 680 76 680 91 c 4,160,-1
 680 98 680 98 683.5 121.5 c 4,163,-1
 687 145 687 145 693.5 186 c 4,166,-1
 700 227 700 227 705 264 c 4,169,-1
 707 280 707 280 726 280 c 4,172,-1
 819 281 819 281 834 282 c 4,175,-1
 849 283 849 283 858 289 c 4,178,-1
 862 292 862 292 865.5 296 c 4,181,-1
 869 300 869 300 871.5 302 c 4,184,-1
 874 304 874 304 877 304 c 4,187,-1
 885 304 885 304 885 297 c 4,190,-1
 885 292 885 292 883 286 c 4,193,-1
 880 278 880 278 875 266 c 4,196,-1
 863 236 863 236 859 230 c 4,199,-1
 855 224 855 224 847 224 c 4,202,-1
 846 224 846 224 832 224.5 c 4,205,-1
 818 225 818 225 808 225 c 4,208,-1
 738 225 738 225 732 216 c 4,211,-1
 728 207 728 207 722.5 178.5 c 4,214,-1
 717 150 717 150 717 140 c 4,217,-1
 717 131 717 131 721 131 c 6,220,-1
 723 132 l 6,221,-1
 725 132 725 132 728.5 133 c 4,224,-1
 732 134 732 134 737.5 135.5 c 4,227,-1
 743 137 743 137 752 137.5 c 4,230,-1
 761 138 761 138 772 138 c 4,233,-1
 827 138 827 138 860 100 c 4,236,-1
 890 64 890 64 890 20 c 4,239,-1
 890 -65 890 -65 842 -112.5 c 4,242,-1
 794 -160 794 -160 733 -160 c 4,245,-1
 704 -160 704 -160 675.5 -152 c 4,248,-1
 647 -144 647 -144 647 -129 c 4,130,-1
EndSplineSet
EndChar
StartChar: uF263A
Encoding: 992826 992826 61
Width: 1000
Flags: MW
LayerCount: 2
Back
Fore
SplineSet
90 352 m 0,0,-1
 90 362 90 362 103 362 c 0,3,-1
 106 362 106 362 113.5 355.5 c 0,6,-1
 121 349 121 349 137.5 342 c 0,9,-1
 154 335 154 335 177 335 c 0,12,-1
 229 335 229 335 256.5 374 c 0,15,-1
 284 413 284 413 284 452 c 0,18,-1
 284 489 284 489 264 513 c 0,21,-1
 244 537 244 537 197 537 c 0,24,-1
 192 537 192 537 187.5 536.5 c 0,27,-1
 183 536 183 536 181 535.5 c 0,30,-1
 179 535 179 535 178 535 c 0,33,-1
 170 535 170 535 170 544 c 0,36,-1
 170 546 170 546 171 547 c 0,39,-1
 172 548 172 548 175.5 550.5 c 0,42,-1
 179 553 179 553 183.5 555.5 c 0,45,-1
 188 558 188 558 197 564.5 c 0,48,-1
 206 571 206 571 217 579 c 0,51,-1
 254 608 254 608 254 647 c 0,54,-1
 254 670 254 670 239 686 c 0,57,-1
 224 702 224 702 201 702 c 0,60,-1
 179 702 179 702 152.5 685 c 0,63,-1
 126 668 126 668 124 668 c 0,66,-1
 119 668 119 668 119 673 c 0,69,-1
 119 691 119 691 155.5 719 c 0,72,-1
 192 747 192 747 222 747 c 0,75,-1
 259 747 259 747 285.5 729 c 0,78,-1
 312 711 312 711 312 676 c 0,81,-1
 312 656 312 656 302.5 638.5 c 0,84,-1
 293 621 293 621 284 612.5 c 0,87,-1
 275 604 275 604 254 587 c 0,90,-1
 243 579 243 579 243 576 c 0,93,-1
 243 575 243 575 250.5 573.5 c 0,96,-1
 258 572 258 572 272.5 567.5 c 0,99,-1
 287 563 287 563 300 555 c 0,102,-1
 347 525 347 525 347 475 c 0,105,-1
 347 403 347 403 299.5 354.5 c 0,108,-1
 252 306 252 306 188 306 c 0,111,-1
 153 306 153 306 121.5 321 c 0,114,-1
 90 336 90 336 90 352 c 0,0,-1
49 -170 m 0,117,-1
 49 -161 50 -148 77 -121 c 2,120,-1
 77 -121 886 712 891 717 c 0,123,-1
 902 729 908 735 926 735 c 0,126,-1
 935 735 939 728 939 723 c 0,129,-1
 939 707 928 697 919 687 c 2,132,-1
 108 -152 l 2,133,-1
 88 -173 82 -183 67 -183 c 0,136,-1
 55 -183 49 -178 49 -170 c 0,117,-1
647 -129 m 4,139,-1
 647 -118 647 -118 655 -118 c 4,142,-1
 657 -118 657 -118 675 -125 c 4,145,-1
 693 -132 693 -132 720 -132 c 4,148,-1
 768 -132 768 -132 798.5 -95 c 4,151,-1
 829 -58 829 -58 829 -7 c 4,154,-1
 829 31 829 31 807.5 56 c 4,157,-1
 786 81 786 81 744 81 c 4,160,-1
 722 81 722 81 708 78.5 c 4,163,-1
 694 76 694 76 693 76 c 4,166,-1
 680 76 680 76 680 91 c 4,169,-1
 680 98 680 98 683.5 121.5 c 4,172,-1
 687 145 687 145 693.5 186 c 4,175,-1
 700 227 700 227 705 264 c 4,178,-1
 707 280 707 280 726 280 c 4,181,-1
 819 281 819 281 834 282 c 4,184,-1
 849 283 849 283 858 289 c 4,187,-1
 862 292 862 292 865.5 296 c 4,190,-1
 869 300 869 300 871.5 302 c 4,193,-1
 874 304 874 304 877 304 c 4,196,-1
 885 304 885 304 885 297 c 4,199,-1
 885 292 885 292 883 286 c 4,202,-1
 880 278 880 278 875 266 c 4,205,-1
 863 236 863 236 859 230 c 4,208,-1
 855 224 855 224 847 224 c 4,211,-1
 846 224 846 224 832 224.5 c 4,214,-1
 818 225 818 225 808 225 c 4,217,-1
 738 225 738 225 732 216 c 4,220,-1
 728 207 728 207 722.5 178.5 c 4,223,-1
 717 150 717 150 717 140 c 4,226,-1
 717 131 717 131 721 131 c 6,229,-1
 723 132 l 6,230,-1
 725 132 725 132 728.5 133 c 4,233,-1
 732 134 732 134 737.5 135.5 c 4,236,-1
 743 137 743 137 752 137.5 c 4,239,-1
 761 138 761 138 772 138 c 4,242,-1
 827 138 827 138 860 100 c 4,245,-1
 890 64 890 64 890 20 c 4,248,-1
 890 -65 890 -65 842 -112.5 c 4,251,-1
 794 -160 794 -160 733 -160 c 4,254,-1
 704 -160 704 -160 675.5 -152 c 4,257,-1
 647 -144 647 -144 647 -129 c 4,139,-1
EndSplineSet
EndChar
StartChar: uF263B
Encoding: 992827 992827 62
Width: 1000
Flags: MW
LayerCount: 2
Back
Fore
SplineSet
69 453 m 0,0,-1
 69 464 69 464 93.5 496.5 c 0,3,-1
 118 529 118 529 248 691 c 0,6,-1
 254 698 254 698 263 710 c 0,9,-1
 272 722 272 722 277.5 729 c 0,12,-1
 283 736 283 736 289.5 741.5 c 0,15,-1
 296 747 296 747 301 747 c 0,18,-1
 312 747 312 747 312 735 c 0,21,-1
 312 734 312 734 310 684 c 0,24,-1
 308 634 308 634 306.5 579 c 0,27,-1
 305 524 305 524 305 512 c 0,30,-1
 305 503 305 503 306 500.5 c 0,33,-1
 307 498 307 498 313 498 c 0,36,-1
 338 498 338 498 350 506.5 c 0,39,-1
 362 515 362 515 365 515 c 0,42,-1
 372 515 372 515 372 506 c 0,45,-1
 372 503 372 503 365 475 c 0,48,-1
 360 444 360 444 350 444 c 0,51,-1
 345 444 345 444 332 444.5 c 0,54,-1
 319 445 319 445 315 445 c 0,57,-1
 303 445 303 445 303 434 c 0,60,-1
 303 426 303 426 304 400.5 c 0,63,-1
 305 375 305 375 305 354 c 2,66,-1
 305 301 l 2,67,-1
 305 279 305 279 302 276.5 c 0,70,-1
 299 274 299 274 278 269 c 0,73,-1
 261 266 261 266 253 266 c 0,76,-1
 245 266 245 266 241 271 c 0,79,-1
 237 276 237 276 237 281 c 0,82,-1
 237 282 237 282 238.5 286.5 c 0,85,-1
 240 291 240 291 242 301.5 c 0,88,-1
 244 312 244 312 245.5 328 c 0,91,-1
 247 344 247 344 248.5 374 c 0,94,-1
 250 404 250 404 250 441 c 0,97,-1
 250 445 250 445 242 445 c 0,100,-1
 240 445 240 445 237 445 c 0,103,-1
 234 445 234 445 229 444.5 c 0,106,-1
 224 444 224 444 205.5 444 c 0,109,-1
 187 444 187 444 159 444 c 0,112,-1
 145 444 145 444 120.5 443.5 c 0,115,-1
 96 443 96 443 87 443 c 0,118,-1
 69 443 69 443 69 453 c 0,0,-1
134 501 m 0,121,-1
 134 495 134 495 152 495 c 2,124,-1
 233 495 l 2,125,-1
 250 495 250 495 250 502 c 2,128,-1
 250 508 l 1,129,-1
 251 534 l 2,130,-1
 252 560 252 560 252.5 592.5 c 0,133,-1
 253 625 253 625 253 640 c 0,136,-1
 253 656 253 656 250 656 c 0,139,-1
 246 656 246 656 190 583 c 0,142,-1
 134 510 134 510 134 501 c 0,121,-1
49 -170 m 0,145,-1
 49 -161 50 -148 77 -121 c 2,148,-1
 77 -121 886 712 891 717 c 0,151,-1
 902 729 908 735 926 735 c 0,154,-1
 935 735 939 728 939 723 c 0,157,-1
 939 707 928 697 919 687 c 2,160,-1
 108 -152 l 2,161,-1
 88 -173 82 -183 67 -183 c 0,164,-1
 55 -183 49 -178 49 -170 c 0,145,-1
647 -129 m 4,167,-1
 647 -118 647 -118 655 -118 c 4,170,-1
 657 -118 657 -118 675 -125 c 4,173,-1
 693 -132 693 -132 720 -132 c 4,176,-1
 768 -132 768 -132 798.5 -95 c 4,179,-1
 829 -58 829 -58 829 -7 c 4,182,-1
 829 31 829 31 807.5 56 c 4,185,-1
 786 81 786 81 744 81 c 4,188,-1
 722 81 722 81 708 78.5 c 4,191,-1
 694 76 694 76 693 76 c 4,194,-1
 680 76 680 76 680 91 c 4,197,-1
 680 98 680 98 683.5 121.5 c 4,200,-1
 687 145 687 145 693.5 186 c 4,203,-1
 700 227 700 227 705 264 c 4,206,-1
 707 280 707 280 726 280 c 4,209,-1
 819 281 819 281 834 282 c 4,212,-1
 849 283 849 283 858 289 c 4,215,-1
 862 292 862 292 865.5 296 c 4,218,-1
 869 300 869 300 871.5 302 c 4,221,-1
 874 304 874 304 877 304 c 4,224,-1
 885 304 885 304 885 297 c 4,227,-1
 885 292 885 292 883 286 c 4,230,-1
 880 278 880 278 875 266 c 4,233,-1
 863 236 863 236 859 230 c 4,236,-1
 855 224 855 224 847 224 c 4,239,-1
 846 224 846 224 832 224.5 c 4,242,-1
 818 225 818 225 808 225 c 4,245,-1
 738 225 738 225 732 216 c 4,248,-1
 728 207 728 207 722.5 178.5 c 4,251,-1
 717 150 717 150 717 140 c 4,254,-1
 717 131 717 131 721 131 c 6,257,-1
 723 132 l 6,258,-1
 725 132 725 132 728.5 133 c 4,261,-1
 732 134 732 134 737.5 135.5 c 4,264,-1
 743 137 743 137 752 137.5 c 4,267,-1
 761 138 761 138 772 138 c 4,270,-1
 827 138 827 138 860 100 c 4,273,-1
 890 64 890 64 890 20 c 4,276,-1
 890 -65 890 -65 842 -112.5 c 4,279,-1
 794 -160 794 -160 733 -160 c 4,282,-1
 704 -160 704 -160 675.5 -152 c 4,285,-1
 647 -144 647 -144 647 -129 c 4,167,-1
EndSplineSet
EndChar
StartChar: uF263C
Encoding: 992828 992828 63
Width: 1000
Flags: MW
LayerCount: 2
Back
Fore
SplineSet
627 10 m 0,0,-1
 627 69 627 69 649.5 119.5 c 0,3,-1
 672 170 672 170 704.5 201.5 c 0,6,-1
 737 233 737 233 774 255.5 c 0,9,-1
 811 278 811 278 839 287.5 c 0,12,-1
 867 297 867 297 882 297 c 0,15,-1
 893 297 893 297 893 287 c 0,18,-1
 893 281 893 281 882 278.5 c 0,21,-1
 871 276 871 276 844 264.5 c 0,24,-1
 817 253 817 253 788 229 c 0,27,-1
 747 194 747 194 724 152 c 0,30,-1
 701 110 701 110 701 90 c 0,33,-1
 701 84 701 84 703 84 c 0,36,-1
 704 84 704 84 714 96 c 0,39,-1
 724 108 724 108 745 120 c 0,42,-1
 766 132 766 132 795 132 c 0,45,-1
 843 132 843 132 876.5 95 c 0,48,-1
 910 58 910 58 910 -1 c 0,51,-1
 910 -65 910 -65 870 -109.5 c 0,54,-1
 830 -154 830 -154 772 -154 c 0,57,-1
 729 -154 729 -154 699 -132 c 0,60,-1
 627 -78 627 -78 627 10 c 0,0,-1
689 4 m 0,63,-1
 689 -18 689 -18 696 -44.5 c 0,66,-1
 703 -71 703 -71 727 -97 c 0,69,-1
 751 -123 751 -123 787 -123 c 0,72,-1
 821 -123 821 -123 839 -95.5 c 0,75,-1
 857 -68 857 -68 857 -27 c 0,78,-1
 857 22 857 22 832 60.5 c 0,81,-1
 807 99 807 99 765 99 c 0,84,-1
 744 99 744 99 720.5 83.5 c 0,87,-1
 697 68 697 68 693 47 c 0,90,-1
 689 21 689 21 689 4 c 0,63,-1
132 685 m 0,93,-1
 132 695 132 695 139.5 699.5 c 0,96,-1
 147 704 147 704 170 711.5 c 0,99,-1
 193 719 193 719 211 728 c 0,102,-1
 220 732 220 732 229.5 739 c 0,105,-1
 239 746 239 746 245 750 c 0,108,-1
 251 754 251 754 255 754 c 0,111,-1
 265 754 265 754 265 740 c 0,114,-1
 265 738 265 738 262 726 c 0,117,-1
 259 714 259 714 259 710 c 0,120,-1
 255 610 255 610 255 510 c 0,123,-1
 255 475 255 475 254 436 c 0,126,-1
 253 397 253 397 253 391 c 0,129,-1
 253 379 253 379 255.5 371 c 0,132,-1
 258 363 258 363 260 358.5 c 0,135,-1
 262 354 262 354 269.5 351.5 c 0,138,-1
 277 349 277 349 280.5 348 c 0,141,-1
 284 347 284 347 296 346 c 0,144,-1
 308 345 308 345 313 345 c 0,147,-1
 325 343 325 343 325 332 c 0,150,-1
 325 320 325 320 290 320 c 0,153,-1
 281 320 281 320 261 320.5 c 0,156,-1
 241 321 241 321 228 321 c 0,159,-1
 213 321 213 321 187.5 320 c 0,162,-1
 162 319 162 319 154 319 c 0,165,-1
 135 319 135 319 135 331 c 0,168,-1
 135 345 135 345 157 345 c 0,171,-1
 175 345 175 345 182.5 349 c 0,174,-1
 190 353 190 353 192 369 c 0,177,-1
 198 413 198 413 198 529 c 0,180,-1
 198 570 198 570 198 596 c 0,183,-1
 198 622 198 622 198.5 629.5 c 0,186,-1
 199 637 199 637 199 641.5 c 0,189,-1
 199 646 199 646 199 649 c 0,192,-1
 199 685 199 685 178 685 c 0,195,-1
 170 685 170 685 159 679 c 0,198,-1
 148 673 148 673 140 673 c 0,201,-1
 139 673 139 673 137.5 674 c 0,204,-1
 136 675 136 675 134 678 c 0,207,-1
 132 681 132 681 132 685 c 0,93,-1
49 -170 m 0,210,-1
 49 -161 50 -148 77 -121 c 2,213,-1
 77 -121 886 712 891 717 c 0,216,-1
 902 729 908 735 926 735 c 0,219,-1
 935 735 939 728 939 723 c 0,222,-1
 939 707 928 697 919 687 c 2,225,-1
 108 -152 l 2,226,-1
 88 -173 82 -183 67 -183 c 0,229,-1
 55 -183 49 -178 49 -170 c 0,210,-1
EndSplineSet
EndChar
StartChar: uF263D
Encoding: 992829 992829 64
Width: 1000
Flags: MW
LayerCount: 2
Back
Fore
SplineSet
97 330 m 0,0,-1
 97 341 97 341 105 341 c 0,3,-1
 107 341 107 341 125 334 c 0,6,-1
 143 327 143 327 170 327 c 0,9,-1
 218 327 218 327 248.5 364 c 0,12,-1
 279 401 279 401 279 452 c 0,15,-1
 279 490 279 490 257.5 515 c 0,18,-1
 236 540 236 540 194 540 c 0,21,-1
 172 540 172 540 158 537.5 c 0,24,-1
 144 535 144 535 143 535 c 0,27,-1
 130 535 130 535 130 550 c 0,30,-1
 130 557 130 557 133.5 580.5 c 0,33,-1
 137 604 137 604 143.5 645 c 0,36,-1
 150 686 150 686 155 723 c 0,39,-1
 157 739 157 739 176 739 c 0,42,-1
 269 740 269 740 284 741 c 0,45,-1
 299 742 299 742 308 748 c 0,48,-1
 312 751 312 751 315.5 755 c 0,51,-1
 319 759 319 759 321.5 761 c 0,54,-1
 324 763 324 763 327 763 c 0,57,-1
 335 763 335 763 335 756 c 0,60,-1
 335 751 335 751 333 745 c 0,63,-1
 330 737 330 737 325 725 c 0,66,-1
 313 695 313 695 309 689 c 0,69,-1
 305 683 305 683 297 683 c 0,72,-1
 296 683 296 683 282 683.5 c 0,75,-1
 268 684 268 684 258 684 c 0,78,-1
 188 684 188 684 182 675 c 0,81,-1
 178 666 178 666 172.5 637.5 c 0,84,-1
 167 609 167 609 167 599 c 0,87,-1
 167 590 167 590 171 590 c 2,90,-1
 173 591 l 2,91,-1
 175 591 175 591 178.5 592 c 0,94,-1
 182 593 182 593 187.5 594.5 c 0,97,-1
 193 596 193 596 202 596.5 c 0,100,-1
 211 597 211 597 222 597 c 0,103,-1
 277 597 277 597 310 559 c 0,106,-1
 340 523 340 523 340 479 c 0,109,-1
 340 394 340 394 292 346.5 c 0,112,-1
 244 299 244 299 183 299 c 0,115,-1
 154 299 154 299 125.5 307 c 0,118,-1
 97 315 97 315 97 330 c 0,0,-1
49 -170 m 0,121,-1
 49 -161 50 -148 77 -121 c 2,124,-1
 77 -121 886 712 891 717 c 0,127,-1
 902 729 908 735 926 735 c 0,130,-1
 935 735 939 728 939 723 c 0,133,-1
 939 707 928 697 919 687 c 2,136,-1
 108 -152 l 2,137,-1
 88 -173 82 -183 67 -183 c 0,140,-1
 55 -183 49 -178 49 -170 c 0,121,-1
627 10 m 4,143,-1
 627 69 627 69 649.5 119.5 c 4,146,-1
 672 170 672 170 704.5 201.5 c 4,149,-1
 737 233 737 233 774 255.5 c 4,152,-1
 811 278 811 278 839 287.5 c 4,155,-1
 867 297 867 297 882 297 c 4,158,-1
 893 297 893 297 893 287 c 4,161,-1
 893 281 893 281 882 278.5 c 4,164,-1
 871 276 871 276 844 264.5 c 4,167,-1
 817 253 817 253 788 229 c 4,170,-1
 747 194 747 194 724 152 c 4,173,-1
 701 110 701 110 701 90 c 4,176,-1
 701 84 701 84 703 84 c 4,179,-1
 704 84 704 84 714 96 c 4,182,-1
 724 108 724 108 745 120 c 4,185,-1
 766 132 766 132 795 132 c 4,188,-1
 843 132 843 132 876.5 95 c 4,191,-1
 910 58 910 58 910 -1 c 4,194,-1
 910 -65 910 -65 870 -109.5 c 4,197,-1
 830 -154 830 -154 772 -154 c 4,200,-1
 729 -154 729 -154 699 -132 c 4,203,-1
 627 -78 627 -78 627 10 c 4,143,-1
689 4 m 4,206,-1
 689 -18 689 -18 696 -44.5 c 4,209,-1
 703 -71 703 -71 727 -97 c 4,212,-1
 751 -123 751 -123 787 -123 c 4,215,-1
 821 -123 821 -123 839 -95.5 c 4,218,-1
 857 -68 857 -68 857 -27 c 4,221,-1
 857 22 857 22 832 60.5 c 4,224,-1
 807 99 807 99 765 99 c 4,227,-1
 744 99 744 99 720.5 83.5 c 4,230,-1
 697 68 697 68 693 47 c 4,233,-1
 689 21 689 21 689 4 c 4,206,-1
EndSplineSet
EndChar
StartChar: uF263E
Encoding: 992830 992830 65
Width: 1000
Flags: MW
LayerCount: 2
Back
Fore
SplineSet
656 191 m 4,0,-1
 656 205 656 205 662 232.5 c 4,3,-1
 668 260 668 260 669 269 c 4,6,-1
 670 277 670 277 679 277 c 4,9,-1
 682 277 682 277 706.5 275.5 c 4,12,-1
 731 274 731 274 777 274 c 6,15,-1
 796 274 l 6,16,-1
 828 274 828 274 847 275 c 6,19,-1
 866 276 l 6,20,-1
 881 276 881 276 881 263 c 4,23,-1
 881 220 881 220 833.5 83.5 c 4,26,-1
 786 -53 786 -53 786 -104 c 4,29,-1
 786 -133 786 -133 791 -153.5 c 4,32,-1
 796 -174 796 -174 796 -175 c 4,35,-1
 796 -185 796 -185 779.5 -189 c 4,38,-1
 763 -193 763 -193 752 -193 c 4,41,-1
 735 -193 735 -193 726.5 -182.5 c 4,44,-1
 718 -172 718 -172 718 -140 c 4,47,-1
 718 -92 718 -92 748.5 -18.5 c 4,50,-1
 779 55 779 55 810 120 c 4,53,-1
 841 185 841 185 841 212 c 4,56,-1
 841 214 841 214 837.5 217 c 4,59,-1
 834 220 834 220 829 220 c 6,62,-1
 820 220 l 5,63,-1
 794 220 l 6,64,-1
 768 219 768 219 753 219 c 6,67,-1
 737 219 l 6,68,-1
 708 219 708 219 696 210 c 4,71,-1
 684 201 684 201 680 184 c 4,74,-1
 672 164 672 164 665 164 c 4,77,-1
 656 164 656 164 656 191 c 4,0,-1
132 685 m 0,80,-1
 132 695 132 695 139.5 699.5 c 0,83,-1
 147 704 147 704 170 711.5 c 0,86,-1
 193 719 193 719 211 728 c 0,89,-1
 220 732 220 732 229.5 739 c 0,92,-1
 239 746 239 746 245 750 c 0,95,-1
 251 754 251 754 255 754 c 0,98,-1
 265 754 265 754 265 740 c 0,101,-1
 265 738 265 738 262 726 c 0,104,-1
 259 714 259 714 259 710 c 0,107,-1
 255 610 255 610 255 510 c 0,110,-1
 255 475 255 475 254 436 c 0,113,-1
 253 397 253 397 253 391 c 0,116,-1
 253 379 253 379 255.5 371 c 0,119,-1
 258 363 258 363 260 358.5 c 0,122,-1
 262 354 262 354 269.5 351.5 c 0,125,-1
 277 349 277 349 280.5 348 c 0,128,-1
 284 347 284 347 296 346 c 0,131,-1
 308 345 308 345 313 345 c 0,134,-1
 325 343 325 343 325 332 c 0,137,-1
 325 320 325 320 290 320 c 0,140,-1
 281 320 281 320 261 320.5 c 0,143,-1
 241 321 241 321 228 321 c 0,146,-1
 213 321 213 321 187.5 320 c 0,149,-1
 162 319 162 319 154 319 c 0,152,-1
 135 319 135 319 135 331 c 0,155,-1
 135 345 135 345 157 345 c 0,158,-1
 175 345 175 345 182.5 349 c 0,161,-1
 190 353 190 353 192 369 c 0,164,-1
 198 413 198 413 198 529 c 0,167,-1
 198 570 198 570 198 596 c 0,170,-1
 198 622 198 622 198.5 629.5 c 0,173,-1
 199 637 199 637 199 641.5 c 0,176,-1
 199 646 199 646 199 649 c 0,179,-1
 199 685 199 685 178 685 c 0,182,-1
 170 685 170 685 159 679 c 0,185,-1
 148 673 148 673 140 673 c 0,188,-1
 139 673 139 673 137.5 674 c 0,191,-1
 136 675 136 675 134 678 c 0,194,-1
 132 681 132 681 132 685 c 0,80,-1
49 -170 m 0,197,-1
 49 -161 50 -148 77 -121 c 2,200,-1
 77 -121 886 712 891 717 c 0,203,-1
 902 729 908 735 926 735 c 0,206,-1
 935 735 939 728 939 723 c 0,209,-1
 939 707 928 697 919 687 c 2,212,-1
 108 -152 l 2,213,-1
 88 -173 82 -183 67 -183 c 0,216,-1
 55 -183 49 -178 49 -170 c 0,197,-1
EndSplineSet
EndChar
StartChar: uF263F
Encoding: 992831 992831 66
Width: 1000
Flags: MW
LayerCount: 2
Back
Fore
SplineSet
92 327 m 6,0,-1
 92 329 l 6,1,-1
 92 335 92 335 109.5 354.5 c 4,4,-1
 127 374 127 374 160.5 422.5 c 4,7,-1
 194 471 194 471 225 536 c 4,10,-1
 252 593 252 593 252 646 c 4,13,-1
 252 671 252 671 235.5 686.5 c 4,16,-1
 219 702 219 702 190 702 c 4,19,-1
 164 702 164 702 145 693 c 4,22,-1
 126 684 126 684 116 675 c 4,25,-1
 106 666 106 666 102 666 c 4,28,-1
 97 666 97 666 97 675 c 4,31,-1
 97 678 97 678 101 686 c 4,34,-1
 105 694 105 694 115 705.5 c 4,37,-1
 125 717 125 717 138 727.5 c 4,40,-1
 151 738 151 738 172 745.5 c 4,43,-1
 193 753 193 753 216 753 c 4,46,-1
 255 753 255 753 285 731.5 c 4,49,-1
 315 710 315 710 315 671 c 4,52,-1
 315 625 315 625 277 556 c 4,55,-1
 239 487 239 487 201 436 c 4,58,-1
 163 385 163 385 163 383 c 4,61,-1
 163 378 163 378 189 378 c 6,64,-1
 203 378 l 6,65,-1
 235 378 235 378 250.5 378 c 4,68,-1
 266 378 266 378 277.5 379 c 4,71,-1
 289 380 289 380 290.5 380 c 4,74,-1
 292 380 292 380 297.5 382.5 c 4,77,-1
 303 385 303 385 304 386 c 4,80,-1
 314 390 314 390 328 403.5 c 4,83,-1
 342 417 342 417 346 417 c 4,86,-1
 353 417 353 417 353 411 c 6,89,-1
 310 332 l 6,90,-1
 301 319 301 319 289 319 c 4,93,-1
 246 319 246 319 219 320 c 4,96,-1
 192 321 192 321 182 321 c 4,99,-1
 175 321 175 321 148 320.5 c 4,102,-1
 121 320 121 320 112 320 c 4,105,-1
 92 320 92 320 92 327 c 6,0,-1
49 -170 m 0,108,-1
 49 -161 50 -148 77 -121 c 2,111,-1
 77 -121 886 712 891 717 c 0,114,-1
 902 729 908 735 926 735 c 0,117,-1
 935 735 939 728 939 723 c 0,120,-1
 939 707 928 697 919 687 c 2,123,-1
 108 -152 l 2,124,-1
 88 -173 82 -183 67 -183 c 0,127,-1
 55 -183 49 -178 49 -170 c 0,108,-1
656 191 m 4,130,-1
 656 205 656 205 662 232.5 c 4,133,-1
 668 260 668 260 669 269 c 4,136,-1
 670 277 670 277 679 277 c 4,139,-1
 682 277 682 277 706.5 275.5 c 4,142,-1
 731 274 731 274 777 274 c 6,145,-1
 796 274 l 6,146,-1
 828 274 828 274 847 275 c 6,149,-1
 866 276 l 6,150,-1
 881 276 881 276 881 263 c 4,153,-1
 881 220 881 220 833.5 83.5 c 4,156,-1
 786 -53 786 -53 786 -104 c 4,159,-1
 786 -133 786 -133 791 -153.5 c 4,162,-1
 796 -174 796 -174 796 -175 c 4,165,-1
 796 -185 796 -185 779.5 -189 c 4,168,-1
 763 -193 763 -193 752 -193 c 4,171,-1
 735 -193 735 -193 726.5 -182.5 c 4,174,-1
 718 -172 718 -172 718 -140 c 4,177,-1
 718 -92 718 -92 748.5 -18.5 c 4,180,-1
 779 55 779 55 810 120 c 4,183,-1
 841 185 841 185 841 212 c 4,186,-1
 841 214 841 214 837.5 217 c 4,189,-1
 834 220 834 220 829 220 c 6,192,-1
 820 220 l 5,193,-1
 794 220 l 6,194,-1
 768 219 768 219 753 219 c 6,197,-1
 737 219 l 6,198,-1
 708 219 708 219 696 210 c 4,201,-1
 684 201 684 201 680 184 c 4,204,-1
 672 164 672 164 665 164 c 4,207,-1
 656 164 656 164 656 191 c 4,130,-1
EndSplineSet
EndChar
StartChar: uF2640
Encoding: 992832 992832 67
Width: 1000
Flags: MW
LayerCount: 2
Back
Fore
SplineSet
90 352 m 0,0,-1
 90 362 90 362 103 362 c 0,3,-1
 106 362 106 362 113.5 355.5 c 0,6,-1
 121 349 121 349 137.5 342 c 0,9,-1
 154 335 154 335 177 335 c 0,12,-1
 229 335 229 335 256.5 374 c 0,15,-1
 284 413 284 413 284 452 c 0,18,-1
 284 489 284 489 264 513 c 0,21,-1
 244 537 244 537 197 537 c 0,24,-1
 192 537 192 537 187.5 536.5 c 0,27,-1
 183 536 183 536 181 535.5 c 0,30,-1
 179 535 179 535 178 535 c 0,33,-1
 170 535 170 535 170 544 c 0,36,-1
 170 546 170 546 171 547 c 0,39,-1
 172 548 172 548 175.5 550.5 c 0,42,-1
 179 553 179 553 183.5 555.5 c 0,45,-1
 188 558 188 558 197 564.5 c 0,48,-1
 206 571 206 571 217 579 c 0,51,-1
 254 608 254 608 254 647 c 0,54,-1
 254 670 254 670 239 686 c 0,57,-1
 224 702 224 702 201 702 c 0,60,-1
 179 702 179 702 152.5 685 c 0,63,-1
 126 668 126 668 124 668 c 0,66,-1
 119 668 119 668 119 673 c 0,69,-1
 119 691 119 691 155.5 719 c 0,72,-1
 192 747 192 747 222 747 c 0,75,-1
 259 747 259 747 285.5 729 c 0,78,-1
 312 711 312 711 312 676 c 0,81,-1
 312 656 312 656 302.5 638.5 c 0,84,-1
 293 621 293 621 284 612.5 c 0,87,-1
 275 604 275 604 254 587 c 0,90,-1
 243 579 243 579 243 576 c 0,93,-1
 243 575 243 575 250.5 573.5 c 0,96,-1
 258 572 258 572 272.5 567.5 c 0,99,-1
 287 563 287 563 300 555 c 0,102,-1
 347 525 347 525 347 475 c 0,105,-1
 347 403 347 403 299.5 354.5 c 0,108,-1
 252 306 252 306 188 306 c 0,111,-1
 153 306 153 306 121.5 321 c 0,114,-1
 90 336 90 336 90 352 c 0,0,-1
49 -170 m 0,117,-1
 49 -161 50 -148 77 -121 c 2,120,-1
 77 -121 886 712 891 717 c 0,123,-1
 902 729 908 735 926 735 c 0,126,-1
 935 735 939 728 939 723 c 0,129,-1
 939 707 928 697 919 687 c 2,132,-1
 108 -152 l 2,133,-1
 88 -173 82 -183 67 -183 c 0,136,-1
 55 -183 49 -178 49 -170 c 0,117,-1
656 191 m 4,139,-1
 656 205 656 205 662 232.5 c 4,142,-1
 668 260 668 260 669 269 c 4,145,-1
 670 277 670 277 679 277 c 4,148,-1
 682 277 682 277 706.5 275.5 c 4,151,-1
 731 274 731 274 777 274 c 6,154,-1
 796 274 l 6,155,-1
 828 274 828 274 847 275 c 6,158,-1
 866 276 l 6,159,-1
 881 276 881 276 881 263 c 4,162,-1
 881 220 881 220 833.5 83.5 c 4,165,-1
 786 -53 786 -53 786 -104 c 4,168,-1
 786 -133 786 -133 791 -153.5 c 4,171,-1
 796 -174 796 -174 796 -175 c 4,174,-1
 796 -185 796 -185 779.5 -189 c 4,177,-1
 763 -193 763 -193 752 -193 c 4,180,-1
 735 -193 735 -193 726.5 -182.5 c 4,183,-1
 718 -172 718 -172 718 -140 c 4,186,-1
 718 -92 718 -92 748.5 -18.5 c 4,189,-1
 779 55 779 55 810 120 c 4,192,-1
 841 185 841 185 841 212 c 4,195,-1
 841 214 841 214 837.5 217 c 4,198,-1
 834 220 834 220 829 220 c 6,201,-1
 820 220 l 5,202,-1
 794 220 l 6,203,-1
 768 219 768 219 753 219 c 6,206,-1
 737 219 l 6,207,-1
 708 219 708 219 696 210 c 4,210,-1
 684 201 684 201 680 184 c 4,213,-1
 672 164 672 164 665 164 c 4,216,-1
 656 164 656 164 656 191 c 4,139,-1
EndSplineSet
EndChar
StartChar: uF2641
Encoding: 992833 992833 68
Width: 1000
Flags: MW
LayerCount: 2
Back
Fore
SplineSet
69 453 m 0,0,-1
 69 464 69 464 93.5 496.5 c 0,3,-1
 118 529 118 529 248 691 c 0,6,-1
 254 698 254 698 263 710 c 0,9,-1
 272 722 272 722 277.5 729 c 0,12,-1
 283 736 283 736 289.5 741.5 c 0,15,-1
 296 747 296 747 301 747 c 0,18,-1
 312 747 312 747 312 735 c 0,21,-1
 312 734 312 734 310 684 c 0,24,-1
 308 634 308 634 306.5 579 c 0,27,-1
 305 524 305 524 305 512 c 0,30,-1
 305 503 305 503 306 500.5 c 0,33,-1
 307 498 307 498 313 498 c 0,36,-1
 338 498 338 498 350 506.5 c 0,39,-1
 362 515 362 515 365 515 c 0,42,-1
 372 515 372 515 372 506 c 0,45,-1
 372 503 372 503 365 475 c 0,48,-1
 360 444 360 444 350 444 c 0,51,-1
 345 444 345 444 332 444.5 c 0,54,-1
 319 445 319 445 315 445 c 0,57,-1
 303 445 303 445 303 434 c 0,60,-1
 303 426 303 426 304 400.5 c 0,63,-1
 305 375 305 375 305 354 c 2,66,-1
 305 301 l 2,67,-1
 305 279 305 279 302 276.5 c 0,70,-1
 299 274 299 274 278 269 c 0,73,-1
 261 266 261 266 253 266 c 0,76,-1
 245 266 245 266 241 271 c 0,79,-1
 237 276 237 276 237 281 c 0,82,-1
 237 282 237 282 238.5 286.5 c 0,85,-1
 240 291 240 291 242 301.5 c 0,88,-1
 244 312 244 312 245.5 328 c 0,91,-1
 247 344 247 344 248.5 374 c 0,94,-1
 250 404 250 404 250 441 c 0,97,-1
 250 445 250 445 242 445 c 0,100,-1
 240 445 240 445 237 445 c 0,103,-1
 234 445 234 445 229 444.5 c 0,106,-1
 224 444 224 444 205.5 444 c 0,109,-1
 187 444 187 444 159 444 c 0,112,-1
 145 444 145 444 120.5 443.5 c 0,115,-1
 96 443 96 443 87 443 c 0,118,-1
 69 443 69 443 69 453 c 0,0,-1
134 501 m 0,121,-1
 134 495 134 495 152 495 c 2,124,-1
 233 495 l 2,125,-1
 250 495 250 495 250 502 c 2,128,-1
 250 508 l 1,129,-1
 251 534 l 2,130,-1
 252 560 252 560 252.5 592.5 c 0,133,-1
 253 625 253 625 253 640 c 0,136,-1
 253 656 253 656 250 656 c 0,139,-1
 246 656 246 656 190 583 c 0,142,-1
 134 510 134 510 134 501 c 0,121,-1
49 -170 m 0,145,-1
 49 -161 50 -148 77 -121 c 2,148,-1
 77 -121 886 712 891 717 c 0,151,-1
 902 729 908 735 926 735 c 0,154,-1
 935 735 939 728 939 723 c 0,157,-1
 939 707 928 697 919 687 c 2,160,-1
 108 -152 l 2,161,-1
 88 -173 82 -183 67 -183 c 0,164,-1
 55 -183 49 -178 49 -170 c 0,145,-1
656 191 m 4,167,-1
 656 205 656 205 662 232.5 c 4,170,-1
 668 260 668 260 669 269 c 4,173,-1
 670 277 670 277 679 277 c 4,176,-1
 682 277 682 277 706.5 275.5 c 4,179,-1
 731 274 731 274 777 274 c 6,182,-1
 796 274 l 6,183,-1
 828 274 828 274 847 275 c 6,186,-1
 866 276 l 6,187,-1
 881 276 881 276 881 263 c 4,190,-1
 881 220 881 220 833.5 83.5 c 4,193,-1
 786 -53 786 -53 786 -104 c 4,196,-1
 786 -133 786 -133 791 -153.5 c 4,199,-1
 796 -174 796 -174 796 -175 c 4,202,-1
 796 -185 796 -185 779.5 -189 c 4,205,-1
 763 -193 763 -193 752 -193 c 4,208,-1
 735 -193 735 -193 726.5 -182.5 c 4,211,-1
 718 -172 718 -172 718 -140 c 4,214,-1
 718 -92 718 -92 748.5 -18.5 c 4,217,-1
 779 55 779 55 810 120 c 4,220,-1
 841 185 841 185 841 212 c 4,223,-1
 841 214 841 214 837.5 217 c 4,226,-1
 834 220 834 220 829 220 c 6,229,-1
 820 220 l 5,230,-1
 794 220 l 6,231,-1
 768 219 768 219 753 219 c 6,234,-1
 737 219 l 6,235,-1
 708 219 708 219 696 210 c 4,238,-1
 684 201 684 201 680 184 c 4,241,-1
 672 164 672 164 665 164 c 4,244,-1
 656 164 656 164 656 191 c 4,167,-1
EndSplineSet
EndChar
StartChar: uF2642
Encoding: 992834 992834 69
Width: 1000
Flags: MW
LayerCount: 2
Back
Fore
SplineSet
97 330 m 0,0,-1
 97 341 97 341 105 341 c 0,3,-1
 107 341 107 341 125 334 c 0,6,-1
 143 327 143 327 170 327 c 0,9,-1
 218 327 218 327 248.5 364 c 0,12,-1
 279 401 279 401 279 452 c 0,15,-1
 279 490 279 490 257.5 515 c 0,18,-1
 236 540 236 540 194 540 c 0,21,-1
 172 540 172 540 158 537.5 c 0,24,-1
 144 535 144 535 143 535 c 0,27,-1
 130 535 130 535 130 550 c 0,30,-1
 130 557 130 557 133.5 580.5 c 0,33,-1
 137 604 137 604 143.5 645 c 0,36,-1
 150 686 150 686 155 723 c 0,39,-1
 157 739 157 739 176 739 c 0,42,-1
 269 740 269 740 284 741 c 0,45,-1
 299 742 299 742 308 748 c 0,48,-1
 312 751 312 751 315.5 755 c 0,51,-1
 319 759 319 759 321.5 761 c 0,54,-1
 324 763 324 763 327 763 c 0,57,-1
 335 763 335 763 335 756 c 0,60,-1
 335 751 335 751 333 745 c 0,63,-1
 330 737 330 737 325 725 c 0,66,-1
 313 695 313 695 309 689 c 0,69,-1
 305 683 305 683 297 683 c 0,72,-1
 296 683 296 683 282 683.5 c 0,75,-1
 268 684 268 684 258 684 c 0,78,-1
 188 684 188 684 182 675 c 0,81,-1
 178 666 178 666 172.5 637.5 c 0,84,-1
 167 609 167 609 167 599 c 0,87,-1
 167 590 167 590 171 590 c 2,90,-1
 173 591 l 2,91,-1
 175 591 175 591 178.5 592 c 0,94,-1
 182 593 182 593 187.5 594.5 c 0,97,-1
 193 596 193 596 202 596.5 c 0,100,-1
 211 597 211 597 222 597 c 0,103,-1
 277 597 277 597 310 559 c 0,106,-1
 340 523 340 523 340 479 c 0,109,-1
 340 394 340 394 292 346.5 c 0,112,-1
 244 299 244 299 183 299 c 0,115,-1
 154 299 154 299 125.5 307 c 0,118,-1
 97 315 97 315 97 330 c 0,0,-1
49 -170 m 0,121,-1
 49 -161 50 -148 77 -121 c 2,124,-1
 77 -121 886 712 891 717 c 0,127,-1
 902 729 908 735 926 735 c 0,130,-1
 935 735 939 728 939 723 c 0,133,-1
 939 707 928 697 919 687 c 2,136,-1
 108 -152 l 2,137,-1
 88 -173 82 -183 67 -183 c 0,140,-1
 55 -183 49 -178 49 -170 c 0,121,-1
656 191 m 4,143,-1
 656 205 656 205 662 232.5 c 4,146,-1
 668 260 668 260 669 269 c 4,149,-1
 670 277 670 277 679 277 c 4,152,-1
 682 277 682 277 706.5 275.5 c 4,155,-1
 731 274 731 274 777 274 c 6,158,-1
 796 274 l 6,159,-1
 828 274 828 274 847 275 c 6,162,-1
 866 276 l 6,163,-1
 881 276 881 276 881 263 c 4,166,-1
 881 220 881 220 833.5 83.5 c 4,169,-1
 786 -53 786 -53 786 -104 c 4,172,-1
 786 -133 786 -133 791 -153.5 c 4,175,-1
 796 -174 796 -174 796 -175 c 4,178,-1
 796 -185 796 -185 779.5 -189 c 4,181,-1
 763 -193 763 -193 752 -193 c 4,184,-1
 735 -193 735 -193 726.5 -182.5 c 4,187,-1
 718 -172 718 -172 718 -140 c 4,190,-1
 718 -92 718 -92 748.5 -18.5 c 4,193,-1
 779 55 779 55 810 120 c 4,196,-1
 841 185 841 185 841 212 c 4,199,-1
 841 214 841 214 837.5 217 c 4,202,-1
 834 220 834 220 829 220 c 6,205,-1
 820 220 l 5,206,-1
 794 220 l 6,207,-1
 768 219 768 219 753 219 c 6,210,-1
 737 219 l 6,211,-1
 708 219 708 219 696 210 c 4,214,-1
 684 201 684 201 680 184 c 4,217,-1
 672 164 672 164 665 164 c 4,220,-1
 656 164 656 164 656 191 c 4,143,-1
EndSplineSet
EndChar
StartChar: uF2643
Encoding: 992835 992835 70
Width: 1000
Flags: MW
LayerCount: 2
Back
Fore
SplineSet
77 469 m 0,0,-1
 77 528 77 528 99.5 578.5 c 0,3,-1
 122 629 122 629 154.5 660.5 c 0,6,-1
 187 692 187 692 224 714.5 c 0,9,-1
 261 737 261 737 289 746.5 c 0,12,-1
 317 756 317 756 332 756 c 0,15,-1
 343 756 343 756 343 746 c 0,18,-1
 343 740 343 740 332 737.5 c 0,21,-1
 321 735 321 735 294 723.5 c 0,24,-1
 267 712 267 712 238 688 c 0,27,-1
 197 653 197 653 174 611 c 0,30,-1
 151 569 151 569 151 549 c 0,33,-1
 151 543 151 543 153 543 c 0,36,-1
 154 543 154 543 164 555 c 0,39,-1
 174 567 174 567 195 579 c 0,42,-1
 216 591 216 591 245 591 c 0,45,-1
 293 591 293 591 326.5 554 c 0,48,-1
 360 517 360 517 360 458 c 0,51,-1
 360 394 360 394 320 349.5 c 0,54,-1
 280 305 280 305 222 305 c 0,57,-1
 179 305 179 305 149 327 c 0,60,-1
 77 381 77 381 77 469 c 0,0,-1
139 463 m 0,63,-1
 139 441 139 441 146 414.5 c 0,66,-1
 153 388 153 388 177 362 c 0,69,-1
 201 336 201 336 237 336 c 0,72,-1
 271 336 271 336 289 363.5 c 0,75,-1
 307 391 307 391 307 432 c 0,78,-1
 307 481 307 481 282 519.5 c 0,81,-1
 257 558 257 558 215 558 c 0,84,-1
 194 558 194 558 170.5 542.5 c 0,87,-1
 147 527 147 527 143 506 c 0,90,-1
 139 480 139 480 139 463 c 0,63,-1
49 -170 m 0,93,-1
 49 -161 50 -148 77 -121 c 2,96,-1
 77 -121 886 712 891 717 c 0,99,-1
 902 729 908 735 926 735 c 0,102,-1
 935 735 939 728 939 723 c 0,105,-1
 939 707 928 697 919 687 c 2,108,-1
 108 -152 l 2,109,-1
 88 -173 82 -183 67 -183 c 0,112,-1
 55 -183 49 -178 49 -170 c 0,93,-1
656 191 m 4,115,-1
 656 205 656 205 662 232.5 c 4,118,-1
 668 260 668 260 669 269 c 4,121,-1
 670 277 670 277 679 277 c 4,124,-1
 682 277 682 277 706.5 275.5 c 4,127,-1
 731 274 731 274 777 274 c 6,130,-1
 796 274 l 6,131,-1
 828 274 828 274 847 275 c 6,134,-1
 866 276 l 6,135,-1
 881 276 881 276 881 263 c 4,138,-1
 881 220 881 220 833.5 83.5 c 4,141,-1
 786 -53 786 -53 786 -104 c 4,144,-1
 786 -133 786 -133 791 -153.5 c 4,147,-1
 796 -174 796 -174 796 -175 c 4,150,-1
 796 -185 796 -185 779.5 -189 c 4,153,-1
 763 -193 763 -193 752 -193 c 4,156,-1
 735 -193 735 -193 726.5 -182.5 c 4,159,-1
 718 -172 718 -172 718 -140 c 4,162,-1
 718 -92 718 -92 748.5 -18.5 c 4,165,-1
 779 55 779 55 810 120 c 4,168,-1
 841 185 841 185 841 212 c 4,171,-1
 841 214 841 214 837.5 217 c 4,174,-1
 834 220 834 220 829 220 c 6,177,-1
 820 220 l 5,178,-1
 794 220 l 6,179,-1
 768 219 768 219 753 219 c 6,182,-1
 737 219 l 6,183,-1
 708 219 708 219 696 210 c 4,186,-1
 684 201 684 201 680 184 c 4,189,-1
 672 164 672 164 665 164 c 4,192,-1
 656 164 656 164 656 191 c 4,115,-1
EndSplineSet
EndChar
StartChar: uF2644
Encoding: 992836 992836 71
Width: 1000
Flags: MW
LayerCount: 2
Back
Fore
SplineSet
636 -32 m 4,0,-1
 636 -7 636 -7 645 13.5 c 4,3,-1
 654 34 654 34 667 46.5 c 4,6,-1
 680 59 680 59 693 67.5 c 4,9,-1
 706 76 706 76 715 80 c 4,12,-1
 724 84 724 84 724 85 c 4,15,-1
 724 86 724 86 708 94.5 c 4,18,-1
 692 103 692 103 675.5 124 c 4,21,-1
 659 145 659 145 659 175 c 4,24,-1
 659 227 659 227 693 257.5 c 4,27,-1
 727 288 727 288 775 288 c 4,30,-1
 833 288 833 288 858 258.5 c 4,33,-1
 883 229 883 229 883 191 c 4,36,-1
 883 168 883 168 875 150 c 4,39,-1
 867 132 867 132 856 123.5 c 4,42,-1
 845 115 845 115 834 109.5 c 4,45,-1
 823 104 823 104 815 102 c 4,48,-1
 807 100 807 100 807 99 c 4,51,-1
 807 98 807 98 830.5 86 c 4,54,-1
 854 74 854 74 877.5 46 c 4,57,-1
 901 18 901 18 901 -22 c 4,60,-1
 901 -71 901 -71 869.5 -112 c 4,63,-1
 838 -153 838 -153 766 -153 c 4,66,-1
 710 -153 710 -153 673 -121.5 c 4,69,-1
 636 -90 636 -90 636 -32 c 4,0,-1
679 -16 m 4,72,-1
 679 -65 679 -65 709.5 -95 c 4,75,-1
 740 -125 740 -125 777 -125 c 4,78,-1
 809 -125 809 -125 830.5 -102.5 c 4,81,-1
 852 -80 852 -80 852 -37 c 4,84,-1
 852 5 852 5 806 34 c 4,87,-1
 760 63 760 63 738 63 c 4,90,-1
 720 63 720 63 699.5 39 c 4,93,-1
 679 15 679 15 679 -16 c 4,72,-1
707 188 m 4,96,-1
 707 160 707 160 726.5 141.5 c 4,99,-1
 746 123 746 123 762.5 117.5 c 4,102,-1
 779 112 779 112 788 112 c 4,105,-1
 806 112 806 112 822.5 131 c 4,108,-1
 839 150 839 150 839 185 c 4,111,-1
 839 210 839 210 822.5 234.5 c 4,114,-1
 806 259 806 259 772 259 c 4,117,-1
 746 259 746 259 726.5 243 c 4,120,-1
 707 227 707 227 707 188 c 4,96,-1
132 685 m 0,123,-1
 132 695 132 695 139.5 699.5 c 0,126,-1
 147 704 147 704 170 711.5 c 0,129,-1
 193 719 193 719 211 728 c 0,132,-1
 220 732 220 732 229.5 739 c 0,135,-1
 239 746 239 746 245 750 c 0,138,-1
 251 754 251 754 255 754 c 0,141,-1
 265 754 265 754 265 740 c 0,144,-1
 265 738 265 738 262 726 c 0,147,-1
 259 714 259 714 259 710 c 0,150,-1
 255 610 255 610 255 510 c 0,153,-1
 255 475 255 475 254 436 c 0,156,-1
 253 397 253 397 253 391 c 0,159,-1
 253 379 253 379 255.5 371 c 0,162,-1
 258 363 258 363 260 358.5 c 0,165,-1
 262 354 262 354 269.5 351.5 c 0,168,-1
 277 349 277 349 280.5 348 c 0,171,-1
 284 347 284 347 296 346 c 0,174,-1
 308 345 308 345 313 345 c 0,177,-1
 325 343 325 343 325 332 c 0,180,-1
 325 320 325 320 290 320 c 0,183,-1
 281 320 281 320 261 320.5 c 0,186,-1
 241 321 241 321 228 321 c 0,189,-1
 213 321 213 321 187.5 320 c 0,192,-1
 162 319 162 319 154 319 c 0,195,-1
 135 319 135 319 135 331 c 0,198,-1
 135 345 135 345 157 345 c 0,201,-1
 175 345 175 345 182.5 349 c 0,204,-1
 190 353 190 353 192 369 c 0,207,-1
 198 413 198 413 198 529 c 0,210,-1
 198 570 198 570 198 596 c 0,213,-1
 198 622 198 622 198.5 629.5 c 0,216,-1
 199 637 199 637 199 641.5 c 0,219,-1
 199 646 199 646 199 649 c 0,222,-1
 199 685 199 685 178 685 c 0,225,-1
 170 685 170 685 159 679 c 0,228,-1
 148 673 148 673 140 673 c 0,231,-1
 139 673 139 673 137.5 674 c 0,234,-1
 136 675 136 675 134 678 c 0,237,-1
 132 681 132 681 132 685 c 0,123,-1
49 -170 m 0,240,-1
 49 -161 50 -148 77 -121 c 2,243,-1
 77 -121 886 712 891 717 c 0,246,-1
 902 729 908 735 926 735 c 0,249,-1
 935 735 939 728 939 723 c 0,252,-1
 939 707 928 697 919 687 c 2,255,-1
 108 -152 l 2,256,-1
 88 -173 82 -183 67 -183 c 0,259,-1
 55 -183 49 -178 49 -170 c 0,240,-1
EndSplineSet
EndChar
StartChar: uF2645
Encoding: 992837 992837 72
Width: 1000
Flags: MW
LayerCount: 2
Back
Fore
SplineSet
90 352 m 0,0,-1
 90 362 90 362 103 362 c 0,3,-1
 106 362 106 362 113.5 355.5 c 0,6,-1
 121 349 121 349 137.5 342 c 0,9,-1
 154 335 154 335 177 335 c 0,12,-1
 229 335 229 335 256.5 374 c 0,15,-1
 284 413 284 413 284 452 c 0,18,-1
 284 489 284 489 264 513 c 0,21,-1
 244 537 244 537 197 537 c 0,24,-1
 192 537 192 537 187.5 536.5 c 0,27,-1
 183 536 183 536 181 535.5 c 0,30,-1
 179 535 179 535 178 535 c 0,33,-1
 170 535 170 535 170 544 c 0,36,-1
 170 546 170 546 171 547 c 0,39,-1
 172 548 172 548 175.5 550.5 c 0,42,-1
 179 553 179 553 183.5 555.5 c 0,45,-1
 188 558 188 558 197 564.5 c 0,48,-1
 206 571 206 571 217 579 c 0,51,-1
 254 608 254 608 254 647 c 0,54,-1
 254 670 254 670 239 686 c 0,57,-1
 224 702 224 702 201 702 c 0,60,-1
 179 702 179 702 152.5 685 c 0,63,-1
 126 668 126 668 124 668 c 0,66,-1
 119 668 119 668 119 673 c 0,69,-1
 119 691 119 691 155.5 719 c 0,72,-1
 192 747 192 747 222 747 c 0,75,-1
 259 747 259 747 285.5 729 c 0,78,-1
 312 711 312 711 312 676 c 0,81,-1
 312 656 312 656 302.5 638.5 c 0,84,-1
 293 621 293 621 284 612.5 c 0,87,-1
 275 604 275 604 254 587 c 0,90,-1
 243 579 243 579 243 576 c 0,93,-1
 243 575 243 575 250.5 573.5 c 0,96,-1
 258 572 258 572 272.5 567.5 c 0,99,-1
 287 563 287 563 300 555 c 0,102,-1
 347 525 347 525 347 475 c 0,105,-1
 347 403 347 403 299.5 354.5 c 0,108,-1
 252 306 252 306 188 306 c 0,111,-1
 153 306 153 306 121.5 321 c 0,114,-1
 90 336 90 336 90 352 c 0,0,-1
49 -170 m 0,117,-1
 49 -161 50 -148 77 -121 c 2,120,-1
 77 -121 886 712 891 717 c 0,123,-1
 902 729 908 735 926 735 c 0,126,-1
 935 735 939 728 939 723 c 0,129,-1
 939 707 928 697 919 687 c 2,132,-1
 108 -152 l 2,133,-1
 88 -173 82 -183 67 -183 c 0,136,-1
 55 -183 49 -178 49 -170 c 0,117,-1
636 -32 m 4,139,-1
 636 -7 636 -7 645 13.5 c 4,142,-1
 654 34 654 34 667 46.5 c 4,145,-1
 680 59 680 59 693 67.5 c 4,148,-1
 706 76 706 76 715 80 c 4,151,-1
 724 84 724 84 724 85 c 4,154,-1
 724 86 724 86 708 94.5 c 4,157,-1
 692 103 692 103 675.5 124 c 4,160,-1
 659 145 659 145 659 175 c 4,163,-1
 659 227 659 227 693 257.5 c 4,166,-1
 727 288 727 288 775 288 c 4,169,-1
 833 288 833 288 858 258.5 c 4,172,-1
 883 229 883 229 883 191 c 4,175,-1
 883 168 883 168 875 150 c 4,178,-1
 867 132 867 132 856 123.5 c 4,181,-1
 845 115 845 115 834 109.5 c 4,184,-1
 823 104 823 104 815 102 c 4,187,-1
 807 100 807 100 807 99 c 4,190,-1
 807 98 807 98 830.5 86 c 4,193,-1
 854 74 854 74 877.5 46 c 4,196,-1
 901 18 901 18 901 -22 c 4,199,-1
 901 -71 901 -71 869.5 -112 c 4,202,-1
 838 -153 838 -153 766 -153 c 4,205,-1
 710 -153 710 -153 673 -121.5 c 4,208,-1
 636 -90 636 -90 636 -32 c 4,139,-1
679 -16 m 4,211,-1
 679 -65 679 -65 709.5 -95 c 4,214,-1
 740 -125 740 -125 777 -125 c 4,217,-1
 809 -125 809 -125 830.5 -102.5 c 4,220,-1
 852 -80 852 -80 852 -37 c 4,223,-1
 852 5 852 5 806 34 c 4,226,-1
 760 63 760 63 738 63 c 4,229,-1
 720 63 720 63 699.5 39 c 4,232,-1
 679 15 679 15 679 -16 c 4,211,-1
707 188 m 4,235,-1
 707 160 707 160 726.5 141.5 c 4,238,-1
 746 123 746 123 762.5 117.5 c 4,241,-1
 779 112 779 112 788 112 c 4,244,-1
 806 112 806 112 822.5 131 c 4,247,-1
 839 150 839 150 839 185 c 4,250,-1
 839 210 839 210 822.5 234.5 c 4,253,-1
 806 259 806 259 772 259 c 4,256,-1
 746 259 746 259 726.5 243 c 4,259,-1
 707 227 707 227 707 188 c 4,235,-1
EndSplineSet
EndChar
StartChar: uF2646
Encoding: 992838 992838 73
Width: 1000
Flags: MW
LayerCount: 2
Back
Fore
SplineSet
97 330 m 0,0,-1
 97 341 97 341 105 341 c 0,3,-1
 107 341 107 341 125 334 c 0,6,-1
 143 327 143 327 170 327 c 0,9,-1
 218 327 218 327 248.5 364 c 0,12,-1
 279 401 279 401 279 452 c 0,15,-1
 279 490 279 490 257.5 515 c 0,18,-1
 236 540 236 540 194 540 c 0,21,-1
 172 540 172 540 158 537.5 c 0,24,-1
 144 535 144 535 143 535 c 0,27,-1
 130 535 130 535 130 550 c 0,30,-1
 130 557 130 557 133.5 580.5 c 0,33,-1
 137 604 137 604 143.5 645 c 0,36,-1
 150 686 150 686 155 723 c 0,39,-1
 157 739 157 739 176 739 c 0,42,-1
 269 740 269 740 284 741 c 0,45,-1
 299 742 299 742 308 748 c 0,48,-1
 312 751 312 751 315.5 755 c 0,51,-1
 319 759 319 759 321.5 761 c 0,54,-1
 324 763 324 763 327 763 c 0,57,-1
 335 763 335 763 335 756 c 0,60,-1
 335 751 335 751 333 745 c 0,63,-1
 330 737 330 737 325 725 c 0,66,-1
 313 695 313 695 309 689 c 0,69,-1
 305 683 305 683 297 683 c 0,72,-1
 296 683 296 683 282 683.5 c 0,75,-1
 268 684 268 684 258 684 c 0,78,-1
 188 684 188 684 182 675 c 0,81,-1
 178 666 178 666 172.5 637.5 c 0,84,-1
 167 609 167 609 167 599 c 0,87,-1
 167 590 167 590 171 590 c 2,90,-1
 173 591 l 2,91,-1
 175 591 175 591 178.5 592 c 0,94,-1
 182 593 182 593 187.5 594.5 c 0,97,-1
 193 596 193 596 202 596.5 c 0,100,-1
 211 597 211 597 222 597 c 0,103,-1
 277 597 277 597 310 559 c 0,106,-1
 340 523 340 523 340 479 c 0,109,-1
 340 394 340 394 292 346.5 c 0,112,-1
 244 299 244 299 183 299 c 0,115,-1
 154 299 154 299 125.5 307 c 0,118,-1
 97 315 97 315 97 330 c 0,0,-1
49 -170 m 0,121,-1
 49 -161 50 -148 77 -121 c 2,124,-1
 77 -121 886 712 891 717 c 0,127,-1
 902 729 908 735 926 735 c 0,130,-1
 935 735 939 728 939 723 c 0,133,-1
 939 707 928 697 919 687 c 2,136,-1
 108 -152 l 2,137,-1
 88 -173 82 -183 67 -183 c 0,140,-1
 55 -183 49 -178 49 -170 c 0,121,-1
636 -32 m 4,143,-1
 636 -7 636 -7 645 13.5 c 4,146,-1
 654 34 654 34 667 46.5 c 4,149,-1
 680 59 680 59 693 67.5 c 4,152,-1
 706 76 706 76 715 80 c 4,155,-1
 724 84 724 84 724 85 c 4,158,-1
 724 86 724 86 708 94.5 c 4,161,-1
 692 103 692 103 675.5 124 c 4,164,-1
 659 145 659 145 659 175 c 4,167,-1
 659 227 659 227 693 257.5 c 4,170,-1
 727 288 727 288 775 288 c 4,173,-1
 833 288 833 288 858 258.5 c 4,176,-1
 883 229 883 229 883 191 c 4,179,-1
 883 168 883 168 875 150 c 4,182,-1
 867 132 867 132 856 123.5 c 4,185,-1
 845 115 845 115 834 109.5 c 4,188,-1
 823 104 823 104 815 102 c 4,191,-1
 807 100 807 100 807 99 c 4,194,-1
 807 98 807 98 830.5 86 c 4,197,-1
 854 74 854 74 877.5 46 c 4,200,-1
 901 18 901 18 901 -22 c 4,203,-1
 901 -71 901 -71 869.5 -112 c 4,206,-1
 838 -153 838 -153 766 -153 c 4,209,-1
 710 -153 710 -153 673 -121.5 c 4,212,-1
 636 -90 636 -90 636 -32 c 4,143,-1
679 -16 m 4,215,-1
 679 -65 679 -65 709.5 -95 c 4,218,-1
 740 -125 740 -125 777 -125 c 4,221,-1
 809 -125 809 -125 830.5 -102.5 c 4,224,-1
 852 -80 852 -80 852 -37 c 4,227,-1
 852 5 852 5 806 34 c 4,230,-1
 760 63 760 63 738 63 c 4,233,-1
 720 63 720 63 699.5 39 c 4,236,-1
 679 15 679 15 679 -16 c 4,215,-1
707 188 m 4,239,-1
 707 160 707 160 726.5 141.5 c 4,242,-1
 746 123 746 123 762.5 117.5 c 4,245,-1
 779 112 779 112 788 112 c 4,248,-1
 806 112 806 112 822.5 131 c 4,251,-1
 839 150 839 150 839 185 c 4,254,-1
 839 210 839 210 822.5 234.5 c 4,257,-1
 806 259 806 259 772 259 c 4,260,-1
 746 259 746 259 726.5 243 c 4,263,-1
 707 227 707 227 707 188 c 4,239,-1
EndSplineSet
EndChar
StartChar: uF2647
Encoding: 992839 992839 74
Width: 1000
Flags: MW
LayerCount: 2
Back
Fore
SplineSet
106 650 m 0,0,-1
 106 664 106 664 112 691.5 c 0,3,-1
 118 719 118 719 119 728 c 0,6,-1
 120 736 120 736 129 736 c 0,9,-1
 132 736 132 736 156.5 734.5 c 0,12,-1
 181 733 181 733 227 733 c 2,15,-1
 246 733 l 2,16,-1
 278 733 278 733 297 734 c 2,19,-1
 316 735 l 2,20,-1
 331 735 331 735 331 722 c 0,23,-1
 331 679 331 679 283.5 542.5 c 0,26,-1
 236 406 236 406 236 355 c 0,29,-1
 236 326 236 326 241 305.5 c 0,32,-1
 246 285 246 285 246 284 c 0,35,-1
 246 274 246 274 229.5 270 c 0,38,-1
 213 266 213 266 202 266 c 0,41,-1
 185 266 185 266 176.5 276.5 c 0,44,-1
 168 287 168 287 168 319 c 0,47,-1
 168 367 168 367 198.5 440.5 c 0,50,-1
 229 514 229 514 260 579 c 0,53,-1
 291 644 291 644 291 671 c 0,56,-1
 291 673 291 673 287.5 676 c 0,59,-1
 284 679 284 679 279 679 c 2,62,-1
 270 679 l 1,63,-1
 244 679 l 2,64,-1
 218 678 218 678 203 678 c 2,67,-1
 187 678 l 2,68,-1
 158 678 158 678 146 669 c 0,71,-1
 134 660 134 660 130 643 c 0,74,-1
 122 623 122 623 115 623 c 0,77,-1
 106 623 106 623 106 650 c 0,0,-1
49 -170 m 0,80,-1
 49 -161 50 -148 77 -121 c 2,83,-1
 77 -121 886 712 891 717 c 0,86,-1
 902 729 908 735 926 735 c 0,89,-1
 935 735 939 728 939 723 c 0,92,-1
 939 707 928 697 919 687 c 2,95,-1
 108 -152 l 2,96,-1
 88 -173 82 -183 67 -183 c 0,99,-1
 55 -183 49 -178 49 -170 c 0,80,-1
636 -32 m 4,102,-1
 636 -7 636 -7 645 13.5 c 4,105,-1
 654 34 654 34 667 46.5 c 4,108,-1
 680 59 680 59 693 67.5 c 4,111,-1
 706 76 706 76 715 80 c 4,114,-1
 724 84 724 84 724 85 c 4,117,-1
 724 86 724 86 708 94.5 c 4,120,-1
 692 103 692 103 675.5 124 c 4,123,-1
 659 145 659 145 659 175 c 4,126,-1
 659 227 659 227 693 257.5 c 4,129,-1
 727 288 727 288 775 288 c 4,132,-1
 833 288 833 288 858 258.5 c 4,135,-1
 883 229 883 229 883 191 c 4,138,-1
 883 168 883 168 875 150 c 4,141,-1
 867 132 867 132 856 123.5 c 4,144,-1
 845 115 845 115 834 109.5 c 4,147,-1
 823 104 823 104 815 102 c 4,150,-1
 807 100 807 100 807 99 c 4,153,-1
 807 98 807 98 830.5 86 c 4,156,-1
 854 74 854 74 877.5 46 c 4,159,-1
 901 18 901 18 901 -22 c 4,162,-1
 901 -71 901 -71 869.5 -112 c 4,165,-1
 838 -153 838 -153 766 -153 c 4,168,-1
 710 -153 710 -153 673 -121.5 c 4,171,-1
 636 -90 636 -90 636 -32 c 4,102,-1
679 -16 m 4,174,-1
 679 -65 679 -65 709.5 -95 c 4,177,-1
 740 -125 740 -125 777 -125 c 4,180,-1
 809 -125 809 -125 830.5 -102.5 c 4,183,-1
 852 -80 852 -80 852 -37 c 4,186,-1
 852 5 852 5 806 34 c 4,189,-1
 760 63 760 63 738 63 c 4,192,-1
 720 63 720 63 699.5 39 c 4,195,-1
 679 15 679 15 679 -16 c 4,174,-1
707 188 m 4,198,-1
 707 160 707 160 726.5 141.5 c 4,201,-1
 746 123 746 123 762.5 117.5 c 4,204,-1
 779 112 779 112 788 112 c 4,207,-1
 806 112 806 112 822.5 131 c 4,210,-1
 839 150 839 150 839 185 c 4,213,-1
 839 210 839 210 822.5 234.5 c 4,216,-1
 806 259 806 259 772 259 c 4,219,-1
 746 259 746 259 726.5 243 c 4,222,-1
 707 227 707 227 707 188 c 4,198,-1
EndSplineSet
EndChar
StartChar: uF2648
Encoding: 992840 992840 75
Width: 1000
Flags: MW
LayerCount: 2
Back
Fore
SplineSet
631 139 m 4,0,-1
 631 200 631 200 669 244 c 4,3,-1
 707 288 707 288 769 288 c 4,6,-1
 832 288 832 288 873 240.5 c 4,9,-1
 914 193 914 193 914 126 c 4,12,-1
 914 63 914 63 883.5 1.5 c 4,15,-1
 853 -60 853 -60 795 -101 c 4,18,-1
 759 -126 759 -126 719.5 -141 c 4,21,-1
 680 -156 680 -156 658 -156 c 4,24,-1
 648 -156 648 -156 648 -146 c 4,27,-1
 648 -138 648 -138 657 -136 c 4,30,-1
 718 -124 718 -124 779 -63 c 4,33,-1
 800 -42 800 -42 817.5 -6.5 c 4,36,-1
 835 29 835 29 835 40 c 4,39,-1
 835 44 835 44 833 44 c 4,42,-1
 832 44 832 44 821 34 c 4,45,-1
 810 24 810 24 791.5 13.5 c 4,48,-1
 773 3 773 3 754 3 c 4,51,-1
 696 3 696 3 663.5 43.5 c 4,54,-1
 631 84 631 84 631 139 c 4,0,-1
686 168 m 4,57,-1
 686 120 686 120 711.5 79.5 c 4,60,-1
 737 39 737 39 774 39 c 4,63,-1
 813 39 813 39 831.5 65 c 4,66,-1
 850 91 850 91 850 131 c 4,69,-1
 850 176 850 176 825 215.5 c 4,72,-1
 800 255 800 255 759 255 c 4,75,-1
 723 255 723 255 704.5 230 c 4,78,-1
 686 205 686 205 686 168 c 4,57,-1
132 685 m 0,81,-1
 132 695 132 695 139.5 699.5 c 0,84,-1
 147 704 147 704 170 711.5 c 0,87,-1
 193 719 193 719 211 728 c 0,90,-1
 220 732 220 732 229.5 739 c 0,93,-1
 239 746 239 746 245 750 c 0,96,-1
 251 754 251 754 255 754 c 0,99,-1
 265 754 265 754 265 740 c 0,102,-1
 265 738 265 738 262 726 c 0,105,-1
 259 714 259 714 259 710 c 0,108,-1
 255 610 255 610 255 510 c 0,111,-1
 255 475 255 475 254 436 c 0,114,-1
 253 397 253 397 253 391 c 0,117,-1
 253 379 253 379 255.5 371 c 0,120,-1
 258 363 258 363 260 358.5 c 0,123,-1
 262 354 262 354 269.5 351.5 c 0,126,-1
 277 349 277 349 280.5 348 c 0,129,-1
 284 347 284 347 296 346 c 0,132,-1
 308 345 308 345 313 345 c 0,135,-1
 325 343 325 343 325 332 c 0,138,-1
 325 320 325 320 290 320 c 0,141,-1
 281 320 281 320 261 320.5 c 0,144,-1
 241 321 241 321 228 321 c 0,147,-1
 213 321 213 321 187.5 320 c 0,150,-1
 162 319 162 319 154 319 c 0,153,-1
 135 319 135 319 135 331 c 0,156,-1
 135 345 135 345 157 345 c 0,159,-1
 175 345 175 345 182.5 349 c 0,162,-1
 190 353 190 353 192 369 c 0,165,-1
 198 413 198 413 198 529 c 0,168,-1
 198 570 198 570 198 596 c 0,171,-1
 198 622 198 622 198.5 629.5 c 0,174,-1
 199 637 199 637 199 641.5 c 0,177,-1
 199 646 199 646 199 649 c 0,180,-1
 199 685 199 685 178 685 c 0,183,-1
 170 685 170 685 159 679 c 0,186,-1
 148 673 148 673 140 673 c 0,189,-1
 139 673 139 673 137.5 674 c 0,192,-1
 136 675 136 675 134 678 c 0,195,-1
 132 681 132 681 132 685 c 0,81,-1
49 -170 m 0,198,-1
 49 -161 50 -148 77 -121 c 2,201,-1
 77 -121 886 712 891 717 c 0,204,-1
 902 729 908 735 926 735 c 0,207,-1
 935 735 939 728 939 723 c 0,210,-1
 939 707 928 697 919 687 c 2,213,-1
 108 -152 l 2,214,-1
 88 -173 82 -183 67 -183 c 0,217,-1
 55 -183 49 -178 49 -170 c 0,198,-1
EndSplineSet
EndChar
StartChar: uF2649
Encoding: 992841 992841 76
Width: 1000
Flags: MW
LayerCount: 2
Back
Fore
SplineSet
92 327 m 6,0,-1
 92 329 l 6,1,-1
 92 335 92 335 109.5 354.5 c 4,4,-1
 127 374 127 374 160.5 422.5 c 4,7,-1
 194 471 194 471 225 536 c 4,10,-1
 252 593 252 593 252 646 c 4,13,-1
 252 671 252 671 235.5 686.5 c 4,16,-1
 219 702 219 702 190 702 c 4,19,-1
 164 702 164 702 145 693 c 4,22,-1
 126 684 126 684 116 675 c 4,25,-1
 106 666 106 666 102 666 c 4,28,-1
 97 666 97 666 97 675 c 4,31,-1
 97 678 97 678 101 686 c 4,34,-1
 105 694 105 694 115 705.5 c 4,37,-1
 125 717 125 717 138 727.5 c 4,40,-1
 151 738 151 738 172 745.5 c 4,43,-1
 193 753 193 753 216 753 c 4,46,-1
 255 753 255 753 285 731.5 c 4,49,-1
 315 710 315 710 315 671 c 4,52,-1
 315 625 315 625 277 556 c 4,55,-1
 239 487 239 487 201 436 c 4,58,-1
 163 385 163 385 163 383 c 4,61,-1
 163 378 163 378 189 378 c 6,64,-1
 203 378 l 6,65,-1
 235 378 235 378 250.5 378 c 4,68,-1
 266 378 266 378 277.5 379 c 4,71,-1
 289 380 289 380 290.5 380 c 4,74,-1
 292 380 292 380 297.5 382.5 c 4,77,-1
 303 385 303 385 304 386 c 4,80,-1
 314 390 314 390 328 403.5 c 4,83,-1
 342 417 342 417 346 417 c 4,86,-1
 353 417 353 417 353 411 c 6,89,-1
 310 332 l 6,90,-1
 301 319 301 319 289 319 c 4,93,-1
 246 319 246 319 219 320 c 4,96,-1
 192 321 192 321 182 321 c 4,99,-1
 175 321 175 321 148 320.5 c 4,102,-1
 121 320 121 320 112 320 c 4,105,-1
 92 320 92 320 92 327 c 6,0,-1
49 -170 m 0,108,-1
 49 -161 50 -148 77 -121 c 2,111,-1
 77 -121 886 712 891 717 c 0,114,-1
 902 729 908 735 926 735 c 0,117,-1
 935 735 939 728 939 723 c 0,120,-1
 939 707 928 697 919 687 c 2,123,-1
 108 -152 l 2,124,-1
 88 -173 82 -183 67 -183 c 0,127,-1
 55 -183 49 -178 49 -170 c 0,108,-1
631 139 m 4,130,-1
 631 200 631 200 669 244 c 4,133,-1
 707 288 707 288 769 288 c 4,136,-1
 832 288 832 288 873 240.5 c 4,139,-1
 914 193 914 193 914 126 c 4,142,-1
 914 63 914 63 883.5 1.5 c 4,145,-1
 853 -60 853 -60 795 -101 c 4,148,-1
 759 -126 759 -126 719.5 -141 c 4,151,-1
 680 -156 680 -156 658 -156 c 4,154,-1
 648 -156 648 -156 648 -146 c 4,157,-1
 648 -138 648 -138 657 -136 c 4,160,-1
 718 -124 718 -124 779 -63 c 4,163,-1
 800 -42 800 -42 817.5 -6.5 c 4,166,-1
 835 29 835 29 835 40 c 4,169,-1
 835 44 835 44 833 44 c 4,172,-1
 832 44 832 44 821 34 c 4,175,-1
 810 24 810 24 791.5 13.5 c 4,178,-1
 773 3 773 3 754 3 c 4,181,-1
 696 3 696 3 663.5 43.5 c 4,184,-1
 631 84 631 84 631 139 c 4,130,-1
686 168 m 4,187,-1
 686 120 686 120 711.5 79.5 c 4,190,-1
 737 39 737 39 774 39 c 4,193,-1
 813 39 813 39 831.5 65 c 4,196,-1
 850 91 850 91 850 131 c 4,199,-1
 850 176 850 176 825 215.5 c 4,202,-1
 800 255 800 255 759 255 c 4,205,-1
 723 255 723 255 704.5 230 c 4,208,-1
 686 205 686 205 686 168 c 4,187,-1
EndSplineSet
EndChar
StartChar: uF264A
Encoding: 992842 992842 77
Width: 1000
Flags: MW
LayerCount: 2
Back
Fore
SplineSet
69 453 m 0,0,-1
 69 464 69 464 93.5 496.5 c 0,3,-1
 118 529 118 529 248 691 c 0,6,-1
 254 698 254 698 263 710 c 0,9,-1
 272 722 272 722 277.5 729 c 0,12,-1
 283 736 283 736 289.5 741.5 c 0,15,-1
 296 747 296 747 301 747 c 0,18,-1
 312 747 312 747 312 735 c 0,21,-1
 312 734 312 734 310 684 c 0,24,-1
 308 634 308 634 306.5 579 c 0,27,-1
 305 524 305 524 305 512 c 0,30,-1
 305 503 305 503 306 500.5 c 0,33,-1
 307 498 307 498 313 498 c 0,36,-1
 338 498 338 498 350 506.5 c 0,39,-1
 362 515 362 515 365 515 c 0,42,-1
 372 515 372 515 372 506 c 0,45,-1
 372 503 372 503 365 475 c 0,48,-1
 360 444 360 444 350 444 c 0,51,-1
 345 444 345 444 332 444.5 c 0,54,-1
 319 445 319 445 315 445 c 0,57,-1
 303 445 303 445 303 434 c 0,60,-1
 303 426 303 426 304 400.5 c 0,63,-1
 305 375 305 375 305 354 c 2,66,-1
 305 301 l 2,67,-1
 305 279 305 279 302 276.5 c 0,70,-1
 299 274 299 274 278 269 c 0,73,-1
 261 266 261 266 253 266 c 0,76,-1
 245 266 245 266 241 271 c 0,79,-1
 237 276 237 276 237 281 c 0,82,-1
 237 282 237 282 238.5 286.5 c 0,85,-1
 240 291 240 291 242 301.5 c 0,88,-1
 244 312 244 312 245.5 328 c 0,91,-1
 247 344 247 344 248.5 374 c 0,94,-1
 250 404 250 404 250 441 c 0,97,-1
 250 445 250 445 242 445 c 0,100,-1
 240 445 240 445 237 445 c 0,103,-1
 234 445 234 445 229 444.5 c 0,106,-1
 224 444 224 444 205.5 444 c 0,109,-1
 187 444 187 444 159 444 c 0,112,-1
 145 444 145 444 120.5 443.5 c 0,115,-1
 96 443 96 443 87 443 c 0,118,-1
 69 443 69 443 69 453 c 0,0,-1
134 501 m 0,121,-1
 134 495 134 495 152 495 c 2,124,-1
 233 495 l 2,125,-1
 250 495 250 495 250 502 c 2,128,-1
 250 508 l 1,129,-1
 251 534 l 2,130,-1
 252 560 252 560 252.5 592.5 c 0,133,-1
 253 625 253 625 253 640 c 0,136,-1
 253 656 253 656 250 656 c 0,139,-1
 246 656 246 656 190 583 c 0,142,-1
 134 510 134 510 134 501 c 0,121,-1
49 -170 m 0,145,-1
 49 -161 50 -148 77 -121 c 2,148,-1
 77 -121 886 712 891 717 c 0,151,-1
 902 729 908 735 926 735 c 0,154,-1
 935 735 939 728 939 723 c 0,157,-1
 939 707 928 697 919 687 c 2,160,-1
 108 -152 l 2,161,-1
 88 -173 82 -183 67 -183 c 0,164,-1
 55 -183 49 -178 49 -170 c 0,145,-1
631 139 m 4,167,-1
 631 200 631 200 669 244 c 4,170,-1
 707 288 707 288 769 288 c 4,173,-1
 832 288 832 288 873 240.5 c 4,176,-1
 914 193 914 193 914 126 c 4,179,-1
 914 63 914 63 883.5 1.5 c 4,182,-1
 853 -60 853 -60 795 -101 c 4,185,-1
 759 -126 759 -126 719.5 -141 c 4,188,-1
 680 -156 680 -156 658 -156 c 4,191,-1
 648 -156 648 -156 648 -146 c 4,194,-1
 648 -138 648 -138 657 -136 c 4,197,-1
 718 -124 718 -124 779 -63 c 4,200,-1
 800 -42 800 -42 817.5 -6.5 c 4,203,-1
 835 29 835 29 835 40 c 4,206,-1
 835 44 835 44 833 44 c 4,209,-1
 832 44 832 44 821 34 c 4,212,-1
 810 24 810 24 791.5 13.5 c 4,215,-1
 773 3 773 3 754 3 c 4,218,-1
 696 3 696 3 663.5 43.5 c 4,221,-1
 631 84 631 84 631 139 c 4,167,-1
686 168 m 4,224,-1
 686 120 686 120 711.5 79.5 c 4,227,-1
 737 39 737 39 774 39 c 4,230,-1
 813 39 813 39 831.5 65 c 4,233,-1
 850 91 850 91 850 131 c 4,236,-1
 850 176 850 176 825 215.5 c 4,239,-1
 800 255 800 255 759 255 c 4,242,-1
 723 255 723 255 704.5 230 c 4,245,-1
 686 205 686 205 686 168 c 4,224,-1
EndSplineSet
EndChar
StartChar: uF264B
Encoding: 992843 992843 78
Width: 1000
Flags: MW
LayerCount: 2
Back
Fore
SplineSet
97 330 m 0,0,-1
 97 341 97 341 105 341 c 0,3,-1
 107 341 107 341 125 334 c 0,6,-1
 143 327 143 327 170 327 c 0,9,-1
 218 327 218 327 248.5 364 c 0,12,-1
 279 401 279 401 279 452 c 0,15,-1
 279 490 279 490 257.5 515 c 0,18,-1
 236 540 236 540 194 540 c 0,21,-1
 172 540 172 540 158 537.5 c 0,24,-1
 144 535 144 535 143 535 c 0,27,-1
 130 535 130 535 130 550 c 0,30,-1
 130 557 130 557 133.5 580.5 c 0,33,-1
 137 604 137 604 143.5 645 c 0,36,-1
 150 686 150 686 155 723 c 0,39,-1
 157 739 157 739 176 739 c 0,42,-1
 269 740 269 740 284 741 c 0,45,-1
 299 742 299 742 308 748 c 0,48,-1
 312 751 312 751 315.5 755 c 0,51,-1
 319 759 319 759 321.5 761 c 0,54,-1
 324 763 324 763 327 763 c 0,57,-1
 335 763 335 763 335 756 c 0,60,-1
 335 751 335 751 333 745 c 0,63,-1
 330 737 330 737 325 725 c 0,66,-1
 313 695 313 695 309 689 c 0,69,-1
 305 683 305 683 297 683 c 0,72,-1
 296 683 296 683 282 683.5 c 0,75,-1
 268 684 268 684 258 684 c 0,78,-1
 188 684 188 684 182 675 c 0,81,-1
 178 666 178 666 172.5 637.5 c 0,84,-1
 167 609 167 609 167 599 c 0,87,-1
 167 590 167 590 171 590 c 2,90,-1
 173 591 l 2,91,-1
 175 591 175 591 178.5 592 c 0,94,-1
 182 593 182 593 187.5 594.5 c 0,97,-1
 193 596 193 596 202 596.5 c 0,100,-1
 211 597 211 597 222 597 c 0,103,-1
 277 597 277 597 310 559 c 0,106,-1
 340 523 340 523 340 479 c 0,109,-1
 340 394 340 394 292 346.5 c 0,112,-1
 244 299 244 299 183 299 c 0,115,-1
 154 299 154 299 125.5 307 c 0,118,-1
 97 315 97 315 97 330 c 0,0,-1
49 -170 m 0,121,-1
 49 -161 50 -148 77 -121 c 2,124,-1
 77 -121 886 712 891 717 c 0,127,-1
 902 729 908 735 926 735 c 0,130,-1
 935 735 939 728 939 723 c 0,133,-1
 939 707 928 697 919 687 c 2,136,-1
 108 -152 l 2,137,-1
 88 -173 82 -183 67 -183 c 0,140,-1
 55 -183 49 -178 49 -170 c 0,121,-1
631 139 m 4,143,-1
 631 200 631 200 669 244 c 4,146,-1
 707 288 707 288 769 288 c 4,149,-1
 832 288 832 288 873 240.5 c 4,152,-1
 914 193 914 193 914 126 c 4,155,-1
 914 63 914 63 883.5 1.5 c 4,158,-1
 853 -60 853 -60 795 -101 c 4,161,-1
 759 -126 759 -126 719.5 -141 c 4,164,-1
 680 -156 680 -156 658 -156 c 4,167,-1
 648 -156 648 -156 648 -146 c 4,170,-1
 648 -138 648 -138 657 -136 c 4,173,-1
 718 -124 718 -124 779 -63 c 4,176,-1
 800 -42 800 -42 817.5 -6.5 c 4,179,-1
 835 29 835 29 835 40 c 4,182,-1
 835 44 835 44 833 44 c 4,185,-1
 832 44 832 44 821 34 c 4,188,-1
 810 24 810 24 791.5 13.5 c 4,191,-1
 773 3 773 3 754 3 c 4,194,-1
 696 3 696 3 663.5 43.5 c 4,197,-1
 631 84 631 84 631 139 c 4,143,-1
686 168 m 4,200,-1
 686 120 686 120 711.5 79.5 c 4,203,-1
 737 39 737 39 774 39 c 4,206,-1
 813 39 813 39 831.5 65 c 4,209,-1
 850 91 850 91 850 131 c 4,212,-1
 850 176 850 176 825 215.5 c 4,215,-1
 800 255 800 255 759 255 c 4,218,-1
 723 255 723 255 704.5 230 c 4,221,-1
 686 205 686 205 686 168 c 4,200,-1
EndSplineSet
EndChar
StartChar: uF264C
Encoding: 992844 992844 79
Width: 1000
Flags: MW
LayerCount: 2
Back
Fore
SplineSet
106 650 m 0,0,-1
 106 664 106 664 112 691.5 c 0,3,-1
 118 719 118 719 119 728 c 0,6,-1
 120 736 120 736 129 736 c 0,9,-1
 132 736 132 736 156.5 734.5 c 0,12,-1
 181 733 181 733 227 733 c 2,15,-1
 246 733 l 2,16,-1
 278 733 278 733 297 734 c 2,19,-1
 316 735 l 2,20,-1
 331 735 331 735 331 722 c 0,23,-1
 331 679 331 679 283.5 542.5 c 0,26,-1
 236 406 236 406 236 355 c 0,29,-1
 236 326 236 326 241 305.5 c 0,32,-1
 246 285 246 285 246 284 c 0,35,-1
 246 274 246 274 229.5 270 c 0,38,-1
 213 266 213 266 202 266 c 0,41,-1
 185 266 185 266 176.5 276.5 c 0,44,-1
 168 287 168 287 168 319 c 0,47,-1
 168 367 168 367 198.5 440.5 c 0,50,-1
 229 514 229 514 260 579 c 0,53,-1
 291 644 291 644 291 671 c 0,56,-1
 291 673 291 673 287.5 676 c 0,59,-1
 284 679 284 679 279 679 c 2,62,-1
 270 679 l 1,63,-1
 244 679 l 2,64,-1
 218 678 218 678 203 678 c 2,67,-1
 187 678 l 2,68,-1
 158 678 158 678 146 669 c 0,71,-1
 134 660 134 660 130 643 c 0,74,-1
 122 623 122 623 115 623 c 0,77,-1
 106 623 106 623 106 650 c 0,0,-1
49 -170 m 0,80,-1
 49 -161 50 -148 77 -121 c 2,83,-1
 77 -121 886 712 891 717 c 0,86,-1
 902 729 908 735 926 735 c 0,89,-1
 935 735 939 728 939 723 c 0,92,-1
 939 707 928 697 919 687 c 2,95,-1
 108 -152 l 2,96,-1
 88 -173 82 -183 67 -183 c 0,99,-1
 55 -183 49 -178 49 -170 c 0,80,-1
631 139 m 4,102,-1
 631 200 631 200 669 244 c 4,105,-1
 707 288 707 288 769 288 c 4,108,-1
 832 288 832 288 873 240.5 c 4,111,-1
 914 193 914 193 914 126 c 4,114,-1
 914 63 914 63 883.5 1.5 c 4,117,-1
 853 -60 853 -60 795 -101 c 4,120,-1
 759 -126 759 -126 719.5 -141 c 4,123,-1
 680 -156 680 -156 658 -156 c 4,126,-1
 648 -156 648 -156 648 -146 c 4,129,-1
 648 -138 648 -138 657 -136 c 4,132,-1
 718 -124 718 -124 779 -63 c 4,135,-1
 800 -42 800 -42 817.5 -6.5 c 4,138,-1
 835 29 835 29 835 40 c 4,141,-1
 835 44 835 44 833 44 c 4,144,-1
 832 44 832 44 821 34 c 4,147,-1
 810 24 810 24 791.5 13.5 c 4,150,-1
 773 3 773 3 754 3 c 4,153,-1
 696 3 696 3 663.5 43.5 c 4,156,-1
 631 84 631 84 631 139 c 4,102,-1
686 168 m 4,159,-1
 686 120 686 120 711.5 79.5 c 4,162,-1
 737 39 737 39 774 39 c 4,165,-1
 813 39 813 39 831.5 65 c 4,168,-1
 850 91 850 91 850 131 c 4,171,-1
 850 176 850 176 825 215.5 c 4,174,-1
 800 255 800 255 759 255 c 4,177,-1
 723 255 723 255 704.5 230 c 4,180,-1
 686 205 686 205 686 168 c 4,159,-1
EndSplineSet
EndChar
StartChar: uF264D
Encoding: 992845 992845 80
Width: 1000
Flags: MW
LayerCount: 2
Back
Fore
SplineSet
86 427 m 0,0,-1
 86 452 86 452 95 472.5 c 0,3,-1
 104 493 104 493 117 505.5 c 0,6,-1
 130 518 130 518 143 526.5 c 0,9,-1
 156 535 156 535 165 539 c 0,12,-1
 174 543 174 543 174 544 c 0,15,-1
 174 545 174 545 158 553.5 c 0,18,-1
 142 562 142 562 125.5 583 c 0,21,-1
 109 604 109 604 109 634 c 0,24,-1
 109 686 109 686 143 716.5 c 0,27,-1
 177 747 177 747 225 747 c 0,30,-1
 283 747 283 747 308 717.5 c 0,33,-1
 333 688 333 688 333 650 c 0,36,-1
 333 627 333 627 325 609 c 0,39,-1
 317 591 317 591 306 582.5 c 0,42,-1
 295 574 295 574 284 568.5 c 0,45,-1
 273 563 273 563 265 561 c 0,48,-1
 257 559 257 559 257 558 c 0,51,-1
 257 557 257 557 280.5 545 c 0,54,-1
 304 533 304 533 327.5 505 c 0,57,-1
 351 477 351 477 351 437 c 0,60,-1
 351 388 351 388 319.5 347 c 0,63,-1
 288 306 288 306 216 306 c 0,66,-1
 160 306 160 306 123 337.5 c 0,69,-1
 86 369 86 369 86 427 c 0,0,-1
129 443 m 0,72,-1
 129 394 129 394 159.5 364 c 0,75,-1
 190 334 190 334 227 334 c 0,78,-1
 259 334 259 334 280.5 356.5 c 0,81,-1
 302 379 302 379 302 422 c 0,84,-1
 302 464 302 464 256 493 c 0,87,-1
 210 522 210 522 188 522 c 0,90,-1
 170 522 170 522 149.5 498 c 0,93,-1
 129 474 129 474 129 443 c 0,72,-1
157 647 m 0,96,-1
 157 619 157 619 176.5 600.5 c 0,99,-1
 196 582 196 582 212.5 576.5 c 0,102,-1
 229 571 229 571 238 571 c 0,105,-1
 256 571 256 571 272.5 590 c 0,108,-1
 289 609 289 609 289 644 c 0,111,-1
 289 669 289 669 272.5 693.5 c 0,114,-1
 256 718 256 718 222 718 c 0,117,-1
 196 718 196 718 176.5 702 c 0,120,-1
 157 686 157 686 157 647 c 0,96,-1
49 -170 m 0,123,-1
 49 -161 50 -148 77 -121 c 2,126,-1
 77 -121 886 712 891 717 c 0,129,-1
 902 729 908 735 926 735 c 0,132,-1
 935 735 939 728 939 723 c 0,135,-1
 939 707 928 697 919 687 c 2,138,-1
 108 -152 l 2,139,-1
 88 -173 82 -183 67 -183 c 0,142,-1
 55 -183 49 -178 49 -170 c 0,123,-1
631 139 m 4,145,-1
 631 200 631 200 669 244 c 4,148,-1
 707 288 707 288 769 288 c 4,151,-1
 832 288 832 288 873 240.5 c 4,154,-1
 914 193 914 193 914 126 c 4,157,-1
 914 63 914 63 883.5 1.5 c 4,160,-1
 853 -60 853 -60 795 -101 c 4,163,-1
 759 -126 759 -126 719.5 -141 c 4,166,-1
 680 -156 680 -156 658 -156 c 4,169,-1
 648 -156 648 -156 648 -146 c 4,172,-1
 648 -138 648 -138 657 -136 c 4,175,-1
 718 -124 718 -124 779 -63 c 4,178,-1
 800 -42 800 -42 817.5 -6.5 c 4,181,-1
 835 29 835 29 835 40 c 4,184,-1
 835 44 835 44 833 44 c 4,187,-1
 832 44 832 44 821 34 c 4,190,-1
 810 24 810 24 791.5 13.5 c 4,193,-1
 773 3 773 3 754 3 c 4,196,-1
 696 3 696 3 663.5 43.5 c 4,199,-1
 631 84 631 84 631 139 c 4,145,-1
686 168 m 4,202,-1
 686 120 686 120 711.5 79.5 c 4,205,-1
 737 39 737 39 774 39 c 4,208,-1
 813 39 813 39 831.5 65 c 4,211,-1
 850 91 850 91 850 131 c 4,214,-1
 850 176 850 176 825 215.5 c 4,217,-1
 800 255 800 255 759 255 c 4,220,-1
 723 255 723 255 704.5 230 c 4,223,-1
 686 205 686 205 686 168 c 4,202,-1
EndSplineSet
EndChar
StartChar: uF264E
Encoding: 992846 992846 81
Width: 1000
Flags: MW
LayerCount: 2
Back
Fore
SplineSet
487 226 m 0,0,-1
 487 236 487 236 494.5 240.5 c 0,3,-1
 502 245 502 245 525 252.5 c 0,6,-1
 548 260 548 260 566 269 c 0,9,-1
 575 273 575 273 584.5 280 c 0,12,-1
 594 287 594 287 600 291 c 0,15,-1
 606 295 606 295 610 295 c 0,18,-1
 620 295 620 295 620 281 c 0,21,-1
 620 279 620 279 617 267 c 0,24,-1
 614 255 614 255 614 251 c 0,27,-1
 610 151 610 151 610 51 c 0,30,-1
 610 16 610 16 609 -23 c 0,33,-1
 608 -62 608 -62 608 -68 c 0,36,-1
 608 -80 608 -80 610.5 -88 c 0,39,-1
 613 -96 613 -96 615 -100.5 c 0,42,-1
 617 -105 617 -105 624.5 -107.5 c 0,45,-1
 632 -110 632 -110 635.5 -111 c 0,48,-1
 639 -112 639 -112 651 -113 c 0,51,-1
 663 -114 663 -114 668 -114 c 0,54,-1
 680 -116 680 -116 680 -127 c 0,57,-1
 680 -139 680 -139 645 -139 c 0,60,-1
 636 -139 636 -139 616 -138.5 c 0,63,-1
 596 -138 596 -138 583 -138 c 0,66,-1
 568 -138 568 -138 542.5 -139 c 0,69,-1
 517 -140 517 -140 509 -140 c 0,72,-1
 490 -140 490 -140 490 -128 c 0,75,-1
 490 -114 490 -114 512 -114 c 0,78,-1
 530 -114 530 -114 537.5 -110 c 0,81,-1
 545 -106 545 -106 547 -90 c 0,84,-1
 553 -46 553 -46 553 70 c 0,87,-1
 553 111 553 111 553 137 c 0,90,-1
 553 163 553 163 553.5 170.5 c 0,93,-1
 554 178 554 178 554 182.5 c 0,96,-1
 554 187 554 187 554 190 c 0,99,-1
 554 226 554 226 533 226 c 0,102,-1
 525 226 525 226 514 220 c 0,105,-1
 503 214 503 214 495 214 c 0,108,-1
 494 214 494 214 492.5 215 c 0,111,-1
 491 216 491 216 489 219 c 0,114,-1
 487 222 487 222 487 226 c 0,0,-1
686 54 m 0,117,-1
 686 160 686 160 730.5 224.5 c 0,120,-1
 775 289 775 289 839 289 c 0,123,-1
 902 289 902 289 936.5 229.5 c 0,126,-1
 971 170 971 170 971 78 c 0,129,-1
 971 -18 971 -18 932.5 -83.5 c 0,132,-1
 894 -149 894 -149 825 -149 c 0,135,-1
 786 -149 786 -149 758 -132.5 c 0,138,-1
 730 -116 730 -116 715 -86 c 0,141,-1
 700 -56 700 -56 693 -22 c 0,144,-1
 686 12 686 12 686 54 c 0,117,-1
731 92 m 0,147,-1
 731 12 731 12 762.5 -53.5 c 0,150,-1
 794 -119 794 -119 842 -119 c 0,153,-1
 883 -119 883 -119 906 -70.5 c 0,156,-1
 929 -22 929 -22 929 46 c 0,159,-1
 929 124 929 124 900 184 c 0,162,-1
 871 244 871 244 821 244 c 0,165,-1
 777 244 777 244 754 200.5 c 0,168,-1
 731 157 731 157 731 92 c 0,147,-1
132 685 m 0,171,-1
 132 695 132 695 139.5 699.5 c 0,174,-1
 147 704 147 704 170 711.5 c 0,177,-1
 193 719 193 719 211 728 c 0,180,-1
 220 732 220 732 229.5 739 c 0,183,-1
 239 746 239 746 245 750 c 0,186,-1
 251 754 251 754 255 754 c 0,189,-1
 265 754 265 754 265 740 c 0,192,-1
 265 738 265 738 262 726 c 0,195,-1
 259 714 259 714 259 710 c 0,198,-1
 255 610 255 610 255 510 c 0,201,-1
 255 475 255 475 254 436 c 0,204,-1
 253 397 253 397 253 391 c 0,207,-1
 253 379 253 379 255.5 371 c 0,210,-1
 258 363 258 363 260 358.5 c 0,213,-1
 262 354 262 354 269.5 351.5 c 0,216,-1
 277 349 277 349 280.5 348 c 0,219,-1
 284 347 284 347 296 346 c 0,222,-1
 308 345 308 345 313 345 c 0,225,-1
 325 343 325 343 325 332 c 0,228,-1
 325 320 325 320 290 320 c 0,231,-1
 281 320 281 320 261 320.5 c 0,234,-1
 241 321 241 321 228 321 c 0,237,-1
 213 321 213 321 187.5 320 c 0,240,-1
 162 319 162 319 154 319 c 0,243,-1
 135 319 135 319 135 331 c 0,246,-1
 135 345 135 345 157 345 c 0,249,-1
 175 345 175 345 182.5 349 c 0,252,-1
 190 353 190 353 192 369 c 0,255,-1
 198 413 198 413 198 529 c 0,258,-1
 198 570 198 570 198 596 c 0,261,-1
 198 622 198 622 198.5 629.5 c 0,264,-1
 199 637 199 637 199 641.5 c 0,267,-1
 199 646 199 646 199 649 c 0,270,-1
 199 685 199 685 178 685 c 0,273,-1
 170 685 170 685 159 679 c 0,276,-1
 148 673 148 673 140 673 c 0,279,-1
 139 673 139 673 137.5 674 c 0,282,-1
 136 675 136 675 134 678 c 0,285,-1
 132 681 132 681 132 685 c 0,171,-1
49 -170 m 0,288,-1
 49 -161 50 -148 77 -121 c 2,291,-1
 77 -121 737 712 742 717 c 0,294,-1
 753 729 759 735 777 735 c 0,297,-1
 786 735 790 728 790 723 c 0,300,-1
 790 707 779 697 770 687 c 2,303,-1
 108 -152 l 2,304,-1
 88 -173 82 -183 67 -183 c 0,307,-1
 55 -183 49 -178 49 -170 c 0,288,-1
EndSplineSet
EndChar
StartChar: uF264F
Encoding: 992847 992847 82
Width: 1000
Flags: MW
LayerCount: 2
Back
Fore
SplineSet
90 352 m 0,0,-1
 90 362 90 362 103 362 c 0,3,-1
 106 362 106 362 113.5 355.5 c 0,6,-1
 121 349 121 349 137.5 342 c 0,9,-1
 154 335 154 335 177 335 c 0,12,-1
 229 335 229 335 256.5 374 c 0,15,-1
 284 413 284 413 284 452 c 0,18,-1
 284 489 284 489 264 513 c 0,21,-1
 244 537 244 537 197 537 c 0,24,-1
 192 537 192 537 187.5 536.5 c 0,27,-1
 183 536 183 536 181 535.5 c 0,30,-1
 179 535 179 535 178 535 c 0,33,-1
 170 535 170 535 170 544 c 0,36,-1
 170 546 170 546 171 547 c 0,39,-1
 172 548 172 548 175.5 550.5 c 0,42,-1
 179 553 179 553 183.5 555.5 c 0,45,-1
 188 558 188 558 197 564.5 c 0,48,-1
 206 571 206 571 217 579 c 0,51,-1
 254 608 254 608 254 647 c 0,54,-1
 254 670 254 670 239 686 c 0,57,-1
 224 702 224 702 201 702 c 0,60,-1
 179 702 179 702 152.5 685 c 0,63,-1
 126 668 126 668 124 668 c 0,66,-1
 119 668 119 668 119 673 c 0,69,-1
 119 691 119 691 155.5 719 c 0,72,-1
 192 747 192 747 222 747 c 0,75,-1
 259 747 259 747 285.5 729 c 0,78,-1
 312 711 312 711 312 676 c 0,81,-1
 312 656 312 656 302.5 638.5 c 0,84,-1
 293 621 293 621 284 612.5 c 0,87,-1
 275 604 275 604 254 587 c 0,90,-1
 243 579 243 579 243 576 c 0,93,-1
 243 575 243 575 250.5 573.5 c 0,96,-1
 258 572 258 572 272.5 567.5 c 0,99,-1
 287 563 287 563 300 555 c 0,102,-1
 347 525 347 525 347 475 c 0,105,-1
 347 403 347 403 299.5 354.5 c 0,108,-1
 252 306 252 306 188 306 c 0,111,-1
 153 306 153 306 121.5 321 c 0,114,-1
 90 336 90 336 90 352 c 0,0,-1
49 -170 m 0,117,-1
 49 -161 50 -148 77 -121 c 2,120,-1
 77 -121 737 712 742 717 c 0,123,-1
 753 729 759 735 777 735 c 0,126,-1
 786 735 790 728 790 723 c 0,129,-1
 790 707 779 697 770 687 c 2,132,-1
 108 -152 l 2,133,-1
 88 -173 82 -183 67 -183 c 0,136,-1
 55 -183 49 -178 49 -170 c 0,117,-1
487 226 m 0,139,-1
 487 236 487 236 494.5 240.5 c 0,142,-1
 502 245 502 245 525 252.5 c 0,145,-1
 548 260 548 260 566 269 c 0,148,-1
 575 273 575 273 584.5 280 c 0,151,-1
 594 287 594 287 600 291 c 0,154,-1
 606 295 606 295 610 295 c 0,157,-1
 620 295 620 295 620 281 c 0,160,-1
 620 279 620 279 617 267 c 0,163,-1
 614 255 614 255 614 251 c 0,166,-1
 610 151 610 151 610 51 c 0,169,-1
 610 16 610 16 609 -23 c 0,172,-1
 608 -62 608 -62 608 -68 c 0,175,-1
 608 -80 608 -80 610.5 -88 c 0,178,-1
 613 -96 613 -96 615 -100.5 c 0,181,-1
 617 -105 617 -105 624.5 -107.5 c 0,184,-1
 632 -110 632 -110 635.5 -111 c 0,187,-1
 639 -112 639 -112 651 -113 c 0,190,-1
 663 -114 663 -114 668 -114 c 0,193,-1
 680 -116 680 -116 680 -127 c 0,196,-1
 680 -139 680 -139 645 -139 c 0,199,-1
 636 -139 636 -139 616 -138.5 c 0,202,-1
 596 -138 596 -138 583 -138 c 0,205,-1
 568 -138 568 -138 542.5 -139 c 0,208,-1
 517 -140 517 -140 509 -140 c 0,211,-1
 490 -140 490 -140 490 -128 c 0,214,-1
 490 -114 490 -114 512 -114 c 0,217,-1
 530 -114 530 -114 537.5 -110 c 0,220,-1
 545 -106 545 -106 547 -90 c 0,223,-1
 553 -46 553 -46 553 70 c 0,226,-1
 553 111 553 111 553 137 c 0,229,-1
 553 163 553 163 553.5 170.5 c 0,232,-1
 554 178 554 178 554 182.5 c 0,235,-1
 554 187 554 187 554 190 c 0,238,-1
 554 226 554 226 533 226 c 0,241,-1
 525 226 525 226 514 220 c 0,244,-1
 503 214 503 214 495 214 c 0,247,-1
 494 214 494 214 492.5 215 c 0,250,-1
 491 216 491 216 489 219 c 0,253,-1
 487 222 487 222 487 226 c 0,139,-1
686 54 m 0,256,-1
 686 160 686 160 730.5 224.5 c 0,259,-1
 775 289 775 289 839 289 c 0,262,-1
 902 289 902 289 936.5 229.5 c 0,265,-1
 971 170 971 170 971 78 c 0,268,-1
 971 -18 971 -18 932.5 -83.5 c 0,271,-1
 894 -149 894 -149 825 -149 c 0,274,-1
 786 -149 786 -149 758 -132.5 c 0,277,-1
 730 -116 730 -116 715 -86 c 0,280,-1
 700 -56 700 -56 693 -22 c 0,283,-1
 686 12 686 12 686 54 c 0,256,-1
731 92 m 0,286,-1
 731 12 731 12 762.5 -53.5 c 0,289,-1
 794 -119 794 -119 842 -119 c 0,292,-1
 883 -119 883 -119 906 -70.5 c 0,295,-1
 929 -22 929 -22 929 46 c 0,298,-1
 929 124 929 124 900 184 c 0,301,-1
 871 244 871 244 821 244 c 0,304,-1
 777 244 777 244 754 200.5 c 0,307,-1
 731 157 731 157 731 92 c 0,286,-1
EndSplineSet
EndChar
StartChar: uF2650
Encoding: 992848 992848 83
Width: 1000
Flags: MW
LayerCount: 2
Back
Fore
SplineSet
106 650 m 0,0,-1
 106 664 106 664 112 691.5 c 0,3,-1
 118 719 118 719 119 728 c 0,6,-1
 120 736 120 736 129 736 c 0,9,-1
 132 736 132 736 156.5 734.5 c 0,12,-1
 181 733 181 733 227 733 c 2,15,-1
 246 733 l 2,16,-1
 278 733 278 733 297 734 c 2,19,-1
 316 735 l 2,20,-1
 331 735 331 735 331 722 c 0,23,-1
 331 679 331 679 283.5 542.5 c 0,26,-1
 236 406 236 406 236 355 c 0,29,-1
 236 326 236 326 241 305.5 c 0,32,-1
 246 285 246 285 246 284 c 0,35,-1
 246 274 246 274 229.5 270 c 0,38,-1
 213 266 213 266 202 266 c 0,41,-1
 185 266 185 266 176.5 276.5 c 0,44,-1
 168 287 168 287 168 319 c 0,47,-1
 168 367 168 367 198.5 440.5 c 0,50,-1
 229 514 229 514 260 579 c 0,53,-1
 291 644 291 644 291 671 c 0,56,-1
 291 673 291 673 287.5 676 c 0,59,-1
 284 679 284 679 279 679 c 2,62,-1
 270 679 l 1,63,-1
 244 679 l 2,64,-1
 218 678 218 678 203 678 c 2,67,-1
 187 678 l 2,68,-1
 158 678 158 678 146 669 c 0,71,-1
 134 660 134 660 130 643 c 0,74,-1
 122 623 122 623 115 623 c 0,77,-1
 106 623 106 623 106 650 c 0,0,-1
49 -170 m 0,80,-1
 49 -161 50 -148 77 -121 c 2,83,-1
 77 -121 737 712 742 717 c 0,86,-1
 753 729 759 735 777 735 c 0,89,-1
 786 735 790 728 790 723 c 0,92,-1
 790 707 779 697 770 687 c 2,95,-1
 108 -152 l 2,96,-1
 88 -173 82 -183 67 -183 c 0,99,-1
 55 -183 49 -178 49 -170 c 0,80,-1
487 226 m 0,102,-1
 487 236 487 236 494.5 240.5 c 0,105,-1
 502 245 502 245 525 252.5 c 0,108,-1
 548 260 548 260 566 269 c 0,111,-1
 575 273 575 273 584.5 280 c 0,114,-1
 594 287 594 287 600 291 c 0,117,-1
 606 295 606 295 610 295 c 0,120,-1
 620 295 620 295 620 281 c 0,123,-1
 620 279 620 279 617 267 c 0,126,-1
 614 255 614 255 614 251 c 0,129,-1
 610 151 610 151 610 51 c 0,132,-1
 610 16 610 16 609 -23 c 0,135,-1
 608 -62 608 -62 608 -68 c 0,138,-1
 608 -80 608 -80 610.5 -88 c 0,141,-1
 613 -96 613 -96 615 -100.5 c 0,144,-1
 617 -105 617 -105 624.5 -107.5 c 0,147,-1
 632 -110 632 -110 635.5 -111 c 0,150,-1
 639 -112 639 -112 651 -113 c 0,153,-1
 663 -114 663 -114 668 -114 c 0,156,-1
 680 -116 680 -116 680 -127 c 0,159,-1
 680 -139 680 -139 645 -139 c 0,162,-1
 636 -139 636 -139 616 -138.5 c 0,165,-1
 596 -138 596 -138 583 -138 c 0,168,-1
 568 -138 568 -138 542.5 -139 c 0,171,-1
 517 -140 517 -140 509 -140 c 0,174,-1
 490 -140 490 -140 490 -128 c 0,177,-1
 490 -114 490 -114 512 -114 c 0,180,-1
 530 -114 530 -114 537.5 -110 c 0,183,-1
 545 -106 545 -106 547 -90 c 0,186,-1
 553 -46 553 -46 553 70 c 0,189,-1
 553 111 553 111 553 137 c 0,192,-1
 553 163 553 163 553.5 170.5 c 0,195,-1
 554 178 554 178 554 182.5 c 0,198,-1
 554 187 554 187 554 190 c 0,201,-1
 554 226 554 226 533 226 c 0,204,-1
 525 226 525 226 514 220 c 0,207,-1
 503 214 503 214 495 214 c 0,210,-1
 494 214 494 214 492.5 215 c 0,213,-1
 491 216 491 216 489 219 c 0,216,-1
 487 222 487 222 487 226 c 0,102,-1
686 54 m 0,219,-1
 686 160 686 160 730.5 224.5 c 0,222,-1
 775 289 775 289 839 289 c 0,225,-1
 902 289 902 289 936.5 229.5 c 0,228,-1
 971 170 971 170 971 78 c 0,231,-1
 971 -18 971 -18 932.5 -83.5 c 0,234,-1
 894 -149 894 -149 825 -149 c 0,237,-1
 786 -149 786 -149 758 -132.5 c 0,240,-1
 730 -116 730 -116 715 -86 c 0,243,-1
 700 -56 700 -56 693 -22 c 0,246,-1
 686 12 686 12 686 54 c 0,219,-1
731 92 m 0,249,-1
 731 12 731 12 762.5 -53.5 c 0,252,-1
 794 -119 794 -119 842 -119 c 0,255,-1
 883 -119 883 -119 906 -70.5 c 0,258,-1
 929 -22 929 -22 929 46 c 0,261,-1
 929 124 929 124 900 184 c 0,264,-1
 871 244 871 244 821 244 c 0,267,-1
 777 244 777 244 754 200.5 c 0,270,-1
 731 157 731 157 731 92 c 0,249,-1
EndSplineSet
EndChar
StartChar: uF2651
Encoding: 992849 992849 84
Width: 1000
Flags: MW
LayerCount: 2
Back
Fore
SplineSet
81 598 m 0,0,-1
 81 659 81 659 119 703 c 0,3,-1
 157 747 157 747 219 747 c 0,6,-1
 282 747 282 747 323 699.5 c 0,9,-1
 364 652 364 652 364 585 c 0,12,-1
 364 522 364 522 333.5 460.5 c 0,15,-1
 303 399 303 399 245 358 c 0,18,-1
 209 333 209 333 169.5 318 c 0,21,-1
 130 303 130 303 108 303 c 0,24,-1
 98 303 98 303 98 313 c 0,27,-1
 98 321 98 321 107 323 c 0,30,-1
 168 335 168 335 229 396 c 0,33,-1
 250 417 250 417 267.5 452.5 c 0,36,-1
 285 488 285 488 285 499 c 0,39,-1
 285 503 285 503 283 503 c 0,42,-1
 282 503 282 503 271 493 c 0,45,-1
 260 483 260 483 241.5 472.5 c 0,48,-1
 223 462 223 462 204 462 c 0,51,-1
 146 462 146 462 113.5 502.5 c 0,54,-1
 81 543 81 543 81 598 c 0,0,-1
136 627 m 0,57,-1
 136 579 136 579 161.5 538.5 c 0,60,-1
 187 498 187 498 224 498 c 0,63,-1
 263 498 263 498 281.5 524 c 0,66,-1
 300 550 300 550 300 590 c 0,69,-1
 300 635 300 635 275 674.5 c 0,72,-1
 250 714 250 714 209 714 c 0,75,-1
 173 714 173 714 154.5 689 c 0,78,-1
 136 664 136 664 136 627 c 0,57,-1
49 -170 m 0,81,-1
 49 -161 50 -148 77 -121 c 2,84,-1
 77 -121 737 712 742 717 c 0,87,-1
 753 729 759 735 777 735 c 0,90,-1
 786 735 790 728 790 723 c 0,93,-1
 790 707 779 697 770 687 c 2,96,-1
 108 -152 l 2,97,-1
 88 -173 82 -183 67 -183 c 0,100,-1
 55 -183 49 -178 49 -170 c 0,81,-1
487 226 m 0,103,-1
 487 236 487 236 494.5 240.5 c 0,106,-1
 502 245 502 245 525 252.5 c 0,109,-1
 548 260 548 260 566 269 c 0,112,-1
 575 273 575 273 584.5 280 c 0,115,-1
 594 287 594 287 600 291 c 0,118,-1
 606 295 606 295 610 295 c 0,121,-1
 620 295 620 295 620 281 c 0,124,-1
 620 279 620 279 617 267 c 0,127,-1
 614 255 614 255 614 251 c 0,130,-1
 610 151 610 151 610 51 c 0,133,-1
 610 16 610 16 609 -23 c 0,136,-1
 608 -62 608 -62 608 -68 c 0,139,-1
 608 -80 608 -80 610.5 -88 c 0,142,-1
 613 -96 613 -96 615 -100.5 c 0,145,-1
 617 -105 617 -105 624.5 -107.5 c 0,148,-1
 632 -110 632 -110 635.5 -111 c 0,151,-1
 639 -112 639 -112 651 -113 c 0,154,-1
 663 -114 663 -114 668 -114 c 0,157,-1
 680 -116 680 -116 680 -127 c 0,160,-1
 680 -139 680 -139 645 -139 c 0,163,-1
 636 -139 636 -139 616 -138.5 c 0,166,-1
 596 -138 596 -138 583 -138 c 0,169,-1
 568 -138 568 -138 542.5 -139 c 0,172,-1
 517 -140 517 -140 509 -140 c 0,175,-1
 490 -140 490 -140 490 -128 c 0,178,-1
 490 -114 490 -114 512 -114 c 0,181,-1
 530 -114 530 -114 537.5 -110 c 0,184,-1
 545 -106 545 -106 547 -90 c 0,187,-1
 553 -46 553 -46 553 70 c 0,190,-1
 553 111 553 111 553 137 c 0,193,-1
 553 163 553 163 553.5 170.5 c 0,196,-1
 554 178 554 178 554 182.5 c 0,199,-1
 554 187 554 187 554 190 c 0,202,-1
 554 226 554 226 533 226 c 0,205,-1
 525 226 525 226 514 220 c 0,208,-1
 503 214 503 214 495 214 c 0,211,-1
 494 214 494 214 492.5 215 c 0,214,-1
 491 216 491 216 489 219 c 0,217,-1
 487 222 487 222 487 226 c 0,103,-1
686 54 m 0,220,-1
 686 160 686 160 730.5 224.5 c 0,223,-1
 775 289 775 289 839 289 c 0,226,-1
 902 289 902 289 936.5 229.5 c 0,229,-1
 971 170 971 170 971 78 c 0,232,-1
 971 -18 971 -18 932.5 -83.5 c 0,235,-1
 894 -149 894 -149 825 -149 c 0,238,-1
 786 -149 786 -149 758 -132.5 c 0,241,-1
 730 -116 730 -116 715 -86 c 0,244,-1
 700 -56 700 -56 693 -22 c 0,247,-1
 686 12 686 12 686 54 c 0,220,-1
731 92 m 0,250,-1
 731 12 731 12 762.5 -53.5 c 0,253,-1
 794 -119 794 -119 842 -119 c 0,256,-1
 883 -119 883 -119 906 -70.5 c 0,259,-1
 929 -22 929 -22 929 46 c 0,262,-1
 929 124 929 124 900 184 c 0,265,-1
 871 244 871 244 821 244 c 0,268,-1
 777 244 777 244 754 200.5 c 0,271,-1
 731 157 731 157 731 92 c 0,250,-1
EndSplineSet
EndChar
StartChar: uF2652
Encoding: 992850 992850 85
Width: 1000
Flags: MW
LayerCount: 2
Back
Fore
SplineSet
775 226 m 0,0,-1
 775 236 775 236 782.5 240.5 c 0,3,-1
 790 245 790 245 813 252.5 c 0,6,-1
 836 260 836 260 854 269 c 0,9,-1
 863 273 863 273 872.5 280 c 0,12,-1
 882 287 882 287 888 291 c 0,15,-1
 894 295 894 295 898 295 c 0,18,-1
 908 295 908 295 908 281 c 0,21,-1
 908 279 908 279 905 267 c 0,24,-1
 902 255 902 255 902 251 c 0,27,-1
 898 151 898 151 898 51 c 0,30,-1
 898 16 898 16 897 -23 c 0,33,-1
 896 -62 896 -62 896 -68 c 0,36,-1
 896 -80 896 -80 898.5 -88 c 0,39,-1
 901 -96 901 -96 903 -100.5 c 0,42,-1
 905 -105 905 -105 912.5 -107.5 c 0,45,-1
 920 -110 920 -110 923.5 -111 c 0,48,-1
 927 -112 927 -112 939 -113 c 0,51,-1
 951 -114 951 -114 956 -114 c 0,54,-1
 968 -116 968 -116 968 -127 c 0,57,-1
 968 -139 968 -139 933 -139 c 0,60,-1
 924 -139 924 -139 904 -138.5 c 0,63,-1
 884 -138 884 -138 871 -138 c 0,66,-1
 856 -138 856 -138 830.5 -139 c 0,69,-1
 805 -140 805 -140 797 -140 c 0,72,-1
 778 -140 778 -140 778 -128 c 0,75,-1
 778 -114 778 -114 800 -114 c 0,78,-1
 818 -114 818 -114 825.5 -110 c 0,81,-1
 833 -106 833 -106 835 -90 c 0,84,-1
 841 -46 841 -46 841 70 c 0,87,-1
 841 111 841 111 841 137 c 0,90,-1
 841 163 841 163 841.5 170.5 c 0,93,-1
 842 178 842 178 842 182.5 c 0,96,-1
 842 187 842 187 842 190 c 0,99,-1
 842 226 842 226 821 226 c 0,102,-1
 813 226 813 226 802 220 c 0,105,-1
 791 214 791 214 783 214 c 0,108,-1
 782 214 782 214 780.5 215 c 0,111,-1
 779 216 779 216 777 219 c 0,114,-1
 775 222 775 222 775 226 c 0,0,-1
556 226 m 0,117,-1
 556 236 556 236 563.5 240.5 c 0,120,-1
 571 245 571 245 594 252.5 c 0,123,-1
 617 260 617 260 635 269 c 0,126,-1
 644 273 644 273 653.5 280 c 0,129,-1
 663 287 663 287 669 291 c 0,132,-1
 675 295 675 295 679 295 c 0,135,-1
 689 295 689 295 689 281 c 0,138,-1
 689 279 689 279 686 267 c 0,141,-1
 683 255 683 255 683 251 c 0,144,-1
 679 151 679 151 679 51 c 0,147,-1
 679 16 679 16 678 -23 c 0,150,-1
 677 -62 677 -62 677 -68 c 0,153,-1
 677 -80 677 -80 679.5 -88 c 0,156,-1
 682 -96 682 -96 684 -100.5 c 0,159,-1
 686 -105 686 -105 693.5 -107.5 c 0,162,-1
 701 -110 701 -110 704.5 -111 c 0,165,-1
 708 -112 708 -112 720 -113 c 0,168,-1
 732 -114 732 -114 737 -114 c 0,171,-1
 749 -116 749 -116 749 -127 c 0,174,-1
 749 -139 749 -139 714 -139 c 0,177,-1
 705 -139 705 -139 685 -138.5 c 0,180,-1
 665 -138 665 -138 652 -138 c 0,183,-1
 637 -138 637 -138 611.5 -139 c 0,186,-1
 586 -140 586 -140 578 -140 c 0,189,-1
 559 -140 559 -140 559 -128 c 0,192,-1
 559 -114 559 -114 581 -114 c 0,195,-1
 599 -114 599 -114 606.5 -110 c 0,198,-1
 614 -106 614 -106 616 -90 c 0,201,-1
 622 -46 622 -46 622 70 c 0,204,-1
 622 111 622 111 622 137 c 0,207,-1
 622 163 622 163 622.5 170.5 c 0,210,-1
 623 178 623 178 623 182.5 c 0,213,-1
 623 187 623 187 623 190 c 0,216,-1
 623 226 623 226 602 226 c 0,219,-1
 594 226 594 226 583 220 c 0,222,-1
 572 214 572 214 564 214 c 0,225,-1
 563 214 563 214 561.5 215 c 0,228,-1
 560 216 560 216 558 219 c 0,231,-1
 556 222 556 222 556 226 c 0,117,-1
132 685 m 0,234,-1
 132 695 132 695 139.5 699.5 c 0,237,-1
 147 704 147 704 170 711.5 c 0,240,-1
 193 719 193 719 211 728 c 0,243,-1
 220 732 220 732 229.5 739 c 0,246,-1
 239 746 239 746 245 750 c 0,249,-1
 251 754 251 754 255 754 c 0,252,-1
 265 754 265 754 265 740 c 0,255,-1
 265 738 265 738 262 726 c 0,258,-1
 259 714 259 714 259 710 c 0,261,-1
 255 610 255 610 255 510 c 0,264,-1
 255 475 255 475 254 436 c 0,267,-1
 253 397 253 397 253 391 c 0,270,-1
 253 379 253 379 255.5 371 c 0,273,-1
 258 363 258 363 260 358.5 c 0,276,-1
 262 354 262 354 269.5 351.5 c 0,279,-1
 277 349 277 349 280.5 348 c 0,282,-1
 284 347 284 347 296 346 c 0,285,-1
 308 345 308 345 313 345 c 0,288,-1
 325 343 325 343 325 332 c 0,291,-1
 325 320 325 320 290 320 c 0,294,-1
 281 320 281 320 261 320.5 c 0,297,-1
 241 321 241 321 228 321 c 0,300,-1
 213 321 213 321 187.5 320 c 0,303,-1
 162 319 162 319 154 319 c 0,306,-1
 135 319 135 319 135 331 c 0,309,-1
 135 345 135 345 157 345 c 0,312,-1
 175 345 175 345 182.5 349 c 0,315,-1
 190 353 190 353 192 369 c 0,318,-1
 198 413 198 413 198 529 c 0,321,-1
 198 570 198 570 198 596 c 0,324,-1
 198 622 198 622 198.5 629.5 c 0,327,-1
 199 637 199 637 199 641.5 c 0,330,-1
 199 646 199 646 199 649 c 0,333,-1
 199 685 199 685 178 685 c 0,336,-1
 170 685 170 685 159 679 c 0,339,-1
 148 673 148 673 140 673 c 0,342,-1
 139 673 139 673 137.5 674 c 0,345,-1
 136 675 136 675 134 678 c 0,348,-1
 132 681 132 681 132 685 c 0,234,-1
49 -170 m 0,351,-1
 49 -161 50 -148 77 -121 c 2,354,-1
 77 -121 737 712 742 717 c 0,357,-1
 753 729 759 735 777 735 c 0,360,-1
 786 735 790 728 790 723 c 0,363,-1
 790 707 779 697 770 687 c 2,366,-1
 108 -152 l 2,367,-1
 88 -173 82 -183 67 -183 c 0,370,-1
 55 -183 49 -178 49 -170 c 0,351,-1
EndSplineSet
EndChar
StartChar: uF2653
Encoding: 992851 992851 86
Width: 1000
Flags: MW
LayerCount: 2
Back
Fore
SplineSet
92 327 m 2,0,-1
 92 329 l 2,1,-1
 92 335 92 335 109.5 354.5 c 0,4,-1
 127 374 127 374 160.5 422.5 c 0,7,-1
 194 471 194 471 225 536 c 0,10,-1
 252 593 252 593 252 646 c 0,13,-1
 252 671 252 671 235.5 686.5 c 0,16,-1
 219 702 219 702 190 702 c 0,19,-1
 164 702 164 702 145 693 c 0,22,-1
 126 684 126 684 116 675 c 0,25,-1
 106 666 106 666 102 666 c 0,28,-1
 97 666 97 666 97 675 c 0,31,-1
 97 678 97 678 101 686 c 0,34,-1
 105 694 105 694 115 705.5 c 0,37,-1
 125 717 125 717 138 727.5 c 0,40,-1
 151 738 151 738 172 745.5 c 0,43,-1
 193 753 193 753 216 753 c 0,46,-1
 255 753 255 753 285 731.5 c 0,49,-1
 315 710 315 710 315 671 c 0,52,-1
 315 625 315 625 277 556 c 0,55,-1
 239 487 239 487 201 436 c 0,58,-1
 163 385 163 385 163 383 c 0,61,-1
 163 378 163 378 189 378 c 2,64,-1
 203 378 l 2,65,-1
 235 378 235 378 250.5 378 c 0,68,-1
 266 378 266 378 277.5 379 c 0,71,-1
 289 380 289 380 290.5 380 c 0,74,-1
 292 380 292 380 297.5 382.5 c 0,77,-1
 303 385 303 385 304 386 c 0,80,-1
 314 390 314 390 328 403.5 c 0,83,-1
 342 417 342 417 346 417 c 0,86,-1
 353 417 353 417 353 411 c 2,89,-1
 310 332 l 2,90,-1
 301 319 301 319 289 319 c 0,93,-1
 246 319 246 319 219 320 c 0,96,-1
 192 321 192 321 182 321 c 0,99,-1
 175 321 175 321 148 320.5 c 0,102,-1
 121 320 121 320 112 320 c 0,105,-1
 92 320 92 320 92 327 c 2,0,-1
775 226 m 0,108,-1
 775 236 775 236 782.5 240.5 c 0,111,-1
 790 245 790 245 813 252.5 c 0,114,-1
 836 260 836 260 854 269 c 0,117,-1
 863 273 863 273 872.5 280 c 0,120,-1
 882 287 882 287 888 291 c 0,123,-1
 894 295 894 295 898 295 c 0,126,-1
 908 295 908 295 908 281 c 0,129,-1
 908 279 908 279 905 267 c 0,132,-1
 902 255 902 255 902 251 c 0,135,-1
 898 151 898 151 898 51 c 0,138,-1
 898 16 898 16 897 -23 c 0,141,-1
 896 -62 896 -62 896 -68 c 0,144,-1
 896 -80 896 -80 898.5 -88 c 0,147,-1
 901 -96 901 -96 903 -100.5 c 0,150,-1
 905 -105 905 -105 912.5 -107.5 c 0,153,-1
 920 -110 920 -110 923.5 -111 c 0,156,-1
 927 -112 927 -112 939 -113 c 0,159,-1
 951 -114 951 -114 956 -114 c 0,162,-1
 968 -116 968 -116 968 -127 c 0,165,-1
 968 -139 968 -139 933 -139 c 0,168,-1
 924 -139 924 -139 904 -138.5 c 0,171,-1
 884 -138 884 -138 871 -138 c 0,174,-1
 856 -138 856 -138 830.5 -139 c 0,177,-1
 805 -140 805 -140 797 -140 c 0,180,-1
 778 -140 778 -140 778 -128 c 0,183,-1
 778 -114 778 -114 800 -114 c 0,186,-1
 818 -114 818 -114 825.5 -110 c 0,189,-1
 833 -106 833 -106 835 -90 c 0,192,-1
 841 -46 841 -46 841 70 c 0,195,-1
 841 111 841 111 841 137 c 0,198,-1
 841 163 841 163 841.5 170.5 c 0,201,-1
 842 178 842 178 842 182.5 c 0,204,-1
 842 187 842 187 842 190 c 0,207,-1
 842 226 842 226 821 226 c 0,210,-1
 813 226 813 226 802 220 c 0,213,-1
 791 214 791 214 783 214 c 0,216,-1
 782 214 782 214 780.5 215 c 0,219,-1
 779 216 779 216 777 219 c 0,222,-1
 775 222 775 222 775 226 c 0,108,-1
556 226 m 0,225,-1
 556 236 556 236 563.5 240.5 c 0,228,-1
 571 245 571 245 594 252.5 c 0,231,-1
 617 260 617 260 635 269 c 0,234,-1
 644 273 644 273 653.5 280 c 0,237,-1
 663 287 663 287 669 291 c 0,240,-1
 675 295 675 295 679 295 c 0,243,-1
 689 295 689 295 689 281 c 0,246,-1
 689 279 689 279 686 267 c 0,249,-1
 683 255 683 255 683 251 c 0,252,-1
 679 151 679 151 679 51 c 0,255,-1
 679 16 679 16 678 -23 c 0,258,-1
 677 -62 677 -62 677 -68 c 0,261,-1
 677 -80 677 -80 679.5 -88 c 0,264,-1
 682 -96 682 -96 684 -100.5 c 0,267,-1
 686 -105 686 -105 693.5 -107.5 c 0,270,-1
 701 -110 701 -110 704.5 -111 c 0,273,-1
 708 -112 708 -112 720 -113 c 0,276,-1
 732 -114 732 -114 737 -114 c 0,279,-1
 749 -116 749 -116 749 -127 c 0,282,-1
 749 -139 749 -139 714 -139 c 0,285,-1
 705 -139 705 -139 685 -138.5 c 0,288,-1
 665 -138 665 -138 652 -138 c 0,291,-1
 637 -138 637 -138 611.5 -139 c 0,294,-1
 586 -140 586 -140 578 -140 c 0,297,-1
 559 -140 559 -140 559 -128 c 0,300,-1
 559 -114 559 -114 581 -114 c 0,303,-1
 599 -114 599 -114 606.5 -110 c 0,306,-1
 614 -106 614 -106 616 -90 c 0,309,-1
 622 -46 622 -46 622 70 c 0,312,-1
 622 111 622 111 622 137 c 0,315,-1
 622 163 622 163 622.5 170.5 c 0,318,-1
 623 178 623 178 623 182.5 c 0,321,-1
 623 187 623 187 623 190 c 0,324,-1
 623 226 623 226 602 226 c 0,327,-1
 594 226 594 226 583 220 c 0,330,-1
 572 214 572 214 564 214 c 0,333,-1
 563 214 563 214 561.5 215 c 0,336,-1
 560 216 560 216 558 219 c 0,339,-1
 556 222 556 222 556 226 c 0,225,-1
49 -170 m 0,342,-1
 49 -161 50 -148 77 -121 c 2,345,-1
 77 -121 737 712 742 717 c 0,348,-1
 753 729 759 735 777 735 c 0,351,-1
 786 735 790 728 790 723 c 0,354,-1
 790 707 779 697 770 687 c 2,357,-1
 108 -152 l 2,358,-1
 88 -173 82 -183 67 -183 c 0,361,-1
 55 -183 49 -178 49 -170 c 0,342,-1
EndSplineSet
EndChar
StartChar: uF2654
Encoding: 992852 992852 87
Width: 1000
Flags: MW
LayerCount: 2
Back
Fore
SplineSet
90 352 m 0,0,-1
 90 362 90 362 103 362 c 0,3,-1
 106 362 106 362 113.5 355.5 c 0,6,-1
 121 349 121 349 137.5 342 c 0,9,-1
 154 335 154 335 177 335 c 0,12,-1
 229 335 229 335 256.5 374 c 0,15,-1
 284 413 284 413 284 452 c 0,18,-1
 284 489 284 489 264 513 c 0,21,-1
 244 537 244 537 197 537 c 0,24,-1
 192 537 192 537 187.5 536.5 c 0,27,-1
 183 536 183 536 181 535.5 c 0,30,-1
 179 535 179 535 178 535 c 0,33,-1
 170 535 170 535 170 544 c 0,36,-1
 170 546 170 546 171 547 c 0,39,-1
 172 548 172 548 175.5 550.5 c 0,42,-1
 179 553 179 553 183.5 555.5 c 0,45,-1
 188 558 188 558 197 564.5 c 0,48,-1
 206 571 206 571 217 579 c 0,51,-1
 254 608 254 608 254 647 c 0,54,-1
 254 670 254 670 239 686 c 0,57,-1
 224 702 224 702 201 702 c 0,60,-1
 179 702 179 702 152.5 685 c 0,63,-1
 126 668 126 668 124 668 c 0,66,-1
 119 668 119 668 119 673 c 0,69,-1
 119 691 119 691 155.5 719 c 0,72,-1
 192 747 192 747 222 747 c 0,75,-1
 259 747 259 747 285.5 729 c 0,78,-1
 312 711 312 711 312 676 c 0,81,-1
 312 656 312 656 302.5 638.5 c 0,84,-1
 293 621 293 621 284 612.5 c 0,87,-1
 275 604 275 604 254 587 c 0,90,-1
 243 579 243 579 243 576 c 0,93,-1
 243 575 243 575 250.5 573.5 c 0,96,-1
 258 572 258 572 272.5 567.5 c 0,99,-1
 287 563 287 563 300 555 c 0,102,-1
 347 525 347 525 347 475 c 0,105,-1
 347 403 347 403 299.5 354.5 c 0,108,-1
 252 306 252 306 188 306 c 0,111,-1
 153 306 153 306 121.5 321 c 0,114,-1
 90 336 90 336 90 352 c 0,0,-1
775 226 m 0,117,-1
 775 236 775 236 782.5 240.5 c 0,120,-1
 790 245 790 245 813 252.5 c 0,123,-1
 836 260 836 260 854 269 c 0,126,-1
 863 273 863 273 872.5 280 c 0,129,-1
 882 287 882 287 888 291 c 0,132,-1
 894 295 894 295 898 295 c 0,135,-1
 908 295 908 295 908 281 c 0,138,-1
 908 279 908 279 905 267 c 0,141,-1
 902 255 902 255 902 251 c 0,144,-1
 898 151 898 151 898 51 c 0,147,-1
 898 16 898 16 897 -23 c 0,150,-1
 896 -62 896 -62 896 -68 c 0,153,-1
 896 -80 896 -80 898.5 -88 c 0,156,-1
 901 -96 901 -96 903 -100.5 c 0,159,-1
 905 -105 905 -105 912.5 -107.5 c 0,162,-1
 920 -110 920 -110 923.5 -111 c 0,165,-1
 927 -112 927 -112 939 -113 c 0,168,-1
 951 -114 951 -114 956 -114 c 0,171,-1
 968 -116 968 -116 968 -127 c 0,174,-1
 968 -139 968 -139 933 -139 c 0,177,-1
 924 -139 924 -139 904 -138.5 c 0,180,-1
 884 -138 884 -138 871 -138 c 0,183,-1
 856 -138 856 -138 830.5 -139 c 0,186,-1
 805 -140 805 -140 797 -140 c 0,189,-1
 778 -140 778 -140 778 -128 c 0,192,-1
 778 -114 778 -114 800 -114 c 0,195,-1
 818 -114 818 -114 825.5 -110 c 0,198,-1
 833 -106 833 -106 835 -90 c 0,201,-1
 841 -46 841 -46 841 70 c 0,204,-1
 841 111 841 111 841 137 c 0,207,-1
 841 163 841 163 841.5 170.5 c 0,210,-1
 842 178 842 178 842 182.5 c 0,213,-1
 842 187 842 187 842 190 c 0,216,-1
 842 226 842 226 821 226 c 0,219,-1
 813 226 813 226 802 220 c 0,222,-1
 791 214 791 214 783 214 c 0,225,-1
 782 214 782 214 780.5 215 c 0,228,-1
 779 216 779 216 777 219 c 0,231,-1
 775 222 775 222 775 226 c 0,117,-1
556 226 m 0,234,-1
 556 236 556 236 563.5 240.5 c 0,237,-1
 571 245 571 245 594 252.5 c 0,240,-1
 617 260 617 260 635 269 c 0,243,-1
 644 273 644 273 653.5 280 c 0,246,-1
 663 287 663 287 669 291 c 0,249,-1
 675 295 675 295 679 295 c 0,252,-1
 689 295 689 295 689 281 c 0,255,-1
 689 279 689 279 686 267 c 0,258,-1
 683 255 683 255 683 251 c 0,261,-1
 679 151 679 151 679 51 c 0,264,-1
 679 16 679 16 678 -23 c 0,267,-1
 677 -62 677 -62 677 -68 c 0,270,-1
 677 -80 677 -80 679.5 -88 c 0,273,-1
 682 -96 682 -96 684 -100.5 c 0,276,-1
 686 -105 686 -105 693.5 -107.5 c 0,279,-1
 701 -110 701 -110 704.5 -111 c 0,282,-1
 708 -112 708 -112 720 -113 c 0,285,-1
 732 -114 732 -114 737 -114 c 0,288,-1
 749 -116 749 -116 749 -127 c 0,291,-1
 749 -139 749 -139 714 -139 c 0,294,-1
 705 -139 705 -139 685 -138.5 c 0,297,-1
 665 -138 665 -138 652 -138 c 0,300,-1
 637 -138 637 -138 611.5 -139 c 0,303,-1
 586 -140 586 -140 578 -140 c 0,306,-1
 559 -140 559 -140 559 -128 c 0,309,-1
 559 -114 559 -114 581 -114 c 0,312,-1
 599 -114 599 -114 606.5 -110 c 0,315,-1
 614 -106 614 -106 616 -90 c 0,318,-1
 622 -46 622 -46 622 70 c 0,321,-1
 622 111 622 111 622 137 c 0,324,-1
 622 163 622 163 622.5 170.5 c 0,327,-1
 623 178 623 178 623 182.5 c 0,330,-1
 623 187 623 187 623 190 c 0,333,-1
 623 226 623 226 602 226 c 0,336,-1
 594 226 594 226 583 220 c 0,339,-1
 572 214 572 214 564 214 c 0,342,-1
 563 214 563 214 561.5 215 c 0,345,-1
 560 216 560 216 558 219 c 0,348,-1
 556 222 556 222 556 226 c 0,234,-1
49 -170 m 0,351,-1
 49 -161 50 -148 77 -121 c 2,354,-1
 77 -121 737 712 742 717 c 0,357,-1
 753 729 759 735 777 735 c 0,360,-1
 786 735 790 728 790 723 c 0,363,-1
 790 707 779 697 770 687 c 2,366,-1
 108 -152 l 2,367,-1
 88 -173 82 -183 67 -183 c 0,370,-1
 55 -183 49 -178 49 -170 c 0,351,-1
EndSplineSet
EndChar
StartChar: uF2655
Encoding: 992853 992853 88
Width: 1000
Flags: MW
LayerCount: 2
Back
Fore
SplineSet
69 453 m 0,0,-1
 69 464 69 464 93.5 496.5 c 0,3,-1
 118 529 118 529 248 691 c 0,6,-1
 254 698 254 698 263 710 c 0,9,-1
 272 722 272 722 277.5 729 c 0,12,-1
 283 736 283 736 289.5 741.5 c 0,15,-1
 296 747 296 747 301 747 c 0,18,-1
 312 747 312 747 312 735 c 0,21,-1
 312 734 312 734 310 684 c 0,24,-1
 308 634 308 634 306.5 579 c 0,27,-1
 305 524 305 524 305 512 c 0,30,-1
 305 503 305 503 306 500.5 c 0,33,-1
 307 498 307 498 313 498 c 0,36,-1
 338 498 338 498 350 506.5 c 0,39,-1
 362 515 362 515 365 515 c 0,42,-1
 372 515 372 515 372 506 c 0,45,-1
 372 503 372 503 365 475 c 0,48,-1
 360 444 360 444 350 444 c 0,51,-1
 345 444 345 444 332 444.5 c 0,54,-1
 319 445 319 445 315 445 c 0,57,-1
 303 445 303 445 303 434 c 0,60,-1
 303 426 303 426 304 400.5 c 0,63,-1
 305 375 305 375 305 354 c 2,66,-1
 305 301 l 2,67,-1
 305 279 305 279 302 276.5 c 0,70,-1
 299 274 299 274 278 269 c 0,73,-1
 261 266 261 266 253 266 c 0,76,-1
 245 266 245 266 241 271 c 0,79,-1
 237 276 237 276 237 281 c 0,82,-1
 237 282 237 282 238.5 286.5 c 0,85,-1
 240 291 240 291 242 301.5 c 0,88,-1
 244 312 244 312 245.5 328 c 0,91,-1
 247 344 247 344 248.5 374 c 0,94,-1
 250 404 250 404 250 441 c 0,97,-1
 250 445 250 445 242 445 c 0,100,-1
 240 445 240 445 237 445 c 0,103,-1
 234 445 234 445 229 444.5 c 0,106,-1
 224 444 224 444 205.5 444 c 0,109,-1
 187 444 187 444 159 444 c 0,112,-1
 145 444 145 444 120.5 443.5 c 0,115,-1
 96 443 96 443 87 443 c 0,118,-1
 69 443 69 443 69 453 c 0,0,-1
134 501 m 0,121,-1
 134 495 134 495 152 495 c 2,124,-1
 233 495 l 2,125,-1
 250 495 250 495 250 502 c 2,128,-1
 250 508 l 1,129,-1
 251 534 l 2,130,-1
 252 560 252 560 252.5 592.5 c 0,133,-1
 253 625 253 625 253 640 c 0,136,-1
 253 656 253 656 250 656 c 0,139,-1
 246 656 246 656 190 583 c 0,142,-1
 134 510 134 510 134 501 c 0,121,-1
775 226 m 0,145,-1
 775 236 775 236 782.5 240.5 c 0,148,-1
 790 245 790 245 813 252.5 c 0,151,-1
 836 260 836 260 854 269 c 0,154,-1
 863 273 863 273 872.5 280 c 0,157,-1
 882 287 882 287 888 291 c 0,160,-1
 894 295 894 295 898 295 c 0,163,-1
 908 295 908 295 908 281 c 0,166,-1
 908 279 908 279 905 267 c 0,169,-1
 902 255 902 255 902 251 c 0,172,-1
 898 151 898 151 898 51 c 0,175,-1
 898 16 898 16 897 -23 c 0,178,-1
 896 -62 896 -62 896 -68 c 0,181,-1
 896 -80 896 -80 898.5 -88 c 0,184,-1
 901 -96 901 -96 903 -100.5 c 0,187,-1
 905 -105 905 -105 912.5 -107.5 c 0,190,-1
 920 -110 920 -110 923.5 -111 c 0,193,-1
 927 -112 927 -112 939 -113 c 0,196,-1
 951 -114 951 -114 956 -114 c 0,199,-1
 968 -116 968 -116 968 -127 c 0,202,-1
 968 -139 968 -139 933 -139 c 0,205,-1
 924 -139 924 -139 904 -138.5 c 0,208,-1
 884 -138 884 -138 871 -138 c 0,211,-1
 856 -138 856 -138 830.5 -139 c 0,214,-1
 805 -140 805 -140 797 -140 c 0,217,-1
 778 -140 778 -140 778 -128 c 0,220,-1
 778 -114 778 -114 800 -114 c 0,223,-1
 818 -114 818 -114 825.5 -110 c 0,226,-1
 833 -106 833 -106 835 -90 c 0,229,-1
 841 -46 841 -46 841 70 c 0,232,-1
 841 111 841 111 841 137 c 0,235,-1
 841 163 841 163 841.5 170.5 c 0,238,-1
 842 178 842 178 842 182.5 c 0,241,-1
 842 187 842 187 842 190 c 0,244,-1
 842 226 842 226 821 226 c 0,247,-1
 813 226 813 226 802 220 c 0,250,-1
 791 214 791 214 783 214 c 0,253,-1
 782 214 782 214 780.5 215 c 0,256,-1
 779 216 779 216 777 219 c 0,259,-1
 775 222 775 222 775 226 c 0,145,-1
556 226 m 0,262,-1
 556 236 556 236 563.5 240.5 c 0,265,-1
 571 245 571 245 594 252.5 c 0,268,-1
 617 260 617 260 635 269 c 0,271,-1
 644 273 644 273 653.5 280 c 0,274,-1
 663 287 663 287 669 291 c 0,277,-1
 675 295 675 295 679 295 c 0,280,-1
 689 295 689 295 689 281 c 0,283,-1
 689 279 689 279 686 267 c 0,286,-1
 683 255 683 255 683 251 c 0,289,-1
 679 151 679 151 679 51 c 0,292,-1
 679 16 679 16 678 -23 c 0,295,-1
 677 -62 677 -62 677 -68 c 0,298,-1
 677 -80 677 -80 679.5 -88 c 0,301,-1
 682 -96 682 -96 684 -100.5 c 0,304,-1
 686 -105 686 -105 693.5 -107.5 c 0,307,-1
 701 -110 701 -110 704.5 -111 c 0,310,-1
 708 -112 708 -112 720 -113 c 0,313,-1
 732 -114 732 -114 737 -114 c 0,316,-1
 749 -116 749 -116 749 -127 c 0,319,-1
 749 -139 749 -139 714 -139 c 0,322,-1
 705 -139 705 -139 685 -138.5 c 0,325,-1
 665 -138 665 -138 652 -138 c 0,328,-1
 637 -138 637 -138 611.5 -139 c 0,331,-1
 586 -140 586 -140 578 -140 c 0,334,-1
 559 -140 559 -140 559 -128 c 0,337,-1
 559 -114 559 -114 581 -114 c 0,340,-1
 599 -114 599 -114 606.5 -110 c 0,343,-1
 614 -106 614 -106 616 -90 c 0,346,-1
 622 -46 622 -46 622 70 c 0,349,-1
 622 111 622 111 622 137 c 0,352,-1
 622 163 622 163 622.5 170.5 c 0,355,-1
 623 178 623 178 623 182.5 c 0,358,-1
 623 187 623 187 623 190 c 0,361,-1
 623 226 623 226 602 226 c 0,364,-1
 594 226 594 226 583 220 c 0,367,-1
 572 214 572 214 564 214 c 0,370,-1
 563 214 563 214 561.5 215 c 0,373,-1
 560 216 560 216 558 219 c 0,376,-1
 556 222 556 222 556 226 c 0,262,-1
49 -170 m 0,379,-1
 49 -161 50 -148 77 -121 c 2,382,-1
 77 -121 737 712 742 717 c 0,385,-1
 753 729 759 735 777 735 c 0,388,-1
 786 735 790 728 790 723 c 0,391,-1
 790 707 779 697 770 687 c 2,394,-1
 108 -152 l 2,395,-1
 88 -173 82 -183 67 -183 c 0,398,-1
 55 -183 49 -178 49 -170 c 0,379,-1
EndSplineSet
EndChar
StartChar: uF2656
Encoding: 992854 992854 89
Width: 1000
Flags: MW
LayerCount: 2
Back
Fore
SplineSet
97 330 m 0,0,-1
 97 341 97 341 105 341 c 0,3,-1
 107 341 107 341 125 334 c 0,6,-1
 143 327 143 327 170 327 c 0,9,-1
 218 327 218 327 248.5 364 c 0,12,-1
 279 401 279 401 279 452 c 0,15,-1
 279 490 279 490 257.5 515 c 0,18,-1
 236 540 236 540 194 540 c 0,21,-1
 172 540 172 540 158 537.5 c 0,24,-1
 144 535 144 535 143 535 c 0,27,-1
 130 535 130 535 130 550 c 0,30,-1
 130 557 130 557 133.5 580.5 c 0,33,-1
 137 604 137 604 143.5 645 c 0,36,-1
 150 686 150 686 155 723 c 0,39,-1
 157 739 157 739 176 739 c 0,42,-1
 269 740 269 740 284 741 c 0,45,-1
 299 742 299 742 308 748 c 0,48,-1
 312 751 312 751 315.5 755 c 0,51,-1
 319 759 319 759 321.5 761 c 0,54,-1
 324 763 324 763 327 763 c 0,57,-1
 335 763 335 763 335 756 c 0,60,-1
 335 751 335 751 333 745 c 0,63,-1
 330 737 330 737 325 725 c 0,66,-1
 313 695 313 695 309 689 c 0,69,-1
 305 683 305 683 297 683 c 0,72,-1
 296 683 296 683 282 683.5 c 0,75,-1
 268 684 268 684 258 684 c 0,78,-1
 188 684 188 684 182 675 c 0,81,-1
 178 666 178 666 172.5 637.5 c 0,84,-1
 167 609 167 609 167 599 c 0,87,-1
 167 590 167 590 171 590 c 2,90,-1
 173 591 l 2,91,-1
 175 591 175 591 178.5 592 c 0,94,-1
 182 593 182 593 187.5 594.5 c 0,97,-1
 193 596 193 596 202 596.5 c 0,100,-1
 211 597 211 597 222 597 c 0,103,-1
 277 597 277 597 310 559 c 0,106,-1
 340 523 340 523 340 479 c 0,109,-1
 340 394 340 394 292 346.5 c 0,112,-1
 244 299 244 299 183 299 c 0,115,-1
 154 299 154 299 125.5 307 c 0,118,-1
 97 315 97 315 97 330 c 0,0,-1
775 226 m 0,121,-1
 775 236 775 236 782.5 240.5 c 0,124,-1
 790 245 790 245 813 252.5 c 0,127,-1
 836 260 836 260 854 269 c 0,130,-1
 863 273 863 273 872.5 280 c 0,133,-1
 882 287 882 287 888 291 c 0,136,-1
 894 295 894 295 898 295 c 0,139,-1
 908 295 908 295 908 281 c 0,142,-1
 908 279 908 279 905 267 c 0,145,-1
 902 255 902 255 902 251 c 0,148,-1
 898 151 898 151 898 51 c 0,151,-1
 898 16 898 16 897 -23 c 0,154,-1
 896 -62 896 -62 896 -68 c 0,157,-1
 896 -80 896 -80 898.5 -88 c 0,160,-1
 901 -96 901 -96 903 -100.5 c 0,163,-1
 905 -105 905 -105 912.5 -107.5 c 0,166,-1
 920 -110 920 -110 923.5 -111 c 0,169,-1
 927 -112 927 -112 939 -113 c 0,172,-1
 951 -114 951 -114 956 -114 c 0,175,-1
 968 -116 968 -116 968 -127 c 0,178,-1
 968 -139 968 -139 933 -139 c 0,181,-1
 924 -139 924 -139 904 -138.5 c 0,184,-1
 884 -138 884 -138 871 -138 c 0,187,-1
 856 -138 856 -138 830.5 -139 c 0,190,-1
 805 -140 805 -140 797 -140 c 0,193,-1
 778 -140 778 -140 778 -128 c 0,196,-1
 778 -114 778 -114 800 -114 c 0,199,-1
 818 -114 818 -114 825.5 -110 c 0,202,-1
 833 -106 833 -106 835 -90 c 0,205,-1
 841 -46 841 -46 841 70 c 0,208,-1
 841 111 841 111 841 137 c 0,211,-1
 841 163 841 163 841.5 170.5 c 0,214,-1
 842 178 842 178 842 182.5 c 0,217,-1
 842 187 842 187 842 190 c 0,220,-1
 842 226 842 226 821 226 c 0,223,-1
 813 226 813 226 802 220 c 0,226,-1
 791 214 791 214 783 214 c 0,229,-1
 782 214 782 214 780.5 215 c 0,232,-1
 779 216 779 216 777 219 c 0,235,-1
 775 222 775 222 775 226 c 0,121,-1
556 226 m 0,238,-1
 556 236 556 236 563.5 240.5 c 0,241,-1
 571 245 571 245 594 252.5 c 0,244,-1
 617 260 617 260 635 269 c 0,247,-1
 644 273 644 273 653.5 280 c 0,250,-1
 663 287 663 287 669 291 c 0,253,-1
 675 295 675 295 679 295 c 0,256,-1
 689 295 689 295 689 281 c 0,259,-1
 689 279 689 279 686 267 c 0,262,-1
 683 255 683 255 683 251 c 0,265,-1
 679 151 679 151 679 51 c 0,268,-1
 679 16 679 16 678 -23 c 0,271,-1
 677 -62 677 -62 677 -68 c 0,274,-1
 677 -80 677 -80 679.5 -88 c 0,277,-1
 682 -96 682 -96 684 -100.5 c 0,280,-1
 686 -105 686 -105 693.5 -107.5 c 0,283,-1
 701 -110 701 -110 704.5 -111 c 0,286,-1
 708 -112 708 -112 720 -113 c 0,289,-1
 732 -114 732 -114 737 -114 c 0,292,-1
 749 -116 749 -116 749 -127 c 0,295,-1
 749 -139 749 -139 714 -139 c 0,298,-1
 705 -139 705 -139 685 -138.5 c 0,301,-1
 665 -138 665 -138 652 -138 c 0,304,-1
 637 -138 637 -138 611.5 -139 c 0,307,-1
 586 -140 586 -140 578 -140 c 0,310,-1
 559 -140 559 -140 559 -128 c 0,313,-1
 559 -114 559 -114 581 -114 c 0,316,-1
 599 -114 599 -114 606.5 -110 c 0,319,-1
 614 -106 614 -106 616 -90 c 0,322,-1
 622 -46 622 -46 622 70 c 0,325,-1
 622 111 622 111 622 137 c 0,328,-1
 622 163 622 163 622.5 170.5 c 0,331,-1
 623 178 623 178 623 182.5 c 0,334,-1
 623 187 623 187 623 190 c 0,337,-1
 623 226 623 226 602 226 c 0,340,-1
 594 226 594 226 583 220 c 0,343,-1
 572 214 572 214 564 214 c 0,346,-1
 563 214 563 214 561.5 215 c 0,349,-1
 560 216 560 216 558 219 c 0,352,-1
 556 222 556 222 556 226 c 0,238,-1
49 -170 m 0,355,-1
 49 -161 50 -148 77 -121 c 2,358,-1
 77 -121 737 712 742 717 c 0,361,-1
 753 729 759 735 777 735 c 0,364,-1
 786 735 790 728 790 723 c 0,367,-1
 790 707 779 697 770 687 c 2,370,-1
 108 -152 l 2,371,-1
 88 -173 82 -183 67 -183 c 0,374,-1
 55 -183 49 -178 49 -170 c 0,355,-1
EndSplineSet
EndChar
StartChar: uF2658
Encoding: 992856 992856 91
Width: 1000
Flags: MW
LayerCount: 2
Back
Fore
SplineSet
106 650 m 0,0,-1
 106 664 106 664 112 691.5 c 0,3,-1
 118 719 118 719 119 728 c 0,6,-1
 120 736 120 736 129 736 c 0,9,-1
 132 736 132 736 156.5 734.5 c 0,12,-1
 181 733 181 733 227 733 c 2,15,-1
 246 733 l 2,16,-1
 278 733 278 733 297 734 c 2,19,-1
 316 735 l 2,20,-1
 331 735 331 735 331 722 c 0,23,-1
 331 679 331 679 283.5 542.5 c 0,26,-1
 236 406 236 406 236 355 c 0,29,-1
 236 326 236 326 241 305.5 c 0,32,-1
 246 285 246 285 246 284 c 0,35,-1
 246 274 246 274 229.5 270 c 0,38,-1
 213 266 213 266 202 266 c 0,41,-1
 185 266 185 266 176.5 276.5 c 0,44,-1
 168 287 168 287 168 319 c 0,47,-1
 168 367 168 367 198.5 440.5 c 0,50,-1
 229 514 229 514 260 579 c 0,53,-1
 291 644 291 644 291 671 c 0,56,-1
 291 673 291 673 287.5 676 c 0,59,-1
 284 679 284 679 279 679 c 2,62,-1
 270 679 l 1,63,-1
 244 679 l 2,64,-1
 218 678 218 678 203 678 c 2,67,-1
 187 678 l 2,68,-1
 158 678 158 678 146 669 c 0,71,-1
 134 660 134 660 130 643 c 0,74,-1
 122 623 122 623 115 623 c 0,77,-1
 106 623 106 623 106 650 c 0,0,-1
775 226 m 0,80,-1
 775 236 775 236 782.5 240.5 c 0,83,-1
 790 245 790 245 813 252.5 c 0,86,-1
 836 260 836 260 854 269 c 0,89,-1
 863 273 863 273 872.5 280 c 0,92,-1
 882 287 882 287 888 291 c 0,95,-1
 894 295 894 295 898 295 c 0,98,-1
 908 295 908 295 908 281 c 0,101,-1
 908 279 908 279 905 267 c 0,104,-1
 902 255 902 255 902 251 c 0,107,-1
 898 151 898 151 898 51 c 0,110,-1
 898 16 898 16 897 -23 c 0,113,-1
 896 -62 896 -62 896 -68 c 0,116,-1
 896 -80 896 -80 898.5 -88 c 0,119,-1
 901 -96 901 -96 903 -100.5 c 0,122,-1
 905 -105 905 -105 912.5 -107.5 c 0,125,-1
 920 -110 920 -110 923.5 -111 c 0,128,-1
 927 -112 927 -112 939 -113 c 0,131,-1
 951 -114 951 -114 956 -114 c 0,134,-1
 968 -116 968 -116 968 -127 c 0,137,-1
 968 -139 968 -139 933 -139 c 0,140,-1
 924 -139 924 -139 904 -138.5 c 0,143,-1
 884 -138 884 -138 871 -138 c 0,146,-1
 856 -138 856 -138 830.5 -139 c 0,149,-1
 805 -140 805 -140 797 -140 c 0,152,-1
 778 -140 778 -140 778 -128 c 0,155,-1
 778 -114 778 -114 800 -114 c 0,158,-1
 818 -114 818 -114 825.5 -110 c 0,161,-1
 833 -106 833 -106 835 -90 c 0,164,-1
 841 -46 841 -46 841 70 c 0,167,-1
 841 111 841 111 841 137 c 0,170,-1
 841 163 841 163 841.5 170.5 c 0,173,-1
 842 178 842 178 842 182.5 c 0,176,-1
 842 187 842 187 842 190 c 0,179,-1
 842 226 842 226 821 226 c 0,182,-1
 813 226 813 226 802 220 c 0,185,-1
 791 214 791 214 783 214 c 0,188,-1
 782 214 782 214 780.5 215 c 0,191,-1
 779 216 779 216 777 219 c 0,194,-1
 775 222 775 222 775 226 c 0,80,-1
556 226 m 0,197,-1
 556 236 556 236 563.5 240.5 c 0,200,-1
 571 245 571 245 594 252.5 c 0,203,-1
 617 260 617 260 635 269 c 0,206,-1
 644 273 644 273 653.5 280 c 0,209,-1
 663 287 663 287 669 291 c 0,212,-1
 675 295 675 295 679 295 c 0,215,-1
 689 295 689 295 689 281 c 0,218,-1
 689 279 689 279 686 267 c 0,221,-1
 683 255 683 255 683 251 c 0,224,-1
 679 151 679 151 679 51 c 0,227,-1
 679 16 679 16 678 -23 c 0,230,-1
 677 -62 677 -62 677 -68 c 0,233,-1
 677 -80 677 -80 679.5 -88 c 0,236,-1
 682 -96 682 -96 684 -100.5 c 0,239,-1
 686 -105 686 -105 693.5 -107.5 c 0,242,-1
 701 -110 701 -110 704.5 -111 c 0,245,-1
 708 -112 708 -112 720 -113 c 0,248,-1
 732 -114 732 -114 737 -114 c 0,251,-1
 749 -116 749 -116 749 -127 c 0,254,-1
 749 -139 749 -139 714 -139 c 0,257,-1
 705 -139 705 -139 685 -138.5 c 0,260,-1
 665 -138 665 -138 652 -138 c 0,263,-1
 637 -138 637 -138 611.5 -139 c 0,266,-1
 586 -140 586 -140 578 -140 c 0,269,-1
 559 -140 559 -140 559 -128 c 0,272,-1
 559 -114 559 -114 581 -114 c 0,275,-1
 599 -114 599 -114 606.5 -110 c 0,278,-1
 614 -106 614 -106 616 -90 c 0,281,-1
 622 -46 622 -46 622 70 c 0,284,-1
 622 111 622 111 622 137 c 0,287,-1
 622 163 622 163 622.5 170.5 c 0,290,-1
 623 178 623 178 623 182.5 c 0,293,-1
 623 187 623 187 623 190 c 0,296,-1
 623 226 623 226 602 226 c 0,299,-1
 594 226 594 226 583 220 c 0,302,-1
 572 214 572 214 564 214 c 0,305,-1
 563 214 563 214 561.5 215 c 0,308,-1
 560 216 560 216 558 219 c 0,311,-1
 556 222 556 222 556 226 c 0,197,-1
49 -170 m 0,314,-1
 49 -161 50 -148 77 -121 c 2,317,-1
 77 -121 737 712 742 717 c 0,320,-1
 753 729 759 735 777 735 c 0,323,-1
 786 735 790 728 790 723 c 0,326,-1
 790 707 779 697 770 687 c 2,329,-1
 108 -152 l 2,330,-1
 88 -173 82 -183 67 -183 c 0,333,-1
 55 -183 49 -178 49 -170 c 0,314,-1
EndSplineSet
EndChar
StartChar: uF2659
Encoding: 992857 992857 92
Width: 1000
Flags: MW
LayerCount: 2
Back
Fore
SplineSet
86 427 m 0,0,-1
 86 452 86 452 95 472.5 c 0,3,-1
 104 493 104 493 117 505.5 c 0,6,-1
 130 518 130 518 143 526.5 c 0,9,-1
 156 535 156 535 165 539 c 0,12,-1
 174 543 174 543 174 544 c 0,15,-1
 174 545 174 545 158 553.5 c 0,18,-1
 142 562 142 562 125.5 583 c 0,21,-1
 109 604 109 604 109 634 c 0,24,-1
 109 686 109 686 143 716.5 c 0,27,-1
 177 747 177 747 225 747 c 0,30,-1
 283 747 283 747 308 717.5 c 0,33,-1
 333 688 333 688 333 650 c 0,36,-1
 333 627 333 627 325 609 c 0,39,-1
 317 591 317 591 306 582.5 c 0,42,-1
 295 574 295 574 284 568.5 c 0,45,-1
 273 563 273 563 265 561 c 0,48,-1
 257 559 257 559 257 558 c 0,51,-1
 257 557 257 557 280.5 545 c 0,54,-1
 304 533 304 533 327.5 505 c 0,57,-1
 351 477 351 477 351 437 c 0,60,-1
 351 388 351 388 319.5 347 c 0,63,-1
 288 306 288 306 216 306 c 0,66,-1
 160 306 160 306 123 337.5 c 0,69,-1
 86 369 86 369 86 427 c 0,0,-1
129 443 m 0,72,-1
 129 394 129 394 159.5 364 c 0,75,-1
 190 334 190 334 227 334 c 0,78,-1
 259 334 259 334 280.5 356.5 c 0,81,-1
 302 379 302 379 302 422 c 0,84,-1
 302 464 302 464 256 493 c 0,87,-1
 210 522 210 522 188 522 c 0,90,-1
 170 522 170 522 149.5 498 c 0,93,-1
 129 474 129 474 129 443 c 0,72,-1
157 647 m 0,96,-1
 157 619 157 619 176.5 600.5 c 0,99,-1
 196 582 196 582 212.5 576.5 c 0,102,-1
 229 571 229 571 238 571 c 0,105,-1
 256 571 256 571 272.5 590 c 0,108,-1
 289 609 289 609 289 644 c 0,111,-1
 289 669 289 669 272.5 693.5 c 0,114,-1
 256 718 256 718 222 718 c 0,117,-1
 196 718 196 718 176.5 702 c 0,120,-1
 157 686 157 686 157 647 c 0,96,-1
775 226 m 0,123,-1
 775 236 775 236 782.5 240.5 c 0,126,-1
 790 245 790 245 813 252.5 c 0,129,-1
 836 260 836 260 854 269 c 0,132,-1
 863 273 863 273 872.5 280 c 0,135,-1
 882 287 882 287 888 291 c 0,138,-1
 894 295 894 295 898 295 c 0,141,-1
 908 295 908 295 908 281 c 0,144,-1
 908 279 908 279 905 267 c 0,147,-1
 902 255 902 255 902 251 c 0,150,-1
 898 151 898 151 898 51 c 0,153,-1
 898 16 898 16 897 -23 c 0,156,-1
 896 -62 896 -62 896 -68 c 0,159,-1
 896 -80 896 -80 898.5 -88 c 0,162,-1
 901 -96 901 -96 903 -100.5 c 0,165,-1
 905 -105 905 -105 912.5 -107.5 c 0,168,-1
 920 -110 920 -110 923.5 -111 c 0,171,-1
 927 -112 927 -112 939 -113 c 0,174,-1
 951 -114 951 -114 956 -114 c 0,177,-1
 968 -116 968 -116 968 -127 c 0,180,-1
 968 -139 968 -139 933 -139 c 0,183,-1
 924 -139 924 -139 904 -138.5 c 0,186,-1
 884 -138 884 -138 871 -138 c 0,189,-1
 856 -138 856 -138 830.5 -139 c 0,192,-1
 805 -140 805 -140 797 -140 c 0,195,-1
 778 -140 778 -140 778 -128 c 0,198,-1
 778 -114 778 -114 800 -114 c 0,201,-1
 818 -114 818 -114 825.5 -110 c 0,204,-1
 833 -106 833 -106 835 -90 c 0,207,-1
 841 -46 841 -46 841 70 c 0,210,-1
 841 111 841 111 841 137 c 0,213,-1
 841 163 841 163 841.5 170.5 c 0,216,-1
 842 178 842 178 842 182.5 c 0,219,-1
 842 187 842 187 842 190 c 0,222,-1
 842 226 842 226 821 226 c 0,225,-1
 813 226 813 226 802 220 c 0,228,-1
 791 214 791 214 783 214 c 0,231,-1
 782 214 782 214 780.5 215 c 0,234,-1
 779 216 779 216 777 219 c 0,237,-1
 775 222 775 222 775 226 c 0,123,-1
556 226 m 0,240,-1
 556 236 556 236 563.5 240.5 c 0,243,-1
 571 245 571 245 594 252.5 c 0,246,-1
 617 260 617 260 635 269 c 0,249,-1
 644 273 644 273 653.5 280 c 0,252,-1
 663 287 663 287 669 291 c 0,255,-1
 675 295 675 295 679 295 c 0,258,-1
 689 295 689 295 689 281 c 0,261,-1
 689 279 689 279 686 267 c 0,264,-1
 683 255 683 255 683 251 c 0,267,-1
 679 151 679 151 679 51 c 0,270,-1
 679 16 679 16 678 -23 c 0,273,-1
 677 -62 677 -62 677 -68 c 0,276,-1
 677 -80 677 -80 679.5 -88 c 0,279,-1
 682 -96 682 -96 684 -100.5 c 0,282,-1
 686 -105 686 -105 693.5 -107.5 c 0,285,-1
 701 -110 701 -110 704.5 -111 c 0,288,-1
 708 -112 708 -112 720 -113 c 0,291,-1
 732 -114 732 -114 737 -114 c 0,294,-1
 749 -116 749 -116 749 -127 c 0,297,-1
 749 -139 749 -139 714 -139 c 0,300,-1
 705 -139 705 -139 685 -138.5 c 0,303,-1
 665 -138 665 -138 652 -138 c 0,306,-1
 637 -138 637 -138 611.5 -139 c 0,309,-1
 586 -140 586 -140 578 -140 c 0,312,-1
 559 -140 559 -140 559 -128 c 0,315,-1
 559 -114 559 -114 581 -114 c 0,318,-1
 599 -114 599 -114 606.5 -110 c 0,321,-1
 614 -106 614 -106 616 -90 c 0,324,-1
 622 -46 622 -46 622 70 c 0,327,-1
 622 111 622 111 622 137 c 0,330,-1
 622 163 622 163 622.5 170.5 c 0,333,-1
 623 178 623 178 623 182.5 c 0,336,-1
 623 187 623 187 623 190 c 0,339,-1
 623 226 623 226 602 226 c 0,342,-1
 594 226 594 226 583 220 c 0,345,-1
 572 214 572 214 564 214 c 0,348,-1
 563 214 563 214 561.5 215 c 0,351,-1
 560 216 560 216 558 219 c 0,354,-1
 556 222 556 222 556 226 c 0,240,-1
49 -170 m 0,357,-1
 49 -161 50 -148 77 -121 c 2,360,-1
 77 -121 737 712 742 717 c 0,363,-1
 753 729 759 735 777 735 c 0,366,-1
 786 735 790 728 790 723 c 0,369,-1
 790 707 779 697 770 687 c 2,372,-1
 108 -152 l 2,373,-1
 88 -173 82 -183 67 -183 c 0,376,-1
 55 -183 49 -178 49 -170 c 0,357,-1
EndSplineSet
EndChar
StartChar: uF265A
Encoding: 992858 992858 93
Width: 1000
Flags: MW
LayerCount: 2
Back
Fore
SplineSet
81 598 m 0,0,-1
 81 659 81 659 119 703 c 0,3,-1
 157 747 157 747 219 747 c 0,6,-1
 282 747 282 747 323 699.5 c 0,9,-1
 364 652 364 652 364 585 c 0,12,-1
 364 522 364 522 333.5 460.5 c 0,15,-1
 303 399 303 399 245 358 c 0,18,-1
 209 333 209 333 169.5 318 c 0,21,-1
 130 303 130 303 108 303 c 0,24,-1
 98 303 98 303 98 313 c 0,27,-1
 98 321 98 321 107 323 c 0,30,-1
 168 335 168 335 229 396 c 0,33,-1
 250 417 250 417 267.5 452.5 c 0,36,-1
 285 488 285 488 285 499 c 0,39,-1
 285 503 285 503 283 503 c 0,42,-1
 282 503 282 503 271 493 c 0,45,-1
 260 483 260 483 241.5 472.5 c 0,48,-1
 223 462 223 462 204 462 c 0,51,-1
 146 462 146 462 113.5 502.5 c 0,54,-1
 81 543 81 543 81 598 c 0,0,-1
136 627 m 0,57,-1
 136 579 136 579 161.5 538.5 c 0,60,-1
 187 498 187 498 224 498 c 0,63,-1
 263 498 263 498 281.5 524 c 0,66,-1
 300 550 300 550 300 590 c 0,69,-1
 300 635 300 635 275 674.5 c 0,72,-1
 250 714 250 714 209 714 c 0,75,-1
 173 714 173 714 154.5 689 c 0,78,-1
 136 664 136 664 136 627 c 0,57,-1
775 226 m 0,81,-1
 775 236 775 236 782.5 240.5 c 0,84,-1
 790 245 790 245 813 252.5 c 0,87,-1
 836 260 836 260 854 269 c 0,90,-1
 863 273 863 273 872.5 280 c 0,93,-1
 882 287 882 287 888 291 c 0,96,-1
 894 295 894 295 898 295 c 0,99,-1
 908 295 908 295 908 281 c 0,102,-1
 908 279 908 279 905 267 c 0,105,-1
 902 255 902 255 902 251 c 0,108,-1
 898 151 898 151 898 51 c 0,111,-1
 898 16 898 16 897 -23 c 0,114,-1
 896 -62 896 -62 896 -68 c 0,117,-1
 896 -80 896 -80 898.5 -88 c 0,120,-1
 901 -96 901 -96 903 -100.5 c 0,123,-1
 905 -105 905 -105 912.5 -107.5 c 0,126,-1
 920 -110 920 -110 923.5 -111 c 0,129,-1
 927 -112 927 -112 939 -113 c 0,132,-1
 951 -114 951 -114 956 -114 c 0,135,-1
 968 -116 968 -116 968 -127 c 0,138,-1
 968 -139 968 -139 933 -139 c 0,141,-1
 924 -139 924 -139 904 -138.5 c 0,144,-1
 884 -138 884 -138 871 -138 c 0,147,-1
 856 -138 856 -138 830.5 -139 c 0,150,-1
 805 -140 805 -140 797 -140 c 0,153,-1
 778 -140 778 -140 778 -128 c 0,156,-1
 778 -114 778 -114 800 -114 c 0,159,-1
 818 -114 818 -114 825.5 -110 c 0,162,-1
 833 -106 833 -106 835 -90 c 0,165,-1
 841 -46 841 -46 841 70 c 0,168,-1
 841 111 841 111 841 137 c 0,171,-1
 841 163 841 163 841.5 170.5 c 0,174,-1
 842 178 842 178 842 182.5 c 0,177,-1
 842 187 842 187 842 190 c 0,180,-1
 842 226 842 226 821 226 c 0,183,-1
 813 226 813 226 802 220 c 0,186,-1
 791 214 791 214 783 214 c 0,189,-1
 782 214 782 214 780.5 215 c 0,192,-1
 779 216 779 216 777 219 c 0,195,-1
 775 222 775 222 775 226 c 0,81,-1
556 226 m 0,198,-1
 556 236 556 236 563.5 240.5 c 0,201,-1
 571 245 571 245 594 252.5 c 0,204,-1
 617 260 617 260 635 269 c 0,207,-1
 644 273 644 273 653.5 280 c 0,210,-1
 663 287 663 287 669 291 c 0,213,-1
 675 295 675 295 679 295 c 0,216,-1
 689 295 689 295 689 281 c 0,219,-1
 689 279 689 279 686 267 c 0,222,-1
 683 255 683 255 683 251 c 0,225,-1
 679 151 679 151 679 51 c 0,228,-1
 679 16 679 16 678 -23 c 0,231,-1
 677 -62 677 -62 677 -68 c 0,234,-1
 677 -80 677 -80 679.5 -88 c 0,237,-1
 682 -96 682 -96 684 -100.5 c 0,240,-1
 686 -105 686 -105 693.5 -107.5 c 0,243,-1
 701 -110 701 -110 704.5 -111 c 0,246,-1
 708 -112 708 -112 720 -113 c 0,249,-1
 732 -114 732 -114 737 -114 c 0,252,-1
 749 -116 749 -116 749 -127 c 0,255,-1
 749 -139 749 -139 714 -139 c 0,258,-1
 705 -139 705 -139 685 -138.5 c 0,261,-1
 665 -138 665 -138 652 -138 c 0,264,-1
 637 -138 637 -138 611.5 -139 c 0,267,-1
 586 -140 586 -140 578 -140 c 0,270,-1
 559 -140 559 -140 559 -128 c 0,273,-1
 559 -114 559 -114 581 -114 c 0,276,-1
 599 -114 599 -114 606.5 -110 c 0,279,-1
 614 -106 614 -106 616 -90 c 0,282,-1
 622 -46 622 -46 622 70 c 0,285,-1
 622 111 622 111 622 137 c 0,288,-1
 622 163 622 163 622.5 170.5 c 0,291,-1
 623 178 623 178 623 182.5 c 0,294,-1
 623 187 623 187 623 190 c 0,297,-1
 623 226 623 226 602 226 c 0,300,-1
 594 226 594 226 583 220 c 0,303,-1
 572 214 572 214 564 214 c 0,306,-1
 563 214 563 214 561.5 215 c 0,309,-1
 560 216 560 216 558 219 c 0,312,-1
 556 222 556 222 556 226 c 0,198,-1
49 -170 m 0,315,-1
 49 -161 50 -148 77 -121 c 2,318,-1
 77 -121 737 712 742 717 c 0,321,-1
 753 729 759 735 777 735 c 0,324,-1
 786 735 790 728 790 723 c 0,327,-1
 790 707 779 697 770 687 c 2,330,-1
 108 -152 l 2,331,-1
 88 -173 82 -183 67 -183 c 0,334,-1
 55 -183 49 -178 49 -170 c 0,315,-1
EndSplineSet
EndChar
StartChar: uF265B
Encoding: 992859 992859 94
Width: 1000
Flags: MW
LayerCount: 2
Back
Fore
SplineSet
265 513 m 0,0,-1
 265 619 265 619 309.5 683.5 c 0,3,-1
 354 748 354 748 418 748 c 0,6,-1
 481 748 481 748 515.5 688.5 c 0,9,-1
 550 629 550 629 550 537 c 0,12,-1
 550 441 550 441 511.5 375.5 c 0,15,-1
 473 310 473 310 404 310 c 0,18,-1
 365 310 365 310 337 326.5 c 0,21,-1
 309 343 309 343 294 373 c 0,24,-1
 279 403 279 403 272 437 c 0,27,-1
 265 471 265 471 265 513 c 0,0,-1
310 551 m 0,30,-1
 310 471 310 471 341.5 405.5 c 0,33,-1
 373 340 373 340 421 340 c 0,36,-1
 462 340 462 340 485 388.5 c 0,39,-1
 508 437 508 437 508 505 c 0,42,-1
 508 583 508 583 479 643 c 0,45,-1
 450 703 450 703 400 703 c 0,48,-1
 356 703 356 703 333 659.5 c 0,51,-1
 310 616 310 616 310 551 c 0,30,-1
55 685 m 0,54,-1
 55 695 55 695 62.5 699.5 c 0,57,-1
 70 704 70 704 93 711.5 c 0,60,-1
 116 719 116 719 134 728 c 0,63,-1
 143 732 143 732 152.5 739 c 0,66,-1
 162 746 162 746 168 750 c 0,69,-1
 174 754 174 754 178 754 c 0,72,-1
 188 754 188 754 188 740 c 0,75,-1
 188 738 188 738 185 726 c 0,78,-1
 182 714 182 714 182 710 c 0,81,-1
 178 610 178 610 178 510 c 0,84,-1
 178 475 178 475 177 436 c 0,87,-1
 176 397 176 397 176 391 c 0,90,-1
 176 379 176 379 178.5 371 c 0,93,-1
 181 363 181 363 183 358.5 c 0,96,-1
 185 354 185 354 192.5 351.5 c 0,99,-1
 200 349 200 349 203.5 348 c 0,102,-1
 207 347 207 347 219 346 c 0,105,-1
 231 345 231 345 236 345 c 0,108,-1
 248 343 248 343 248 332 c 0,111,-1
 248 320 248 320 213 320 c 0,114,-1
 204 320 204 320 184 320.5 c 0,117,-1
 164 321 164 321 151 321 c 0,120,-1
 136 321 136 321 110.5 320 c 0,123,-1
 85 319 85 319 77 319 c 0,126,-1
 58 319 58 319 58 331 c 0,129,-1
 58 345 58 345 80 345 c 0,132,-1
 98 345 98 345 105.5 349 c 0,135,-1
 113 353 113 353 115 369 c 0,138,-1
 121 413 121 413 121 529 c 0,141,-1
 121 570 121 570 121 596 c 0,144,-1
 121 622 121 622 121.5 629.5 c 0,147,-1
 122 637 122 637 122 641.5 c 0,150,-1
 122 646 122 646 122 649 c 0,153,-1
 122 685 122 685 101 685 c 0,156,-1
 93 685 93 685 82 679 c 0,159,-1
 71 673 71 673 63 673 c 0,162,-1
 62 673 62 673 60.5 674 c 0,165,-1
 59 675 59 675 57 678 c 0,168,-1
 55 681 55 681 55 685 c 0,54,-1
49 -170 m 0,171,-1
 49 -161 50 -148 77 -121 c 2,174,-1
 77 -121 886 712 891 717 c 0,177,-1
 902 729 908 735 926 735 c 0,180,-1
 935 735 939 728 939 723 c 0,183,-1
 939 707 928 697 919 687 c 2,186,-1
 108 -152 l 2,187,-1
 88 -173 82 -183 67 -183 c 0,190,-1
 55 -183 49 -178 49 -170 c 0,171,-1
775 226 m 4,193,-1
 775 236 775 236 782.5 240.5 c 4,196,-1
 790 245 790 245 813 252.5 c 4,199,-1
 836 260 836 260 854 269 c 4,202,-1
 863 273 863 273 872.5 280 c 4,205,-1
 882 287 882 287 888 291 c 4,208,-1
 894 295 894 295 898 295 c 4,211,-1
 908 295 908 295 908 281 c 4,214,-1
 908 279 908 279 905 267 c 4,217,-1
 902 255 902 255 902 251 c 4,220,-1
 898 151 898 151 898 51 c 4,223,-1
 898 16 898 16 897 -23 c 4,226,-1
 896 -62 896 -62 896 -68 c 4,229,-1
 896 -80 896 -80 898.5 -88 c 4,232,-1
 901 -96 901 -96 903 -100.5 c 4,235,-1
 905 -105 905 -105 912.5 -107.5 c 4,238,-1
 920 -110 920 -110 923.5 -111 c 4,241,-1
 927 -112 927 -112 939 -113 c 4,244,-1
 951 -114 951 -114 956 -114 c 4,247,-1
 968 -116 968 -116 968 -127 c 4,250,-1
 968 -139 968 -139 933 -139 c 4,253,-1
 924 -139 924 -139 904 -138.5 c 4,256,-1
 884 -138 884 -138 871 -138 c 4,259,-1
 856 -138 856 -138 830.5 -139 c 4,262,-1
 805 -140 805 -140 797 -140 c 4,265,-1
 778 -140 778 -140 778 -128 c 4,268,-1
 778 -114 778 -114 800 -114 c 4,271,-1
 818 -114 818 -114 825.5 -110 c 4,274,-1
 833 -106 833 -106 835 -90 c 4,277,-1
 841 -46 841 -46 841 70 c 4,280,-1
 841 111 841 111 841 137 c 4,283,-1
 841 163 841 163 841.5 170.5 c 4,286,-1
 842 178 842 178 842 182.5 c 4,289,-1
 842 187 842 187 842 190 c 4,292,-1
 842 226 842 226 821 226 c 4,295,-1
 813 226 813 226 802 220 c 4,298,-1
 791 214 791 214 783 214 c 4,301,-1
 782 214 782 214 780.5 215 c 4,304,-1
 779 216 779 216 777 219 c 4,307,-1
 775 222 775 222 775 226 c 4,193,-1
556 226 m 4,310,-1
 556 236 556 236 563.5 240.5 c 4,313,-1
 571 245 571 245 594 252.5 c 4,316,-1
 617 260 617 260 635 269 c 4,319,-1
 644 273 644 273 653.5 280 c 4,322,-1
 663 287 663 287 669 291 c 4,325,-1
 675 295 675 295 679 295 c 4,328,-1
 689 295 689 295 689 281 c 4,331,-1
 689 279 689 279 686 267 c 4,334,-1
 683 255 683 255 683 251 c 4,337,-1
 679 151 679 151 679 51 c 4,340,-1
 679 16 679 16 678 -23 c 4,343,-1
 677 -62 677 -62 677 -68 c 4,346,-1
 677 -80 677 -80 679.5 -88 c 4,349,-1
 682 -96 682 -96 684 -100.5 c 4,352,-1
 686 -105 686 -105 693.5 -107.5 c 4,355,-1
 701 -110 701 -110 704.5 -111 c 4,358,-1
 708 -112 708 -112 720 -113 c 4,361,-1
 732 -114 732 -114 737 -114 c 4,364,-1
 749 -116 749 -116 749 -127 c 4,367,-1
 749 -139 749 -139 714 -139 c 4,370,-1
 705 -139 705 -139 685 -138.5 c 4,373,-1
 665 -138 665 -138 652 -138 c 4,376,-1
 637 -138 637 -138 611.5 -139 c 4,379,-1
 586 -140 586 -140 578 -140 c 4,382,-1
 559 -140 559 -140 559 -128 c 4,385,-1
 559 -114 559 -114 581 -114 c 4,388,-1
 599 -114 599 -114 606.5 -110 c 4,391,-1
 614 -106 614 -106 616 -90 c 4,394,-1
 622 -46 622 -46 622 70 c 4,397,-1
 622 111 622 111 622 137 c 4,400,-1
 622 163 622 163 622.5 170.5 c 4,403,-1
 623 178 623 178 623 182.5 c 4,406,-1
 623 187 623 187 623 190 c 4,409,-1
 623 226 623 226 602 226 c 4,412,-1
 594 226 594 226 583 220 c 4,415,-1
 572 214 572 214 564 214 c 4,418,-1
 563 214 563 214 561.5 215 c 4,421,-1
 560 216 560 216 558 219 c 4,424,-1
 556 222 556 222 556 226 c 4,310,-1
EndSplineSet
EndChar
StartChar: uF265C
Encoding: 992860 992860 95
Width: 1000
Flags: MW
LayerCount: 2
Back
Fore
SplineSet
704 -132 m 2,0,-1
 704 -130 l 2,1,-1
 704 -124 704 -124 721.5 -104.5 c 0,4,-1
 739 -85 739 -85 772.5 -36.5 c 0,7,-1
 806 12 806 12 837 77 c 0,10,-1
 864 134 864 134 864 187 c 0,13,-1
 864 212 864 212 847.5 227.5 c 0,16,-1
 831 243 831 243 802 243 c 0,19,-1
 776 243 776 243 757 234 c 0,22,-1
 738 225 738 225 728 216 c 0,25,-1
 718 207 718 207 714 207 c 0,28,-1
 709 207 709 207 709 216 c 0,31,-1
 709 219 709 219 713 227 c 0,34,-1
 717 235 717 235 727 246.5 c 0,37,-1
 737 258 737 258 750 268.5 c 0,40,-1
 763 279 763 279 784 286.5 c 0,43,-1
 805 294 805 294 828 294 c 0,46,-1
 867 294 867 294 897 272.5 c 0,49,-1
 927 251 927 251 927 212 c 0,52,-1
 927 166 927 166 889 97 c 0,55,-1
 851 28 851 28 813 -23 c 0,58,-1
 775 -74 775 -74 775 -76 c 0,61,-1
 775 -81 775 -81 801 -81 c 2,64,-1
 815 -81 l 2,65,-1
 847 -81 847 -81 862.5 -81 c 0,68,-1
 878 -81 878 -81 889.5 -80 c 0,71,-1
 901 -79 901 -79 902.5 -79 c 0,74,-1
 904 -79 904 -79 909.5 -76.5 c 0,77,-1
 915 -74 915 -74 916 -73 c 0,80,-1
 926 -69 926 -69 940 -55.5 c 0,83,-1
 954 -42 954 -42 958 -42 c 0,86,-1
 965 -42 965 -42 965 -48 c 2,89,-1
 922 -127 l 2,90,-1
 913 -140 913 -140 901 -140 c 0,93,-1
 858 -140 858 -140 831 -139 c 0,96,-1
 804 -138 804 -138 794 -138 c 0,99,-1
 787 -138 787 -138 760 -138.5 c 0,102,-1
 733 -139 733 -139 724 -139 c 0,105,-1
 704 -139 704 -139 704 -132 c 2,0,-1
494 226 m 0,108,-1
 494 236 494 236 501.5 240.5 c 0,111,-1
 509 245 509 245 532 252.5 c 0,114,-1
 555 260 555 260 573 269 c 0,117,-1
 582 273 582 273 591.5 280 c 0,120,-1
 601 287 601 287 607 291 c 0,123,-1
 613 295 613 295 617 295 c 0,126,-1
 627 295 627 295 627 281 c 0,129,-1
 627 279 627 279 624 267 c 0,132,-1
 621 255 621 255 621 251 c 0,135,-1
 617 151 617 151 617 51 c 0,138,-1
 617 16 617 16 616 -23 c 0,141,-1
 615 -62 615 -62 615 -68 c 0,144,-1
 615 -80 615 -80 617.5 -88 c 0,147,-1
 620 -96 620 -96 622 -100.5 c 0,150,-1
 624 -105 624 -105 631.5 -107.5 c 0,153,-1
 639 -110 639 -110 642.5 -111 c 0,156,-1
 646 -112 646 -112 658 -113 c 0,159,-1
 670 -114 670 -114 675 -114 c 0,162,-1
 687 -116 687 -116 687 -127 c 0,165,-1
 687 -139 687 -139 652 -139 c 0,168,-1
 643 -139 643 -139 623 -138.5 c 0,171,-1
 603 -138 603 -138 590 -138 c 0,174,-1
 575 -138 575 -138 549.5 -139 c 0,177,-1
 524 -140 524 -140 516 -140 c 0,180,-1
 497 -140 497 -140 497 -128 c 0,183,-1
 497 -114 497 -114 519 -114 c 0,186,-1
 537 -114 537 -114 544.5 -110 c 0,189,-1
 552 -106 552 -106 554 -90 c 0,192,-1
 560 -46 560 -46 560 70 c 0,195,-1
 560 111 560 111 560 137 c 0,198,-1
 560 163 560 163 560.5 170.5 c 0,201,-1
 561 178 561 178 561 182.5 c 0,204,-1
 561 187 561 187 561 190 c 0,207,-1
 561 226 561 226 540 226 c 0,210,-1
 532 226 532 226 521 220 c 0,213,-1
 510 214 510 214 502 214 c 0,216,-1
 501 214 501 214 499.5 215 c 0,219,-1
 498 216 498 216 496 219 c 0,222,-1
 494 222 494 222 494 226 c 0,108,-1
132 685 m 0,225,-1
 132 695 132 695 139.5 699.5 c 0,228,-1
 147 704 147 704 170 711.5 c 0,231,-1
 193 719 193 719 211 728 c 0,234,-1
 220 732 220 732 229.5 739 c 0,237,-1
 239 746 239 746 245 750 c 0,240,-1
 251 754 251 754 255 754 c 0,243,-1
 265 754 265 754 265 740 c 0,246,-1
 265 738 265 738 262 726 c 0,249,-1
 259 714 259 714 259 710 c 0,252,-1
 255 610 255 610 255 510 c 0,255,-1
 255 475 255 475 254 436 c 0,258,-1
 253 397 253 397 253 391 c 0,261,-1
 253 379 253 379 255.5 371 c 0,264,-1
 258 363 258 363 260 358.5 c 0,267,-1
 262 354 262 354 269.5 351.5 c 0,270,-1
 277 349 277 349 280.5 348 c 0,273,-1
 284 347 284 347 296 346 c 0,276,-1
 308 345 308 345 313 345 c 0,279,-1
 325 343 325 343 325 332 c 0,282,-1
 325 320 325 320 290 320 c 0,285,-1
 281 320 281 320 261 320.5 c 0,288,-1
 241 321 241 321 228 321 c 0,291,-1
 213 321 213 321 187.5 320 c 0,294,-1
 162 319 162 319 154 319 c 0,297,-1
 135 319 135 319 135 331 c 0,300,-1
 135 345 135 345 157 345 c 0,303,-1
 175 345 175 345 182.5 349 c 0,306,-1
 190 353 190 353 192 369 c 0,309,-1
 198 413 198 413 198 529 c 0,312,-1
 198 570 198 570 198 596 c 0,315,-1
 198 622 198 622 198.5 629.5 c 0,318,-1
 199 637 199 637 199 641.5 c 0,321,-1
 199 646 199 646 199 649 c 0,324,-1
 199 685 199 685 178 685 c 0,327,-1
 170 685 170 685 159 679 c 0,330,-1
 148 673 148 673 140 673 c 0,333,-1
 139 673 139 673 137.5 674 c 0,336,-1
 136 675 136 675 134 678 c 0,339,-1
 132 681 132 681 132 685 c 0,225,-1
49 -170 m 0,342,-1
 49 -161 50 -148 77 -121 c 2,345,-1
 77 -121 737 712 742 717 c 0,348,-1
 753 729 759 735 777 735 c 0,351,-1
 786 735 790 728 790 723 c 0,354,-1
 790 707 779 697 770 687 c 2,357,-1
 108 -152 l 2,358,-1
 88 -173 82 -183 67 -183 c 0,361,-1
 55 -183 49 -178 49 -170 c 0,342,-1
EndSplineSet
EndChar
StartChar: uF265D
Encoding: 992861 992861 96
Width: 1000
Flags: MW
LayerCount: 2
Back
Fore
SplineSet
97 330 m 0,0,-1
 97 341 97 341 105 341 c 0,3,-1
 107 341 107 341 125 334 c 0,6,-1
 143 327 143 327 170 327 c 0,9,-1
 218 327 218 327 248.5 364 c 0,12,-1
 279 401 279 401 279 452 c 0,15,-1
 279 490 279 490 257.5 515 c 0,18,-1
 236 540 236 540 194 540 c 0,21,-1
 172 540 172 540 158 537.5 c 0,24,-1
 144 535 144 535 143 535 c 0,27,-1
 130 535 130 535 130 550 c 0,30,-1
 130 557 130 557 133.5 580.5 c 0,33,-1
 137 604 137 604 143.5 645 c 0,36,-1
 150 686 150 686 155 723 c 0,39,-1
 157 739 157 739 176 739 c 0,42,-1
 269 740 269 740 284 741 c 0,45,-1
 299 742 299 742 308 748 c 0,48,-1
 312 751 312 751 315.5 755 c 0,51,-1
 319 759 319 759 321.5 761 c 0,54,-1
 324 763 324 763 327 763 c 0,57,-1
 335 763 335 763 335 756 c 0,60,-1
 335 751 335 751 333 745 c 0,63,-1
 330 737 330 737 325 725 c 0,66,-1
 313 695 313 695 309 689 c 0,69,-1
 305 683 305 683 297 683 c 0,72,-1
 296 683 296 683 282 683.5 c 0,75,-1
 268 684 268 684 258 684 c 0,78,-1
 188 684 188 684 182 675 c 0,81,-1
 178 666 178 666 172.5 637.5 c 0,84,-1
 167 609 167 609 167 599 c 0,87,-1
 167 590 167 590 171 590 c 2,90,-1
 173 591 l 2,91,-1
 175 591 175 591 178.5 592 c 0,94,-1
 182 593 182 593 187.5 594.5 c 0,97,-1
 193 596 193 596 202 596.5 c 0,100,-1
 211 597 211 597 222 597 c 0,103,-1
 277 597 277 597 310 559 c 0,106,-1
 340 523 340 523 340 479 c 0,109,-1
 340 394 340 394 292 346.5 c 0,112,-1
 244 299 244 299 183 299 c 0,115,-1
 154 299 154 299 125.5 307 c 0,118,-1
 97 315 97 315 97 330 c 0,0,-1
49 -170 m 0,121,-1
 49 -161 50 -148 77 -121 c 2,124,-1
 77 -121 737 712 742 717 c 0,127,-1
 753 729 759 735 777 735 c 0,130,-1
 786 735 790 728 790 723 c 0,133,-1
 790 707 779 697 770 687 c 2,136,-1
 108 -152 l 2,137,-1
 88 -173 82 -183 67 -183 c 0,140,-1
 55 -183 49 -178 49 -170 c 0,121,-1
704 -132 m 2,143,-1
 704 -130 l 2,144,-1
 704 -124 704 -124 721.5 -104.5 c 0,147,-1
 739 -85 739 -85 772.5 -36.5 c 0,150,-1
 806 12 806 12 837 77 c 0,153,-1
 864 134 864 134 864 187 c 0,156,-1
 864 212 864 212 847.5 227.5 c 0,159,-1
 831 243 831 243 802 243 c 0,162,-1
 776 243 776 243 757 234 c 0,165,-1
 738 225 738 225 728 216 c 0,168,-1
 718 207 718 207 714 207 c 0,171,-1
 709 207 709 207 709 216 c 0,174,-1
 709 219 709 219 713 227 c 0,177,-1
 717 235 717 235 727 246.5 c 0,180,-1
 737 258 737 258 750 268.5 c 0,183,-1
 763 279 763 279 784 286.5 c 0,186,-1
 805 294 805 294 828 294 c 0,189,-1
 867 294 867 294 897 272.5 c 0,192,-1
 927 251 927 251 927 212 c 0,195,-1
 927 166 927 166 889 97 c 0,198,-1
 851 28 851 28 813 -23 c 0,201,-1
 775 -74 775 -74 775 -76 c 0,204,-1
 775 -81 775 -81 801 -81 c 2,207,-1
 815 -81 l 2,208,-1
 847 -81 847 -81 862.5 -81 c 0,211,-1
 878 -81 878 -81 889.5 -80 c 0,214,-1
 901 -79 901 -79 902.5 -79 c 0,217,-1
 904 -79 904 -79 909.5 -76.5 c 0,220,-1
 915 -74 915 -74 916 -73 c 0,223,-1
 926 -69 926 -69 940 -55.5 c 0,226,-1
 954 -42 954 -42 958 -42 c 0,229,-1
 965 -42 965 -42 965 -48 c 2,232,-1
 922 -127 l 2,233,-1
 913 -140 913 -140 901 -140 c 0,236,-1
 858 -140 858 -140 831 -139 c 0,239,-1
 804 -138 804 -138 794 -138 c 0,242,-1
 787 -138 787 -138 760 -138.5 c 0,245,-1
 733 -139 733 -139 724 -139 c 0,248,-1
 704 -139 704 -139 704 -132 c 2,143,-1
494 226 m 0,251,-1
 494 236 494 236 501.5 240.5 c 0,254,-1
 509 245 509 245 532 252.5 c 0,257,-1
 555 260 555 260 573 269 c 0,260,-1
 582 273 582 273 591.5 280 c 0,263,-1
 601 287 601 287 607 291 c 0,266,-1
 613 295 613 295 617 295 c 0,269,-1
 627 295 627 295 627 281 c 0,272,-1
 627 279 627 279 624 267 c 0,275,-1
 621 255 621 255 621 251 c 0,278,-1
 617 151 617 151 617 51 c 0,281,-1
 617 16 617 16 616 -23 c 0,284,-1
 615 -62 615 -62 615 -68 c 0,287,-1
 615 -80 615 -80 617.5 -88 c 0,290,-1
 620 -96 620 -96 622 -100.5 c 0,293,-1
 624 -105 624 -105 631.5 -107.5 c 0,296,-1
 639 -110 639 -110 642.5 -111 c 0,299,-1
 646 -112 646 -112 658 -113 c 0,302,-1
 670 -114 670 -114 675 -114 c 0,305,-1
 687 -116 687 -116 687 -127 c 0,308,-1
 687 -139 687 -139 652 -139 c 0,311,-1
 643 -139 643 -139 623 -138.5 c 0,314,-1
 603 -138 603 -138 590 -138 c 0,317,-1
 575 -138 575 -138 549.5 -139 c 0,320,-1
 524 -140 524 -140 516 -140 c 0,323,-1
 497 -140 497 -140 497 -128 c 0,326,-1
 497 -114 497 -114 519 -114 c 0,329,-1
 537 -114 537 -114 544.5 -110 c 0,332,-1
 552 -106 552 -106 554 -90 c 0,335,-1
 560 -46 560 -46 560 70 c 0,338,-1
 560 111 560 111 560 137 c 0,341,-1
 560 163 560 163 560.5 170.5 c 0,344,-1
 561 178 561 178 561 182.5 c 0,347,-1
 561 187 561 187 561 190 c 0,350,-1
 561 226 561 226 540 226 c 0,353,-1
 532 226 532 226 521 220 c 0,356,-1
 510 214 510 214 502 214 c 0,359,-1
 501 214 501 214 499.5 215 c 0,362,-1
 498 216 498 216 496 219 c 0,365,-1
 494 222 494 222 494 226 c 0,251,-1
EndSplineSet
EndChar
StartChar: uF265E
Encoding: 992862 992862 97
Width: 1000
Flags: MW
LayerCount: 2
Back
Fore
SplineSet
106 650 m 0,0,-1
 106 664 106 664 112 691.5 c 0,3,-1
 118 719 118 719 119 728 c 0,6,-1
 120 736 120 736 129 736 c 0,9,-1
 132 736 132 736 156.5 734.5 c 0,12,-1
 181 733 181 733 227 733 c 2,15,-1
 246 733 l 2,16,-1
 278 733 278 733 297 734 c 2,19,-1
 316 735 l 2,20,-1
 331 735 331 735 331 722 c 0,23,-1
 331 679 331 679 283.5 542.5 c 0,26,-1
 236 406 236 406 236 355 c 0,29,-1
 236 326 236 326 241 305.5 c 0,32,-1
 246 285 246 285 246 284 c 0,35,-1
 246 274 246 274 229.5 270 c 0,38,-1
 213 266 213 266 202 266 c 0,41,-1
 185 266 185 266 176.5 276.5 c 0,44,-1
 168 287 168 287 168 319 c 0,47,-1
 168 367 168 367 198.5 440.5 c 0,50,-1
 229 514 229 514 260 579 c 0,53,-1
 291 644 291 644 291 671 c 0,56,-1
 291 673 291 673 287.5 676 c 0,59,-1
 284 679 284 679 279 679 c 2,62,-1
 270 679 l 1,63,-1
 244 679 l 2,64,-1
 218 678 218 678 203 678 c 2,67,-1
 187 678 l 2,68,-1
 158 678 158 678 146 669 c 0,71,-1
 134 660 134 660 130 643 c 0,74,-1
 122 623 122 623 115 623 c 0,77,-1
 106 623 106 623 106 650 c 0,0,-1
49 -170 m 0,80,-1
 49 -161 50 -148 77 -121 c 2,83,-1
 77 -121 737 712 742 717 c 0,86,-1
 753 729 759 735 777 735 c 0,89,-1
 786 735 790 728 790 723 c 0,92,-1
 790 707 779 697 770 687 c 2,95,-1
 108 -152 l 2,96,-1
 88 -173 82 -183 67 -183 c 0,99,-1
 55 -183 49 -178 49 -170 c 0,80,-1
704 -132 m 2,102,-1
 704 -130 l 2,103,-1
 704 -124 704 -124 721.5 -104.5 c 0,106,-1
 739 -85 739 -85 772.5 -36.5 c 0,109,-1
 806 12 806 12 837 77 c 0,112,-1
 864 134 864 134 864 187 c 0,115,-1
 864 212 864 212 847.5 227.5 c 0,118,-1
 831 243 831 243 802 243 c 0,121,-1
 776 243 776 243 757 234 c 0,124,-1
 738 225 738 225 728 216 c 0,127,-1
 718 207 718 207 714 207 c 0,130,-1
 709 207 709 207 709 216 c 0,133,-1
 709 219 709 219 713 227 c 0,136,-1
 717 235 717 235 727 246.5 c 0,139,-1
 737 258 737 258 750 268.5 c 0,142,-1
 763 279 763 279 784 286.5 c 0,145,-1
 805 294 805 294 828 294 c 0,148,-1
 867 294 867 294 897 272.5 c 0,151,-1
 927 251 927 251 927 212 c 0,154,-1
 927 166 927 166 889 97 c 0,157,-1
 851 28 851 28 813 -23 c 0,160,-1
 775 -74 775 -74 775 -76 c 0,163,-1
 775 -81 775 -81 801 -81 c 2,166,-1
 815 -81 l 2,167,-1
 847 -81 847 -81 862.5 -81 c 0,170,-1
 878 -81 878 -81 889.5 -80 c 0,173,-1
 901 -79 901 -79 902.5 -79 c 0,176,-1
 904 -79 904 -79 909.5 -76.5 c 0,179,-1
 915 -74 915 -74 916 -73 c 0,182,-1
 926 -69 926 -69 940 -55.5 c 0,185,-1
 954 -42 954 -42 958 -42 c 0,188,-1
 965 -42 965 -42 965 -48 c 2,191,-1
 922 -127 l 2,192,-1
 913 -140 913 -140 901 -140 c 0,195,-1
 858 -140 858 -140 831 -139 c 0,198,-1
 804 -138 804 -138 794 -138 c 0,201,-1
 787 -138 787 -138 760 -138.5 c 0,204,-1
 733 -139 733 -139 724 -139 c 0,207,-1
 704 -139 704 -139 704 -132 c 2,102,-1
494 226 m 0,210,-1
 494 236 494 236 501.5 240.5 c 0,213,-1
 509 245 509 245 532 252.5 c 0,216,-1
 555 260 555 260 573 269 c 0,219,-1
 582 273 582 273 591.5 280 c 0,222,-1
 601 287 601 287 607 291 c 0,225,-1
 613 295 613 295 617 295 c 0,228,-1
 627 295 627 295 627 281 c 0,231,-1
 627 279 627 279 624 267 c 0,234,-1
 621 255 621 255 621 251 c 0,237,-1
 617 151 617 151 617 51 c 0,240,-1
 617 16 617 16 616 -23 c 0,243,-1
 615 -62 615 -62 615 -68 c 0,246,-1
 615 -80 615 -80 617.5 -88 c 0,249,-1
 620 -96 620 -96 622 -100.5 c 0,252,-1
 624 -105 624 -105 631.5 -107.5 c 0,255,-1
 639 -110 639 -110 642.5 -111 c 0,258,-1
 646 -112 646 -112 658 -113 c 0,261,-1
 670 -114 670 -114 675 -114 c 0,264,-1
 687 -116 687 -116 687 -127 c 0,267,-1
 687 -139 687 -139 652 -139 c 0,270,-1
 643 -139 643 -139 623 -138.5 c 0,273,-1
 603 -138 603 -138 590 -138 c 0,276,-1
 575 -138 575 -138 549.5 -139 c 0,279,-1
 524 -140 524 -140 516 -140 c 0,282,-1
 497 -140 497 -140 497 -128 c 0,285,-1
 497 -114 497 -114 519 -114 c 0,288,-1
 537 -114 537 -114 544.5 -110 c 0,291,-1
 552 -106 552 -106 554 -90 c 0,294,-1
 560 -46 560 -46 560 70 c 0,297,-1
 560 111 560 111 560 137 c 0,300,-1
 560 163 560 163 560.5 170.5 c 0,303,-1
 561 178 561 178 561 182.5 c 0,306,-1
 561 187 561 187 561 190 c 0,309,-1
 561 226 561 226 540 226 c 0,312,-1
 532 226 532 226 521 220 c 0,315,-1
 510 214 510 214 502 214 c 0,318,-1
 501 214 501 214 499.5 215 c 0,321,-1
 498 216 498 216 496 219 c 0,324,-1
 494 222 494 222 494 226 c 0,210,-1
EndSplineSet
EndChar
StartChar: uF265F
Encoding: 992863 992863 98
Width: 1000
Flags: MW
LayerCount: 2
Back
Fore
SplineSet
286 685 m 0,0,-1
 286 695 286 695 293.5 699.5 c 0,3,-1
 301 704 301 704 324 711.5 c 0,6,-1
 347 719 347 719 365 728 c 0,9,-1
 374 732 374 732 383.5 739 c 0,12,-1
 393 746 393 746 399 750 c 0,15,-1
 405 754 405 754 409 754 c 0,18,-1
 419 754 419 754 419 740 c 0,21,-1
 419 738 419 738 416 726 c 0,24,-1
 413 714 413 714 413 710 c 0,27,-1
 409 610 409 610 409 510 c 0,30,-1
 409 475 409 475 408 436 c 0,33,-1
 407 397 407 397 407 391 c 0,36,-1
 407 379 407 379 409.5 371 c 0,39,-1
 412 363 412 363 414 358.5 c 0,42,-1
 416 354 416 354 423.5 351.5 c 0,45,-1
 431 349 431 349 434.5 348 c 0,48,-1
 438 347 438 347 450 346 c 0,51,-1
 462 345 462 345 467 345 c 0,54,-1
 479 343 479 343 479 332 c 0,57,-1
 479 320 479 320 444 320 c 0,60,-1
 435 320 435 320 415 320.5 c 0,63,-1
 395 321 395 321 382 321 c 0,66,-1
 367 321 367 321 341.5 320 c 0,69,-1
 316 319 316 319 308 319 c 0,72,-1
 289 319 289 319 289 331 c 0,75,-1
 289 345 289 345 311 345 c 0,78,-1
 329 345 329 345 336.5 349 c 0,81,-1
 344 353 344 353 346 369 c 0,84,-1
 352 413 352 413 352 529 c 0,87,-1
 352 570 352 570 352 596 c 0,90,-1
 352 622 352 622 352.5 629.5 c 0,93,-1
 353 637 353 637 353 641.5 c 0,96,-1
 353 646 353 646 353 649 c 0,99,-1
 353 685 353 685 332 685 c 0,102,-1
 324 685 324 685 313 679 c 0,105,-1
 302 673 302 673 294 673 c 0,108,-1
 293 673 293 673 291.5 674 c 0,111,-1
 290 675 290 675 288 678 c 0,114,-1
 286 681 286 681 286 685 c 0,0,-1
63 685 m 0,117,-1
 63 695 63 695 70.5 699.5 c 0,120,-1
 78 704 78 704 101 711.5 c 0,123,-1
 124 719 124 719 142 728 c 0,126,-1
 151 732 151 732 160.5 739 c 0,129,-1
 170 746 170 746 176 750 c 0,132,-1
 182 754 182 754 186 754 c 0,135,-1
 196 754 196 754 196 740 c 0,138,-1
 196 738 196 738 193 726 c 0,141,-1
 190 714 190 714 190 710 c 0,144,-1
 186 610 186 610 186 510 c 0,147,-1
 186 475 186 475 185 436 c 0,150,-1
 184 397 184 397 184 391 c 0,153,-1
 184 379 184 379 186.5 371 c 0,156,-1
 189 363 189 363 191 358.5 c 0,159,-1
 193 354 193 354 200.5 351.5 c 0,162,-1
 208 349 208 349 211.5 348 c 0,165,-1
 215 347 215 347 227 346 c 0,168,-1
 239 345 239 345 244 345 c 0,171,-1
 256 343 256 343 256 332 c 0,174,-1
 256 320 256 320 221 320 c 0,177,-1
 212 320 212 320 192 320.5 c 0,180,-1
 172 321 172 321 159 321 c 0,183,-1
 144 321 144 321 118.5 320 c 0,186,-1
 93 319 93 319 85 319 c 0,189,-1
 66 319 66 319 66 331 c 0,192,-1
 66 345 66 345 88 345 c 0,195,-1
 106 345 106 345 113.5 349 c 0,198,-1
 121 353 121 353 123 369 c 0,201,-1
 129 413 129 413 129 529 c 0,204,-1
 129 570 129 570 129 596 c 0,207,-1
 129 622 129 622 129.5 629.5 c 0,210,-1
 130 637 130 637 130 641.5 c 0,213,-1
 130 646 130 646 130 649 c 0,216,-1
 130 685 130 685 109 685 c 0,219,-1
 101 685 101 685 90 679 c 0,222,-1
 79 673 79 673 71 673 c 0,225,-1
 70 673 70 673 68.5 674 c 0,228,-1
 67 675 67 675 65 678 c 0,231,-1
 63 681 63 681 63 685 c 0,117,-1
49 -170 m 0,234,-1
 49 -161 50 -148 77 -121 c 2,237,-1
 77 -121 886 712 891 717 c 0,240,-1
 902 729 908 735 926 735 c 0,243,-1
 935 735 939 728 939 723 c 0,246,-1
 939 707 928 697 919 687 c 2,249,-1
 108 -152 l 2,250,-1
 88 -173 82 -183 67 -183 c 0,253,-1
 55 -183 49 -178 49 -170 c 0,234,-1
704 -132 m 2,256,-1
 704 -130 l 2,257,-1
 704 -124 704 -124 721.5 -104.5 c 0,260,-1
 739 -85 739 -85 772.5 -36.5 c 0,263,-1
 806 12 806 12 837 77 c 0,266,-1
 864 134 864 134 864 187 c 0,269,-1
 864 212 864 212 847.5 227.5 c 0,272,-1
 831 243 831 243 802 243 c 0,275,-1
 776 243 776 243 757 234 c 0,278,-1
 738 225 738 225 728 216 c 0,281,-1
 718 207 718 207 714 207 c 0,284,-1
 709 207 709 207 709 216 c 0,287,-1
 709 219 709 219 713 227 c 0,290,-1
 717 235 717 235 727 246.5 c 0,293,-1
 737 258 737 258 750 268.5 c 0,296,-1
 763 279 763 279 784 286.5 c 0,299,-1
 805 294 805 294 828 294 c 0,302,-1
 867 294 867 294 897 272.5 c 0,305,-1
 927 251 927 251 927 212 c 0,308,-1
 927 166 927 166 889 97 c 0,311,-1
 851 28 851 28 813 -23 c 0,314,-1
 775 -74 775 -74 775 -76 c 0,317,-1
 775 -81 775 -81 801 -81 c 2,320,-1
 815 -81 l 2,321,-1
 847 -81 847 -81 862.5 -81 c 0,324,-1
 878 -81 878 -81 889.5 -80 c 0,327,-1
 901 -79 901 -79 902.5 -79 c 0,330,-1
 904 -79 904 -79 909.5 -76.5 c 0,333,-1
 915 -74 915 -74 916 -73 c 0,336,-1
 926 -69 926 -69 940 -55.5 c 0,339,-1
 954 -42 954 -42 958 -42 c 0,342,-1
 965 -42 965 -42 965 -48 c 2,345,-1
 922 -127 l 2,346,-1
 913 -140 913 -140 901 -140 c 0,349,-1
 858 -140 858 -140 831 -139 c 0,352,-1
 804 -138 804 -138 794 -138 c 0,355,-1
 787 -138 787 -138 760 -138.5 c 0,358,-1
 733 -139 733 -139 724 -139 c 0,361,-1
 704 -139 704 -139 704 -132 c 2,256,-1
494 226 m 0,364,-1
 494 236 494 236 501.5 240.5 c 0,367,-1
 509 245 509 245 532 252.5 c 0,370,-1
 555 260 555 260 573 269 c 0,373,-1
 582 273 582 273 591.5 280 c 0,376,-1
 601 287 601 287 607 291 c 0,379,-1
 613 295 613 295 617 295 c 0,382,-1
 627 295 627 295 627 281 c 0,385,-1
 627 279 627 279 624 267 c 0,388,-1
 621 255 621 255 621 251 c 0,391,-1
 617 151 617 151 617 51 c 0,394,-1
 617 16 617 16 616 -23 c 0,397,-1
 615 -62 615 -62 615 -68 c 0,400,-1
 615 -80 615 -80 617.5 -88 c 0,403,-1
 620 -96 620 -96 622 -100.5 c 0,406,-1
 624 -105 624 -105 631.5 -107.5 c 0,409,-1
 639 -110 639 -110 642.5 -111 c 0,412,-1
 646 -112 646 -112 658 -113 c 0,415,-1
 670 -114 670 -114 675 -114 c 0,418,-1
 687 -116 687 -116 687 -127 c 0,421,-1
 687 -139 687 -139 652 -139 c 0,424,-1
 643 -139 643 -139 623 -138.5 c 0,427,-1
 603 -138 603 -138 590 -138 c 0,430,-1
 575 -138 575 -138 549.5 -139 c 0,433,-1
 524 -140 524 -140 516 -140 c 0,436,-1
 497 -140 497 -140 497 -128 c 0,439,-1
 497 -114 497 -114 519 -114 c 0,442,-1
 537 -114 537 -114 544.5 -110 c 0,445,-1
 552 -106 552 -106 554 -90 c 0,448,-1
 560 -46 560 -46 560 70 c 0,451,-1
 560 111 560 111 560 137 c 0,454,-1
 560 163 560 163 560.5 170.5 c 0,457,-1
 561 178 561 178 561 182.5 c 0,460,-1
 561 187 561 187 561 190 c 0,463,-1
 561 226 561 226 540 226 c 0,466,-1
 532 226 532 226 521 220 c 0,469,-1
 510 214 510 214 502 214 c 0,472,-1
 501 214 501 214 499.5 215 c 0,475,-1
 498 216 498 216 496 219 c 0,478,-1
 494 222 494 222 494 226 c 0,364,-1
EndSplineSet
EndChar
